M48
; DRILL file {KiCad 8.0.8} date 2025-02-03T03:21:45+0100
; FORMAT={-:-/ absolute / metric / decimal}
; #@! TF.CreationDate,2025-02-03T03:21:45+01:00
; #@! TF.GenerationSoftware,Kicad,Pcbnew,8.0.8
; #@! TF.FileFunction,Plated,1,2,PTH
FMAT,2
METRIC
; #@! TA.AperFunction,Plated,PTH,ViaDrill
T1C0.400
; #@! TA.AperFunction,Plated,PTH,ComponentDrill
T2C0.920
; #@! TA.AperFunction,Plated,PTH,ComponentDrill
T3C1.000
; #@! TA.AperFunction,Plated,PTH,ComponentDrill
T4C1.300
; #@! TA.AperFunction,Plated,PTH,ComponentDrill
T5C1.400
; #@! TA.AperFunction,Plated,PTH,ComponentDrill
T6C2.300
; #@! TA.AperFunction,Plated,PTH,ComponentDrill
T7C3.200
%
G90
G05
T1
X72.892Y-42.6
X72.892Y-44.6
X72.892Y-46.6
X72.892Y-50.6
X72.892Y-52.6
X72.892Y-54.6
X72.892Y-56.6
X72.892Y-58.6
X72.892Y-60.6
X72.892Y-62.6
X72.892Y-64.6
X72.892Y-66.6
X72.892Y-68.6
X72.892Y-70.6
X72.892Y-72.6
X72.892Y-74.6
X72.892Y-76.6
X72.892Y-78.6
X72.892Y-80.6
X72.892Y-82.6
X72.892Y-84.6
X72.892Y-86.6
X72.892Y-88.6
X72.892Y-90.6
X72.892Y-92.6
X73.829Y-48.237
X74.892Y-39.6
X74.892Y-94.6
X76.142Y-83.05
X76.242Y-51.6
X76.892Y-39.6
X76.892Y-94.6
X77.392Y-51.6
X77.392Y-83.05
X78.892Y-39.6
X78.892Y-94.6
X79.392Y-60.6
X79.392Y-73.1
X79.392Y-75.6
X79.592Y-87.3
X80.642Y-45.6
X80.692Y-42.1
X80.892Y-39.6
X80.892Y-94.6
X81.192Y-86.3
X81.892Y-58.1
X81.892Y-75.6
X81.892Y-83.1
X82.192Y-86.3
X82.492Y-43.05
X82.492Y-46.55
X82.492Y-50.05
X82.892Y-39.6
X82.892Y-94.6
X84.392Y-53.1
X84.392Y-55.6
X84.392Y-58.1
X84.392Y-60.6
X84.392Y-63.1
X84.392Y-65.6
X84.392Y-68.1
X84.392Y-70.6
X84.392Y-73.1
X84.392Y-75.6
X84.392Y-80.6
X84.892Y-39.6
X84.892Y-94.6
X86.892Y-39.6
X86.892Y-94.6
X87.342Y-86.062
X87.379Y-89.562
X87.692Y-91.6
X88.892Y-94.6
X90.892Y-39.6
X90.892Y-94.6
X91.892Y-48.1
X91.892Y-53.1
X91.892Y-55.6
X91.892Y-58.1
X91.892Y-60.6
X91.892Y-63.1
X91.892Y-65.6
X91.892Y-68.1
X92.192Y-50.55
X92.242Y-42.93
X92.892Y-39.6
X92.892Y-84.65
X93.292Y-89.25
X94.392Y-48.1
X94.392Y-50.6
X94.392Y-53.1
X94.392Y-55.6
X94.392Y-58.1
X94.392Y-60.6
X94.392Y-63.1
X94.392Y-65.6
X94.392Y-68.1
X94.392Y-70.6
X94.392Y-78.1
X94.642Y-81.3
X94.692Y-85.8
X94.742Y-79.85
X94.892Y-39.6
X95.942Y-87.3
X96.632Y-78.25
X96.892Y-39.6
X96.892Y-43.1
X96.892Y-48.1
X96.892Y-50.6
X96.892Y-53.1
X96.892Y-55.6
X96.892Y-63.1
X96.892Y-65.6
X97.792Y-83.05
X98.442Y-78.15
X98.892Y-39.6
X99.342Y-87.4
X99.392Y-43.1
X99.392Y-48.1
X99.392Y-50.6
X99.392Y-53.1
X99.392Y-65.6
X99.642Y-72.95
X99.892Y-94.6
X100.292Y-71.47
X100.892Y-39.6
X101.692Y-75.25
X101.892Y-43.1
X101.892Y-48.1
X101.892Y-50.6
X101.892Y-53.1
X101.892Y-65.6
X102.592Y-80.05
X102.892Y-39.6
X103.192Y-74.75
X104.092Y-76.7
X104.392Y-43.1
X104.392Y-48.1
X104.392Y-50.6
X104.392Y-53.1
X104.392Y-55.6
X104.892Y-39.6
X104.892Y-94.6
X105.042Y-75.475
X105.592Y-78.49
X105.792Y-76.7
X107.142Y-89.2
X108.892Y-94.6
X111.142Y-64.55
X111.442Y-83.5
X112.892Y-94.6
X116.322Y-70.88
X116.642Y-88.9
X116.892Y-39.6
X116.892Y-45.6
X116.892Y-78.1
X116.892Y-80.6
X116.892Y-94.6
X116.942Y-41.65
X118.842Y-83.45
X118.892Y-39.6
X119.192Y-81.55
X119.292Y-86.05
X119.392Y-45.6
X119.392Y-50.6
X119.392Y-58.1
X119.392Y-63.1
X119.392Y-65.6
X120.892Y-39.6
X120.892Y-94.6
X121.492Y-80.8
X121.892Y-45.6
X121.892Y-50.6
X121.892Y-58.1
X121.892Y-63.1
X121.892Y-65.6
X121.892Y-73.1
X122.892Y-39.6
X122.892Y-60.7
X123.592Y-55.75
X123.792Y-79.85
X123.892Y-94.6
X124.342Y-53.1
X124.392Y-45.6
X124.392Y-73.1
X124.742Y-82.45
X124.892Y-39.6
X125.292Y-51.85
X125.867Y-67.05
X126.392Y-81.8
X126.892Y-39.6
X126.892Y-45.6
X126.892Y-50.6
X126.892Y-53.1
X126.892Y-56.9
X127.542Y-59.45
X127.892Y-94.6
X127.942Y-81.15
X128.192Y-44.3
X128.192Y-54.4
X128.792Y-85.3
X128.892Y-39.6
X129.142Y-64.5
X129.392Y-53.1
X129.767Y-62.075
X133.742Y-49.3
X133.742Y-51.8
X134.392Y-73.1
X134.392Y-75.6
X134.392Y-78.1
X134.792Y-61.85
X134.792Y-63.15
X134.892Y-39.6
X136.892Y-39.6
X136.892Y-70.6
X136.892Y-73.1
X136.892Y-75.6
X136.892Y-94.6
X137.042Y-59.75
X137.242Y-61.75
X138.892Y-39.6
X138.892Y-94.6
X139.792Y-62.2
X140.442Y-74.75
X140.442Y-93.1
X140.892Y-39.6
X140.892Y-94.6
X141.192Y-61.65
X141.892Y-45.6
X141.892Y-48.1
X141.892Y-50.6
X141.892Y-85.6
X141.992Y-90.55
X142.142Y-74.85
X142.892Y-39.6
X142.892Y-94.6
X143.342Y-71.0
X143.842Y-90.5
X143.917Y-73.075
X144.392Y-45.6
X144.392Y-48.1
X144.392Y-50.6
X144.392Y-85.6
X144.892Y-39.6
X144.892Y-93.85
X144.942Y-90.5
X145.092Y-73.1
X145.542Y-92.95
X146.242Y-67.15
X146.892Y-39.6
X146.892Y-75.6
X146.892Y-85.6
X146.892Y-94.6
X147.442Y-44.9
X147.942Y-73.35
X148.242Y-67.15
X148.892Y-39.6
X148.892Y-94.6
X149.392Y-75.6
X150.242Y-63.15
X150.242Y-67.55
X150.892Y-39.6
X150.892Y-94.6
X151.742Y-71.7
X152.892Y-39.6
X152.892Y-94.6
X154.892Y-39.6
X154.892Y-94.6
X156.792Y-49.35
X156.892Y-39.6
X156.892Y-55.6
X156.892Y-58.1
X156.892Y-65.6
X156.892Y-68.1
X156.892Y-75.6
X156.892Y-78.1
X156.892Y-94.6
X158.892Y-39.6
X158.892Y-94.6
X159.392Y-73.1
X160.892Y-39.6
X160.892Y-94.6
X161.892Y-48.1
X161.892Y-50.6
X161.892Y-53.1
X161.892Y-55.6
X161.892Y-58.1
X161.892Y-60.6
X161.892Y-63.1
X161.892Y-65.6
X161.892Y-68.1
X161.892Y-70.6
X161.892Y-73.1
X161.892Y-75.6
X161.892Y-78.1
X161.892Y-80.6
X161.892Y-85.6
X162.892Y-39.6
X162.892Y-94.6
X164.392Y-48.1
X164.392Y-50.6
X164.392Y-53.1
X164.392Y-55.6
X164.392Y-58.1
X164.392Y-60.6
X164.392Y-63.1
X164.392Y-65.6
X164.392Y-68.1
X164.392Y-70.6
X164.392Y-73.1
X164.392Y-75.6
X164.392Y-78.1
X164.392Y-80.6
X164.392Y-83.1
X164.392Y-85.6
X164.892Y-39.6
X164.892Y-94.6
X166.892Y-39.6
X166.892Y-48.1
X166.892Y-50.6
X166.892Y-55.6
X166.892Y-58.1
X166.892Y-60.6
X166.892Y-65.6
X166.892Y-68.1
X166.892Y-70.6
X166.892Y-73.1
X166.892Y-75.6
X166.892Y-78.1
X166.892Y-85.6
X166.892Y-94.6
X168.892Y-39.6
X168.892Y-94.6
X169.392Y-48.1
X169.392Y-55.6
X169.392Y-58.1
X169.392Y-65.6
X169.392Y-68.1
X169.392Y-75.6
X169.392Y-78.1
X169.392Y-85.6
X170.892Y-42.6
X170.892Y-44.6
X170.892Y-46.6
X170.892Y-48.6
X170.892Y-50.6
X170.892Y-54.6
X170.892Y-56.6
X170.892Y-58.6
X170.892Y-60.6
X170.892Y-64.6
X170.892Y-66.6
X170.892Y-68.6
X170.892Y-74.6
X170.892Y-76.6
X170.892Y-78.6
X170.892Y-84.6
X170.892Y-86.6
X170.892Y-88.6
X170.892Y-90.6
X170.892Y-92.6
T2
X140.442Y-52.06
X140.442Y-54.68
X140.442Y-79.47
X140.442Y-82.09
X142.942Y-52.06
X142.942Y-54.68
X142.942Y-79.47
X142.942Y-82.09
X144.942Y-52.06
X144.942Y-54.68
X144.942Y-79.47
X144.942Y-82.09
X147.442Y-52.06
X147.442Y-54.68
X147.442Y-79.47
X147.442Y-82.09
T3
X79.732Y-62.935
X79.732Y-65.705
X79.732Y-68.475
X79.732Y-71.245
X82.572Y-61.55
X82.572Y-64.32
X82.572Y-67.09
X82.572Y-69.86
X82.572Y-72.63
X89.022Y-40.39
X89.022Y-42.93
X89.022Y-45.47
X89.022Y-48.01
X89.022Y-50.55
X89.022Y-53.09
X89.022Y-55.63
X89.022Y-58.17
X89.022Y-60.71
X89.022Y-63.25
X89.022Y-65.79
X89.022Y-68.33
X89.022Y-70.87
X89.022Y-73.41
X89.022Y-75.95
X89.022Y-78.49
X89.022Y-81.03
X89.022Y-83.57
X89.022Y-86.11
X89.022Y-88.65
X109.342Y-40.39
X109.342Y-42.93
X109.342Y-45.47
X109.342Y-48.01
X109.342Y-50.55
X109.342Y-53.09
X109.342Y-55.63
X109.342Y-58.17
X109.342Y-60.71
X109.342Y-63.25
X109.342Y-65.79
X109.342Y-68.33
X109.342Y-70.87
X109.342Y-73.41
X109.342Y-75.95
X109.342Y-78.49
X109.342Y-81.03
X109.342Y-83.57
X109.342Y-86.11
X109.342Y-88.65
X114.341Y-40.4
X114.341Y-42.94
X114.341Y-45.48
X114.341Y-48.02
X114.341Y-50.56
X114.341Y-53.1
X114.341Y-55.64
X114.341Y-58.18
X114.341Y-60.72
X114.341Y-63.26
X114.341Y-65.8
X114.341Y-68.34
X114.341Y-70.88
X114.341Y-73.42
X114.341Y-75.96
X114.341Y-78.5
X114.341Y-81.04
X114.341Y-83.58
X114.341Y-86.12
X114.341Y-88.66
X132.122Y-40.39
X132.122Y-42.93
X132.122Y-45.47
X132.122Y-48.01
X132.122Y-50.55
X132.122Y-53.09
X132.122Y-55.63
X132.122Y-58.17
X132.122Y-60.71
X132.122Y-63.25
X132.122Y-65.79
X132.122Y-68.33
X132.122Y-70.87
X132.122Y-73.41
X132.122Y-75.95
X132.122Y-78.49
X132.122Y-81.03
X132.122Y-83.57
X132.122Y-86.11
X132.122Y-88.65
X153.592Y-89.25
X153.592Y-91.79
X153.612Y-42.4
X153.612Y-44.94
X156.132Y-89.25
X156.132Y-91.79
X156.152Y-42.4
X156.152Y-44.94
X158.672Y-89.25
X158.672Y-91.79
X158.692Y-42.4
X158.692Y-44.94
X161.212Y-89.25
X161.212Y-91.79
X161.232Y-42.4
X161.232Y-44.94
T4
X94.552Y-92.85
X98.512Y-92.85
X102.472Y-92.85
X106.432Y-92.85
X110.392Y-92.85
X114.352Y-92.85
X118.312Y-92.85
X122.272Y-92.85
X126.232Y-92.85
T5
X156.642Y-52.35
X156.642Y-62.35
X156.642Y-71.85
X156.642Y-81.85
X159.142Y-49.85
X159.142Y-57.35
X159.142Y-64.85
X159.142Y-69.35
X159.142Y-76.85
X159.142Y-84.35
X169.142Y-52.35
X169.142Y-62.35
X169.142Y-71.85
X169.142Y-81.85
T6
X137.372Y-49.35
X137.372Y-55.03
X137.372Y-79.12
X137.372Y-84.8
X150.512Y-49.35
X150.512Y-55.03
X150.512Y-79.12
X150.512Y-84.8
T7
X81.152Y-54.59
X81.152Y-79.59
M30
