G04 #@! TF.GenerationSoftware,KiCad,Pcbnew,8.0.4+dfsg-1*
G04 #@! TF.CreationDate,2025-02-26T12:03:38+01:00*
G04 #@! TF.ProjectId,MiSTeryShield20kRPiPico,4d695354-6572-4795-9368-69656c643230,V2*
G04 #@! TF.SameCoordinates,Original*
G04 #@! TF.FileFunction,Soldermask,Bot*
G04 #@! TF.FilePolarity,Negative*
%FSLAX46Y46*%
G04 Gerber Fmt 4.6, Leading zero omitted, Abs format (unit mm)*
G04 Created by KiCad (PCBNEW 8.0.4+dfsg-1) date 2025-02-26 12:03:38*
%MOMM*%
%LPD*%
G01*
G04 APERTURE LIST*
G04 Aperture macros list*
%AMRoundRect*
0 Rectangle with rounded corners*
0 $1 Rounding radius*
0 $2 $3 $4 $5 $6 $7 $8 $9 X,Y pos of 4 corners*
0 Add a 4 corners polygon primitive as box body*
4,1,4,$2,$3,$4,$5,$6,$7,$8,$9,$2,$3,0*
0 Add four circle primitives for the rounded corners*
1,1,$1+$1,$2,$3*
1,1,$1+$1,$4,$5*
1,1,$1+$1,$6,$7*
1,1,$1+$1,$8,$9*
0 Add four rect primitives between the rounded corners*
20,1,$1+$1,$2,$3,$4,$5,0*
20,1,$1+$1,$4,$5,$6,$7,0*
20,1,$1+$1,$6,$7,$8,$9,0*
20,1,$1+$1,$8,$9,$2,$3,0*%
G04 Aperture macros list end*
%ADD10RoundRect,0.063500X-1.270000X-1.270000X1.270000X-1.270000X1.270000X1.270000X-1.270000X1.270000X0*%
%ADD11C,2.667000*%
%ADD12R,1.700000X1.700000*%
%ADD13O,1.700000X1.700000*%
%ADD14C,3.200000*%
%ADD15C,4.000000*%
%ADD16R,1.600000X1.600000*%
%ADD17C,1.600000*%
%ADD18C,2.500000*%
%ADD19R,1.500000X1.500000*%
%ADD20C,1.500000*%
%ADD21C,3.000000*%
G04 APERTURE END LIST*
D10*
G04 #@! TO.C,J2*
X126232000Y-92850000D03*
D11*
X122272000Y-92850000D03*
X118312000Y-92850000D03*
X114352000Y-92850000D03*
X110392000Y-92850000D03*
X106432000Y-92850000D03*
X102472000Y-92850000D03*
X98512000Y-92850000D03*
X94552000Y-92850000D03*
G04 #@! TD*
D12*
G04 #@! TO.C,J9*
X132122000Y-40390000D03*
D13*
X132122000Y-42930000D03*
X132122000Y-45470000D03*
X132122000Y-48010000D03*
X132122000Y-50550000D03*
X132122000Y-53090000D03*
X132122000Y-55630000D03*
X132122000Y-58170000D03*
X132122000Y-60710000D03*
X132122000Y-63250000D03*
X132122000Y-65790000D03*
X132122000Y-68330000D03*
X132122000Y-70870000D03*
X132122000Y-73410000D03*
X132122000Y-75950000D03*
X132122000Y-78490000D03*
X132122000Y-81030000D03*
X132122000Y-83570000D03*
X132122000Y-86110000D03*
X132122000Y-88650000D03*
G04 #@! TD*
D12*
G04 #@! TO.C,J10*
X161232000Y-42400000D03*
D13*
X161232000Y-44940000D03*
X158692000Y-42400000D03*
X158692000Y-44940000D03*
X156152000Y-42400000D03*
X156152000Y-44940000D03*
X153612000Y-42400000D03*
X153612000Y-44940000D03*
G04 #@! TD*
D14*
G04 #@! TO.C,H3*
X166892000Y-90600000D03*
G04 #@! TD*
D15*
G04 #@! TO.C,J1*
X81152331Y-54590000D03*
X81152331Y-79590000D03*
D16*
X82572331Y-61550000D03*
D17*
X82572331Y-64320000D03*
X82572331Y-67090000D03*
X82572331Y-69860000D03*
X82572331Y-72630000D03*
X79732331Y-62935000D03*
X79732331Y-65705000D03*
X79732331Y-68475000D03*
X79732331Y-71245000D03*
G04 #@! TD*
D12*
G04 #@! TO.C,J3*
X161212000Y-89250000D03*
D13*
X161212000Y-91790000D03*
X158672000Y-89250000D03*
X158672000Y-91790000D03*
X156132000Y-89250000D03*
X156132000Y-91790000D03*
X153592000Y-89250000D03*
X153592000Y-91790000D03*
G04 #@! TD*
D14*
G04 #@! TO.C,H2*
X166892000Y-43600000D03*
G04 #@! TD*
D12*
G04 #@! TO.C,J4*
X89022000Y-40390000D03*
D13*
X89022000Y-42930000D03*
X89022000Y-45470000D03*
X89022000Y-48010000D03*
X89022000Y-50550000D03*
X89022000Y-53090000D03*
X89022000Y-55630000D03*
X89022000Y-58170000D03*
X89022000Y-60710000D03*
X89022000Y-63250000D03*
X89022000Y-65790000D03*
X89022000Y-68330000D03*
X89022000Y-70870000D03*
X89022000Y-73410000D03*
X89022000Y-75950000D03*
X89022000Y-78490000D03*
X89022000Y-81030000D03*
X89022000Y-83570000D03*
X89022000Y-86110000D03*
X89022000Y-88650000D03*
G04 #@! TD*
D18*
G04 #@! TO.C,J5*
X159142000Y-69350000D03*
X159142000Y-76850000D03*
X159142000Y-84350000D03*
X156642000Y-71850000D03*
X156642000Y-81850000D03*
X169142000Y-81850000D03*
X169142000Y-71850000D03*
G04 #@! TD*
D12*
G04 #@! TO.C,J8*
X114341000Y-40400000D03*
D13*
X114341000Y-42940000D03*
X114341000Y-45480000D03*
X114341000Y-48020000D03*
X114341000Y-50560000D03*
X114341000Y-53100000D03*
X114341000Y-55640000D03*
X114341000Y-58180000D03*
X114341000Y-60720000D03*
X114341000Y-63260000D03*
X114341000Y-65800000D03*
X114341000Y-68340000D03*
X114341000Y-70880000D03*
X114341000Y-73420000D03*
X114341000Y-75960000D03*
X114341000Y-78500000D03*
X114341000Y-81040000D03*
X114341000Y-83580000D03*
X114341000Y-86120000D03*
X114341000Y-88660000D03*
G04 #@! TD*
D12*
G04 #@! TO.C,J7*
X109342000Y-40390000D03*
D13*
X109342000Y-42930000D03*
X109342000Y-45470000D03*
X109342000Y-48010000D03*
X109342000Y-50550000D03*
X109342000Y-53090000D03*
X109342000Y-55630000D03*
X109342000Y-58170000D03*
X109342000Y-60710000D03*
X109342000Y-63250000D03*
X109342000Y-65790000D03*
X109342000Y-68330000D03*
X109342000Y-70870000D03*
X109342000Y-73410000D03*
X109342000Y-75950000D03*
X109342000Y-78490000D03*
X109342000Y-81030000D03*
X109342000Y-83570000D03*
X109342000Y-86110000D03*
X109342000Y-88650000D03*
G04 #@! TD*
D18*
G04 #@! TO.C,J6*
X159142000Y-49850000D03*
X159142000Y-57350000D03*
X159142000Y-64850000D03*
X156642000Y-52350000D03*
X156642000Y-62350000D03*
X169142000Y-62350000D03*
X169142000Y-52350000D03*
G04 #@! TD*
D19*
G04 #@! TO.C,J12*
X147442000Y-54680000D03*
D20*
X144942000Y-54680000D03*
X142942000Y-54680000D03*
X140442000Y-54680000D03*
X147442000Y-52060000D03*
X144942000Y-52060000D03*
X142942000Y-52060000D03*
X140442000Y-52060000D03*
D21*
X150512000Y-55030000D03*
X150512000Y-49350000D03*
X137372000Y-55030000D03*
X137372000Y-49350000D03*
G04 #@! TD*
D14*
G04 #@! TO.C,H1*
X76892000Y-43600000D03*
G04 #@! TD*
G04 #@! TO.C,H4*
X76892000Y-90600000D03*
G04 #@! TD*
D19*
G04 #@! TO.C,J11*
X140442000Y-79470000D03*
D20*
X142942000Y-79470000D03*
X144942000Y-79470000D03*
X147442000Y-79470000D03*
X140442000Y-82090000D03*
X142942000Y-82090000D03*
X144942000Y-82090000D03*
X147442000Y-82090000D03*
D21*
X137372000Y-79120000D03*
X137372000Y-84800000D03*
X150512000Y-79120000D03*
X150512000Y-84800000D03*
G04 #@! TD*
M02*
