G04 #@! TF.GenerationSoftware,KiCad,Pcbnew,8.0.4+dfsg-1*
G04 #@! TF.CreationDate,2025-02-26T12:03:38+01:00*
G04 #@! TF.ProjectId,MiSTeryShield20kRPiPico,4d695354-6572-4795-9368-69656c643230,V2*
G04 #@! TF.SameCoordinates,Original*
G04 #@! TF.FileFunction,Paste,Top*
G04 #@! TF.FilePolarity,Positive*
%FSLAX46Y46*%
G04 Gerber Fmt 4.6, Leading zero omitted, Abs format (unit mm)*
G04 Created by KiCad (PCBNEW 8.0.4+dfsg-1) date 2025-02-26 12:03:38*
%MOMM*%
%LPD*%
G01*
G04 APERTURE LIST*
G04 Aperture macros list*
%AMRoundRect*
0 Rectangle with rounded corners*
0 $1 Rounding radius*
0 $2 $3 $4 $5 $6 $7 $8 $9 X,Y pos of 4 corners*
0 Add a 4 corners polygon primitive as box body*
4,1,4,$2,$3,$4,$5,$6,$7,$8,$9,$2,$3,0*
0 Add four circle primitives for the rounded corners*
1,1,$1+$1,$2,$3*
1,1,$1+$1,$4,$5*
1,1,$1+$1,$6,$7*
1,1,$1+$1,$8,$9*
0 Add four rect primitives between the rounded corners*
20,1,$1+$1,$2,$3,$4,$5,0*
20,1,$1+$1,$4,$5,$6,$7,0*
20,1,$1+$1,$6,$7,$8,$9,0*
20,1,$1+$1,$8,$9,$2,$3,0*%
G04 Aperture macros list end*
%ADD10RoundRect,0.250000X-0.450000X0.262500X-0.450000X-0.262500X0.450000X-0.262500X0.450000X0.262500X0*%
%ADD11RoundRect,0.250000X0.450000X-0.262500X0.450000X0.262500X-0.450000X0.262500X-0.450000X-0.262500X0*%
%ADD12RoundRect,0.250000X-0.475000X0.250000X-0.475000X-0.250000X0.475000X-0.250000X0.475000X0.250000X0*%
%ADD13RoundRect,0.150000X0.587500X0.150000X-0.587500X0.150000X-0.587500X-0.150000X0.587500X-0.150000X0*%
%ADD14R,1.400000X1.200000*%
%ADD15RoundRect,0.243750X-0.456250X0.243750X-0.456250X-0.243750X0.456250X-0.243750X0.456250X0.243750X0*%
%ADD16RoundRect,0.250000X-0.262500X-0.450000X0.262500X-0.450000X0.262500X0.450000X-0.262500X0.450000X0*%
%ADD17RoundRect,0.250000X0.475000X-0.250000X0.475000X0.250000X-0.475000X0.250000X-0.475000X-0.250000X0*%
%ADD18R,1.780000X2.000000*%
%ADD19RoundRect,0.225000X0.225000X0.375000X-0.225000X0.375000X-0.225000X-0.375000X0.225000X-0.375000X0*%
%ADD20RoundRect,0.250000X0.250000X0.475000X-0.250000X0.475000X-0.250000X-0.475000X0.250000X-0.475000X0*%
%ADD21R,0.400000X1.200000*%
%ADD22RoundRect,0.150000X-0.512500X-0.150000X0.512500X-0.150000X0.512500X0.150000X-0.512500X0.150000X0*%
G04 APERTURE END LIST*
D10*
G04 #@! TO.C,R11*
X96632000Y-73520000D03*
X96632000Y-75345000D03*
G04 #@! TD*
D11*
G04 #@! TO.C,R18*
X123792000Y-77162500D03*
X123792000Y-75337500D03*
G04 #@! TD*
D10*
G04 #@! TO.C,R8*
X85892000Y-91237500D03*
X85892000Y-93062500D03*
G04 #@! TD*
D12*
G04 #@! TO.C,C6*
X142692000Y-59750000D03*
X142692000Y-61650000D03*
G04 #@! TD*
D13*
G04 #@! TO.C,Q4*
X83829500Y-93100000D03*
X83829500Y-91200000D03*
X81954500Y-92150000D03*
G04 #@! TD*
D11*
G04 #@! TO.C,R15*
X104492000Y-61612500D03*
X104492000Y-59787500D03*
G04 #@! TD*
D14*
G04 #@! TO.C,Y1*
X141592000Y-71250000D03*
X139392000Y-71250000D03*
X139392000Y-72950000D03*
X141592000Y-72950000D03*
G04 #@! TD*
D10*
G04 #@! TO.C,R13*
X85904500Y-44687500D03*
X85904500Y-46512500D03*
G04 #@! TD*
D12*
G04 #@! TO.C,C5*
X144759500Y-59750000D03*
X144759500Y-61650000D03*
G04 #@! TD*
D15*
G04 #@! TO.C,D3*
X131952000Y-92562500D03*
X131952000Y-94437500D03*
G04 #@! TD*
D12*
G04 #@! TO.C,C7*
X146792000Y-59750000D03*
X146792000Y-61650000D03*
G04 #@! TD*
D16*
G04 #@! TO.C,R14*
X96619500Y-71670000D03*
X98444500Y-71670000D03*
G04 #@! TD*
D10*
G04 #@! TO.C,R9*
X85892000Y-87737500D03*
X85892000Y-89562500D03*
G04 #@! TD*
D17*
G04 #@! TO.C,C2*
X101682000Y-73370000D03*
X101682000Y-71470000D03*
G04 #@! TD*
D15*
G04 #@! TO.C,D2*
X134192000Y-92562500D03*
X134192000Y-94437500D03*
G04 #@! TD*
D12*
G04 #@! TO.C,C1*
X93292000Y-86000000D03*
X93292000Y-87900000D03*
G04 #@! TD*
D10*
G04 #@! TO.C,R10*
X85904500Y-48187500D03*
X85904500Y-50012500D03*
G04 #@! TD*
G04 #@! TO.C,R1*
X79592000Y-84187500D03*
X79592000Y-86012500D03*
G04 #@! TD*
D18*
G04 #@! TO.C,U1*
X101722000Y-59755000D03*
X99182000Y-59755000D03*
X96642000Y-59755000D03*
X96642000Y-69285000D03*
X99182000Y-69285000D03*
X101722000Y-69285000D03*
G04 #@! TD*
D10*
G04 #@! TO.C,R7*
X85892000Y-84237500D03*
X85892000Y-86062500D03*
G04 #@! TD*
D11*
G04 #@! TO.C,R17*
X103732000Y-73332500D03*
X103732000Y-71507500D03*
G04 #@! TD*
D13*
G04 #@! TO.C,Q6*
X83829500Y-89600000D03*
X83829500Y-87700000D03*
X81954500Y-88650000D03*
G04 #@! TD*
D10*
G04 #@! TO.C,R3*
X77392000Y-84187500D03*
X77392000Y-86012500D03*
G04 #@! TD*
D13*
G04 #@! TO.C,Q2*
X83829500Y-86100000D03*
X83829500Y-84200000D03*
X81954500Y-85150000D03*
G04 #@! TD*
D11*
G04 #@! TO.C,R6*
X77392000Y-50062500D03*
X77392000Y-48237500D03*
G04 #@! TD*
G04 #@! TO.C,R20*
X119202000Y-77162500D03*
X119202000Y-75337500D03*
G04 #@! TD*
D19*
G04 #@! TO.C,D1*
X102582000Y-57170000D03*
X99282000Y-57170000D03*
G04 #@! TD*
D13*
G04 #@! TO.C,Q5*
X83842000Y-46550000D03*
X83842000Y-44650000D03*
X81967000Y-45600000D03*
G04 #@! TD*
D15*
G04 #@! TO.C,D4*
X129642000Y-92562500D03*
X129642000Y-94437500D03*
G04 #@! TD*
D16*
G04 #@! TO.C,R16*
X100392000Y-82600000D03*
X102217000Y-82600000D03*
G04 #@! TD*
D13*
G04 #@! TO.C,Q1*
X83842000Y-50050000D03*
X83842000Y-48150000D03*
X81967000Y-49100000D03*
G04 #@! TD*
D20*
G04 #@! TO.C,C4*
X149842000Y-71300000D03*
X147942000Y-71300000D03*
G04 #@! TD*
D12*
G04 #@! TO.C,C3*
X100592000Y-78900000D03*
X100592000Y-80800000D03*
G04 #@! TD*
D13*
G04 #@! TO.C,Q3*
X83842000Y-43050000D03*
X83842000Y-41150000D03*
X81967000Y-42100000D03*
G04 #@! TD*
D11*
G04 #@! TO.C,R5*
X75192000Y-50062500D03*
X75192000Y-48237500D03*
G04 #@! TD*
D10*
G04 #@! TO.C,R2*
X75192000Y-84187500D03*
X75192000Y-86012500D03*
G04 #@! TD*
G04 #@! TO.C,R12*
X85904500Y-41187500D03*
X85904500Y-43012500D03*
G04 #@! TD*
D11*
G04 #@! TO.C,R4*
X79592000Y-50062500D03*
X79592000Y-48237500D03*
G04 #@! TD*
G04 #@! TO.C,R19*
X121492000Y-77162500D03*
X121492000Y-75337500D03*
G04 #@! TD*
D21*
G04 #@! TO.C,U4*
X140314500Y-69000000D03*
X140949500Y-69000000D03*
X141584500Y-69000000D03*
X142219500Y-69000000D03*
X142854500Y-69000000D03*
X143489500Y-69000000D03*
X144124500Y-69000000D03*
X144759500Y-69000000D03*
X145394500Y-69000000D03*
X146029500Y-69000000D03*
X146664500Y-69000000D03*
X147299500Y-69000000D03*
X147934500Y-69000000D03*
X148569500Y-69000000D03*
X148569500Y-63800000D03*
X147934500Y-63800000D03*
X147299500Y-63800000D03*
X146664500Y-63800000D03*
X146029500Y-63800000D03*
X145394500Y-63800000D03*
X144759500Y-63800000D03*
X144124500Y-63800000D03*
X143489500Y-63800000D03*
X142854500Y-63800000D03*
X142219500Y-63800000D03*
X141584500Y-63800000D03*
X140949500Y-63800000D03*
X140314500Y-63800000D03*
G04 #@! TD*
D22*
G04 #@! TO.C,U2*
X96204500Y-79850000D03*
X96204500Y-80800000D03*
X96204500Y-81750000D03*
X98479500Y-81750000D03*
X98479500Y-80800000D03*
X98479500Y-79850000D03*
G04 #@! TD*
M02*
