M48
; DRILL file {KiCad 8.0.4+dfsg-1} date 2025-03-28T09:18:49+0100
; FORMAT={-:-/ absolute / inch / decimal}
; #@! TF.CreationDate,2025-03-28T09:18:49+01:00
; #@! TF.GenerationSoftware,Kicad,Pcbnew,8.0.4+dfsg-1
; #@! TF.FileFunction,Plated,1,2,PTH
FMAT,2
INCH
; #@! TA.AperFunction,Plated,PTH,ViaDrill
T1C0.0157
; #@! TA.AperFunction,Plated,PTH,ComponentDrill
T2C0.0362
; #@! TA.AperFunction,Plated,PTH,ComponentDrill
T3C0.0394
; #@! TA.AperFunction,Plated,PTH,ComponentDrill
T4C0.0551
; #@! TA.AperFunction,Plated,PTH,ComponentDrill
T5C0.0906
; #@! TA.AperFunction,Plated,PTH,ComponentDrill
T6C0.1260
%
G90
G05
T1
X2.8698Y-1.6772
X2.8698Y-1.7559
X2.8698Y-1.8346
X2.8698Y-1.9921
X2.8698Y-2.0709
X2.8698Y-2.1496
X2.8698Y-2.2283
X2.8698Y-2.3071
X2.8698Y-2.3858
X2.8698Y-2.4646
X2.8698Y-2.5433
X2.8698Y-2.622
X2.8698Y-2.7008
X2.8698Y-2.7795
X2.8698Y-2.8583
X2.8698Y-2.937
X2.8698Y-3.0157
X2.8698Y-3.0945
X2.8698Y-3.1732
X2.8698Y-3.252
X2.8698Y-3.3307
X2.8698Y-3.4094
X2.8698Y-3.4882
X2.8698Y-3.5669
X2.8698Y-3.6457
X2.9067Y-1.8991
X2.9485Y-1.5591
X2.9485Y-3.7244
X2.9977Y-3.2697
X3.0017Y-2.0315
X3.0272Y-1.5591
X3.0272Y-3.7244
X3.0469Y-2.0315
X3.0469Y-3.2697
X3.106Y-1.5591
X3.106Y-3.7244
X3.1257Y-2.3858
X3.1257Y-2.878
X3.1257Y-2.9764
X3.1335Y-3.437
X3.1749Y-1.7953
X3.1769Y-1.6575
X3.1847Y-1.5591
X3.1847Y-3.7244
X3.1965Y-3.3976
X3.2241Y-2.2874
X3.2241Y-2.9764
X3.2241Y-3.2717
X3.2359Y-3.3976
X3.2477Y-1.6949
X3.2477Y-1.8327
X3.2477Y-1.9705
X3.2635Y-1.5591
X3.2635Y-3.7244
X3.3225Y-2.0906
X3.3225Y-2.189
X3.3225Y-2.2874
X3.3225Y-2.3858
X3.3225Y-2.4843
X3.3225Y-2.5827
X3.3225Y-2.6811
X3.3225Y-2.7795
X3.3225Y-2.878
X3.3225Y-2.9764
X3.3225Y-3.1732
X3.3422Y-1.5591
X3.3422Y-3.7244
X3.4209Y-1.5591
X3.4209Y-3.7244
X3.4387Y-3.3883
X3.4401Y-3.5261
X3.4524Y-3.6063
X3.4997Y-3.7244
X3.5784Y-1.5591
X3.5784Y-3.7244
X3.6178Y-1.8937
X3.6178Y-2.0906
X3.6178Y-2.189
X3.6178Y-2.2874
X3.6178Y-2.3858
X3.6178Y-2.4843
X3.6178Y-2.5827
X3.6178Y-2.6811
X3.6296Y-1.9902
X3.6316Y-1.6902
X3.6572Y-1.5591
X3.6572Y-3.3327
X3.6572Y-3.7244
X3.6729Y-3.5138
X3.7162Y-1.8937
X3.7162Y-1.9921
X3.7162Y-2.0906
X3.7162Y-2.189
X3.7162Y-2.2874
X3.7162Y-2.3858
X3.7162Y-2.4843
X3.7162Y-2.5827
X3.7162Y-2.6811
X3.7162Y-2.7795
X3.7162Y-3.0748
X3.7261Y-3.2008
X3.728Y-3.378
X3.73Y-3.1437
X3.7359Y-1.5591
X3.7359Y-3.7244
X3.8044Y-3.0807
X3.8146Y-1.5591
X3.8146Y-1.6969
X3.8146Y-1.8937
X3.8146Y-1.9921
X3.8146Y-2.0906
X3.8146Y-2.189
X3.8146Y-2.4843
X3.8146Y-2.5827
X3.8146Y-3.7244
X3.8186Y-3.3996
X3.8501Y-3.2697
X3.8757Y-3.0768
X3.8934Y-1.5591
X3.8934Y-3.7244
X3.9111Y-3.4409
X3.9131Y-1.6969
X3.9131Y-1.8937
X3.9131Y-1.9921
X3.9131Y-2.0906
X3.9131Y-2.5827
X3.9229Y-2.872
X3.9485Y-2.8138
X3.9721Y-1.5591
X3.9721Y-3.7244
X4.0036Y-2.9626
X4.0115Y-1.6969
X4.0115Y-1.8937
X4.0115Y-1.9921
X4.0115Y-2.0906
X4.0115Y-2.5827
X4.0391Y-3.1516
X4.0509Y-1.5591
X4.0509Y-3.7244
X4.0627Y-2.9429
X4.0981Y-3.0197
X4.1099Y-1.6969
X4.1099Y-1.8937
X4.1099Y-1.9921
X4.1099Y-2.0906
X4.1099Y-2.189
X4.1296Y-1.5591
X4.1296Y-3.7244
X4.1355Y-2.9205
X4.1572Y-3.0902
X4.165Y-2.9697
X4.2083Y-3.7244
X4.2182Y-3.5717
X4.2871Y-3.7244
X4.3658Y-3.7244
X4.3745Y-2.6217
X4.3875Y-3.2874
X4.4446Y-3.7244
X4.5233Y-3.7244
X4.5796Y-2.7906
X4.5922Y-3.5
X4.602Y-1.5591
X4.602Y-1.7953
X4.602Y-3.0748
X4.602Y-3.1732
X4.602Y-3.7244
X4.604Y-1.6398
X4.6076Y-3.3811
X4.6788Y-3.2854
X4.6808Y-1.5591
X4.6808Y-3.7244
X4.6926Y-3.2106
X4.6965Y-3.3878
X4.7005Y-1.7953
X4.7005Y-1.9921
X4.7005Y-2.2874
X4.7005Y-2.4843
X4.7005Y-2.5827
X4.7595Y-1.5591
X4.7595Y-3.7244
X4.7831Y-3.1811
X4.7989Y-1.7953
X4.7989Y-1.9921
X4.7989Y-2.2874
X4.7989Y-2.4843
X4.7989Y-2.5827
X4.7989Y-2.878
X4.8383Y-1.5591
X4.8383Y-2.3898
X4.8383Y-3.7244
X4.8658Y-2.1949
X4.8737Y-3.1437
X4.8954Y-2.0906
X4.8973Y-1.7953
X4.8973Y-2.878
X4.9111Y-3.2461
X4.917Y-1.5591
X4.917Y-3.7244
X4.9328Y-2.0413
X4.9554Y-2.6398
X4.9761Y-3.2205
X4.9957Y-1.5591
X4.9957Y-1.7953
X4.9957Y-1.9921
X4.9957Y-2.0906
X4.9957Y-2.2402
X4.9957Y-3.7244
X5.0213Y-2.3406
X5.0371Y-3.1949
X5.0442Y-1.7413
X5.0469Y-2.1417
X5.0706Y-3.3583
X5.0745Y-1.5591
X5.0843Y-2.5394
X5.0942Y-2.0906
X5.1089Y-2.4439
X5.2654Y-1.9409
X5.2654Y-2.0394
X5.291Y-2.878
X5.291Y-2.9764
X5.291Y-3.0748
X5.3068Y-2.435
X5.3068Y-2.4862
X5.3107Y-1.5591
X5.3894Y-1.5591
X5.3894Y-2.7795
X5.3894Y-2.878
X5.3894Y-2.9764
X5.3894Y-3.7244
X5.3954Y-2.3524
X5.4032Y-2.4311
X5.4682Y-1.5591
X5.4682Y-3.7244
X5.5036Y-2.4488
X5.5292Y-2.9429
X5.5292Y-3.6654
X5.5469Y-1.5591
X5.5469Y-3.7244
X5.5587Y-2.4272
X5.5863Y-1.7953
X5.5863Y-1.8937
X5.5863Y-1.9921
X5.5863Y-3.3701
X5.5902Y-3.565
X5.5961Y-2.9469
X5.6257Y-1.5591
X5.6257Y-3.7244
X5.6434Y-2.7953
X5.6631Y-3.563
X5.666Y-2.877
X5.6847Y-1.7953
X5.6847Y-1.8937
X5.6847Y-1.9921
X5.6847Y-3.3701
X5.7044Y-1.5591
X5.7044Y-3.6949
X5.7064Y-3.563
X5.7123Y-2.878
X5.73Y-3.6594
X5.7576Y-2.6437
X5.7831Y-1.5591
X5.7831Y-2.9764
X5.7831Y-3.3701
X5.7831Y-3.7244
X5.8048Y-1.7677
X5.8245Y-2.8878
X5.8363Y-2.6437
X5.8619Y-1.5591
X5.8619Y-3.7244
X5.8816Y-2.9764
X5.915Y-2.4862
X5.915Y-2.6594
X5.9406Y-1.5591
X5.9406Y-3.7244
X5.9741Y-2.8228
X6.0194Y-1.5591
X6.0194Y-3.7244
X6.0981Y-1.5591
X6.0981Y-3.7244
X6.1729Y-1.9429
X6.1769Y-1.5591
X6.1769Y-2.189
X6.1769Y-2.2874
X6.1769Y-2.5827
X6.1769Y-2.6811
X6.1769Y-2.9764
X6.1769Y-3.0748
X6.1769Y-3.7244
X6.2556Y-1.5591
X6.2556Y-3.7244
X6.2753Y-2.878
X6.3343Y-1.5591
X6.3343Y-3.7244
X6.3737Y-1.8937
X6.3737Y-1.9921
X6.3737Y-2.0906
X6.3737Y-2.189
X6.3737Y-2.2874
X6.3737Y-2.3858
X6.3737Y-2.4843
X6.3737Y-2.5827
X6.3737Y-2.6811
X6.3737Y-2.7795
X6.3737Y-2.878
X6.3737Y-2.9764
X6.3737Y-3.0748
X6.3737Y-3.1732
X6.3737Y-3.3701
X6.4131Y-1.5591
X6.4131Y-3.7244
X6.4721Y-1.8937
X6.4721Y-1.9921
X6.4721Y-2.0906
X6.4721Y-2.189
X6.4721Y-2.2874
X6.4721Y-2.3858
X6.4721Y-2.4843
X6.4721Y-2.5827
X6.4721Y-2.6811
X6.4721Y-2.7795
X6.4721Y-2.878
X6.4721Y-2.9764
X6.4721Y-3.0748
X6.4721Y-3.1732
X6.4721Y-3.2717
X6.4721Y-3.3701
X6.4918Y-1.5591
X6.4918Y-3.7244
X6.5706Y-1.5591
X6.5706Y-1.8937
X6.5706Y-1.9921
X6.5706Y-2.189
X6.5706Y-2.2874
X6.5706Y-2.3858
X6.5706Y-2.5827
X6.5706Y-2.6811
X6.5706Y-2.7795
X6.5706Y-2.878
X6.5706Y-2.9764
X6.5706Y-3.0748
X6.5706Y-3.3701
X6.5706Y-3.7244
X6.6493Y-1.5591
X6.6493Y-3.7244
X6.669Y-1.8937
X6.669Y-2.189
X6.669Y-2.2874
X6.669Y-2.5827
X6.669Y-2.6811
X6.669Y-2.9764
X6.669Y-3.0748
X6.669Y-3.3701
X6.728Y-1.6772
X6.728Y-1.7559
X6.728Y-1.8346
X6.728Y-1.9134
X6.728Y-1.9921
X6.728Y-2.1496
X6.728Y-2.2283
X6.728Y-2.3071
X6.728Y-2.3858
X6.728Y-2.5433
X6.728Y-2.622
X6.728Y-2.7008
X6.728Y-2.937
X6.728Y-3.0157
X6.728Y-3.0945
X6.728Y-3.3307
X6.728Y-3.4094
X6.728Y-3.4882
X6.728Y-3.5669
X6.728Y-3.6457
T2
X5.5292Y-2.0496
X5.5292Y-2.1528
X5.5292Y-3.1287
X5.5292Y-3.2319
X5.6276Y-2.0496
X5.6276Y-2.1528
X5.6276Y-3.1287
X5.6276Y-3.2319
X5.7064Y-2.0496
X5.7064Y-2.1528
X5.7064Y-3.1287
X5.7064Y-3.2319
X5.8048Y-2.0496
X5.8048Y-2.1528
X5.8048Y-3.1287
X5.8048Y-3.2319
T3
X3.1391Y-2.4778
X3.1391Y-2.5868
X3.1391Y-2.6959
X3.1391Y-2.8049
X3.2509Y-2.4232
X3.2509Y-2.5323
X3.2509Y-2.6413
X3.2509Y-2.7504
X3.2509Y-2.8594
X3.5048Y-1.6713
X3.5048Y-1.7713
X3.5048Y-1.8713
X3.5048Y-1.9713
X3.5048Y-2.0713
X3.5048Y-2.1713
X3.5048Y-2.2713
X3.5048Y-2.3713
X3.5048Y-2.4713
X3.5048Y-2.5713
X3.5048Y-2.6713
X3.5048Y-2.7713
X3.5048Y-2.8713
X3.5048Y-2.9713
X3.5048Y-3.0713
X3.5048Y-3.1713
X3.5048Y-3.2713
X3.5048Y-3.3713
X3.5048Y-3.4713
X3.5048Y-3.5713
X4.3048Y-1.6713
X4.3048Y-1.7713
X4.3048Y-1.8713
X4.3048Y-1.9713
X4.3048Y-2.0713
X4.3048Y-2.1713
X4.3048Y-2.2713
X4.3048Y-2.3713
X4.3048Y-2.4713
X4.3048Y-2.5713
X4.3048Y-2.6713
X4.3048Y-2.7713
X4.3048Y-2.8713
X4.3048Y-2.9713
X4.3048Y-3.0713
X4.3048Y-3.1713
X4.3048Y-3.2713
X4.3048Y-3.3713
X4.3048Y-3.4713
X4.3048Y-3.5713
X4.5016Y-1.5906
X4.5016Y-1.6906
X4.5016Y-1.7906
X4.5016Y-1.8906
X4.5016Y-1.9906
X4.5016Y-2.0906
X4.5016Y-2.1906
X4.5016Y-2.2906
X4.5016Y-2.3906
X4.5016Y-2.4906
X4.5016Y-2.5906
X4.5016Y-2.6906
X4.5016Y-2.7906
X4.5016Y-2.8906
X4.5016Y-2.9906
X4.5016Y-3.0906
X4.5016Y-3.1906
X4.5016Y-3.2906
X4.5016Y-3.3906
X4.5016Y-3.4906
X5.2017Y-1.5902
X5.2017Y-1.6902
X5.2017Y-1.7902
X5.2017Y-1.8902
X5.2017Y-1.9902
X5.2017Y-2.0902
X5.2017Y-2.1902
X5.2017Y-2.2902
X5.2017Y-2.3902
X5.2017Y-2.4902
X5.2017Y-2.5902
X5.2017Y-2.6902
X5.2017Y-2.7902
X5.2017Y-2.8902
X5.2017Y-2.9902
X5.2017Y-3.0902
X5.2017Y-3.1902
X5.2017Y-3.2902
X5.2017Y-3.3902
X5.2017Y-3.4902
X6.0469Y-3.5138
X6.0469Y-3.6138
X6.0477Y-1.6693
X6.0477Y-1.7693
X6.1469Y-3.5138
X6.1469Y-3.6138
X6.1477Y-1.6693
X6.1477Y-1.7693
X6.2469Y-3.5138
X6.2469Y-3.6138
X6.2477Y-1.6693
X6.2477Y-1.7693
X6.3469Y-3.5138
X6.3469Y-3.6138
X6.3477Y-1.6693
X6.3477Y-1.7693
T4
X6.167Y-2.061
X6.167Y-2.4547
X6.167Y-2.8287
X6.167Y-3.2224
X6.2654Y-1.9626
X6.2654Y-2.2579
X6.2654Y-2.5531
X6.2654Y-2.7303
X6.2654Y-3.0256
X6.2654Y-3.3209
X6.6591Y-2.061
X6.6591Y-2.4547
X6.6591Y-2.8287
X6.6591Y-3.2224
T5
X5.4083Y-1.9429
X5.4083Y-2.1665
X5.4083Y-3.115
X5.4083Y-3.3386
X5.9257Y-1.9429
X5.9257Y-2.1665
X5.9257Y-3.115
X5.9257Y-3.3386
T6
X3.195Y-2.1492
X3.195Y-3.1335
M30
