%TF.GenerationSoftware,KiCad,Pcbnew,8.0.4+dfsg-1*%
%TF.CreationDate,2025-03-28T09:18:50+01:00*%
%TF.ProjectId,MiSTeryShield20kRPiPicoUSB,4d695354-6572-4795-9368-69656c643230,V2*%
%TF.SameCoordinates,Original*%
%TF.FileFunction,Drillmap*%
%TF.FilePolarity,Positive*%
%FSLAX45Y45*%
G04 Gerber Fmt 4.5, Leading zero omitted, Abs format (unit mm)*
G04 Created by KiCad (PCBNEW 8.0.4+dfsg-1) date 2025-03-28 09:18:50*
%MOMM*%
%LPD*%
G01*
G04 APERTURE LIST*
%ADD10C,0.100000*%
%ADD11C,0.200000*%
%ADD12C,0.140000*%
%ADD13C,0.230000*%
%ADD14C,0.320000*%
G04 APERTURE END LIST*
D10*
X16889200Y-3860000D02*
G75*
G02*
X17189200Y-4160000I0J-300000D01*
G01*
X16889200Y-3860000D02*
X7489200Y-3860000D01*
X17189200Y-9260000D02*
X17189200Y-4160000D01*
X7489200Y-9560000D02*
X16889200Y-9560000D01*
X7489200Y-9560000D02*
G75*
G02*
X7189200Y-9260000I0J300000D01*
G01*
X7189200Y-4160000D02*
X7189200Y-9260000D01*
X7189200Y-4160000D02*
G75*
G02*
X7489200Y-3860000I300000J0D01*
G01*
X17189200Y-9260000D02*
G75*
G02*
X16889200Y-9560000I-300000J0D01*
G01*
D11*
D10*
X7269200Y-4240000D02*
X7309200Y-4280000D01*
X7309200Y-4240000D02*
X7269200Y-4280000D01*
X7269200Y-4440000D02*
X7309200Y-4480000D01*
X7309200Y-4440000D02*
X7269200Y-4480000D01*
X7269200Y-4640000D02*
X7309200Y-4680000D01*
X7309200Y-4640000D02*
X7269200Y-4680000D01*
X7269200Y-5040000D02*
X7309200Y-5080000D01*
X7309200Y-5040000D02*
X7269200Y-5080000D01*
X7269200Y-5240000D02*
X7309200Y-5280000D01*
X7309200Y-5240000D02*
X7269200Y-5280000D01*
X7269200Y-5440000D02*
X7309200Y-5480000D01*
X7309200Y-5440000D02*
X7269200Y-5480000D01*
X7269200Y-5640000D02*
X7309200Y-5680000D01*
X7309200Y-5640000D02*
X7269200Y-5680000D01*
X7269200Y-5840000D02*
X7309200Y-5880000D01*
X7309200Y-5840000D02*
X7269200Y-5880000D01*
X7269200Y-6040000D02*
X7309200Y-6080000D01*
X7309200Y-6040000D02*
X7269200Y-6080000D01*
X7269200Y-6240000D02*
X7309200Y-6280000D01*
X7309200Y-6240000D02*
X7269200Y-6280000D01*
X7269200Y-6440000D02*
X7309200Y-6480000D01*
X7309200Y-6440000D02*
X7269200Y-6480000D01*
X7269200Y-6640000D02*
X7309200Y-6680000D01*
X7309200Y-6640000D02*
X7269200Y-6680000D01*
X7269200Y-6840000D02*
X7309200Y-6880000D01*
X7309200Y-6840000D02*
X7269200Y-6880000D01*
X7269200Y-7040000D02*
X7309200Y-7080000D01*
X7309200Y-7040000D02*
X7269200Y-7080000D01*
X7269200Y-7240000D02*
X7309200Y-7280000D01*
X7309200Y-7240000D02*
X7269200Y-7280000D01*
X7269200Y-7440000D02*
X7309200Y-7480000D01*
X7309200Y-7440000D02*
X7269200Y-7480000D01*
X7269200Y-7640000D02*
X7309200Y-7680000D01*
X7309200Y-7640000D02*
X7269200Y-7680000D01*
X7269200Y-7840000D02*
X7309200Y-7880000D01*
X7309200Y-7840000D02*
X7269200Y-7880000D01*
X7269200Y-8040000D02*
X7309200Y-8080000D01*
X7309200Y-8040000D02*
X7269200Y-8080000D01*
X7269200Y-8240000D02*
X7309200Y-8280000D01*
X7309200Y-8240000D02*
X7269200Y-8280000D01*
X7269200Y-8440000D02*
X7309200Y-8480000D01*
X7309200Y-8440000D02*
X7269200Y-8480000D01*
X7269200Y-8640000D02*
X7309200Y-8680000D01*
X7309200Y-8640000D02*
X7269200Y-8680000D01*
X7269200Y-8840000D02*
X7309200Y-8880000D01*
X7309200Y-8840000D02*
X7269200Y-8880000D01*
X7269200Y-9040000D02*
X7309200Y-9080000D01*
X7309200Y-9040000D02*
X7269200Y-9080000D01*
X7269200Y-9240000D02*
X7309200Y-9280000D01*
X7309200Y-9240000D02*
X7269200Y-9280000D01*
X7362950Y-4803750D02*
X7402950Y-4843750D01*
X7402950Y-4803750D02*
X7362950Y-4843750D01*
X7469200Y-3940000D02*
X7509200Y-3980000D01*
X7509200Y-3940000D02*
X7469200Y-3980000D01*
X7469200Y-9440000D02*
X7509200Y-9480000D01*
X7509200Y-9440000D02*
X7469200Y-9480000D01*
X7594200Y-8285000D02*
X7634200Y-8325000D01*
X7634200Y-8285000D02*
X7594200Y-8325000D01*
X7604200Y-5140000D02*
X7644200Y-5180000D01*
X7644200Y-5140000D02*
X7604200Y-5180000D01*
X7669200Y-3940000D02*
X7709200Y-3980000D01*
X7709200Y-3940000D02*
X7669200Y-3980000D01*
X7669200Y-9440000D02*
X7709200Y-9480000D01*
X7709200Y-9440000D02*
X7669200Y-9480000D01*
X7719200Y-5140000D02*
X7759200Y-5180000D01*
X7759200Y-5140000D02*
X7719200Y-5180000D01*
X7719200Y-8285000D02*
X7759200Y-8325000D01*
X7759200Y-8285000D02*
X7719200Y-8325000D01*
X7869200Y-3940000D02*
X7909200Y-3980000D01*
X7909200Y-3940000D02*
X7869200Y-3980000D01*
X7869200Y-9440000D02*
X7909200Y-9480000D01*
X7909200Y-9440000D02*
X7869200Y-9480000D01*
X7919200Y-6040000D02*
X7959200Y-6080000D01*
X7959200Y-6040000D02*
X7919200Y-6080000D01*
X7919200Y-7290000D02*
X7959200Y-7330000D01*
X7959200Y-7290000D02*
X7919200Y-7330000D01*
X7919200Y-7540000D02*
X7959200Y-7580000D01*
X7959200Y-7540000D02*
X7919200Y-7580000D01*
X7939200Y-8710000D02*
X7979200Y-8750000D01*
X7979200Y-8710000D02*
X7939200Y-8750000D01*
X8044200Y-4540000D02*
X8084200Y-4580000D01*
X8084200Y-4540000D02*
X8044200Y-4580000D01*
X8049200Y-4190000D02*
X8089200Y-4230000D01*
X8089200Y-4190000D02*
X8049200Y-4230000D01*
X8069200Y-3940000D02*
X8109200Y-3980000D01*
X8109200Y-3940000D02*
X8069200Y-3980000D01*
X8069200Y-9440000D02*
X8109200Y-9480000D01*
X8109200Y-9440000D02*
X8069200Y-9480000D01*
X8099200Y-8610000D02*
X8139200Y-8650000D01*
X8139200Y-8610000D02*
X8099200Y-8650000D01*
X8169200Y-5790000D02*
X8209200Y-5830000D01*
X8209200Y-5790000D02*
X8169200Y-5830000D01*
X8169200Y-7540000D02*
X8209200Y-7580000D01*
X8209200Y-7540000D02*
X8169200Y-7580000D01*
X8169200Y-8290000D02*
X8209200Y-8330000D01*
X8209200Y-8290000D02*
X8169200Y-8330000D01*
X8199200Y-8610000D02*
X8239200Y-8650000D01*
X8239200Y-8610000D02*
X8199200Y-8650000D01*
X8229200Y-4285000D02*
X8269200Y-4325000D01*
X8269200Y-4285000D02*
X8229200Y-4325000D01*
X8229200Y-4635000D02*
X8269200Y-4675000D01*
X8269200Y-4635000D02*
X8229200Y-4675000D01*
X8229200Y-4985000D02*
X8269200Y-5025000D01*
X8269200Y-4985000D02*
X8229200Y-5025000D01*
X8269200Y-3940000D02*
X8309200Y-3980000D01*
X8309200Y-3940000D02*
X8269200Y-3980000D01*
X8269200Y-9440000D02*
X8309200Y-9480000D01*
X8309200Y-9440000D02*
X8269200Y-9480000D01*
X8419200Y-5290000D02*
X8459200Y-5330000D01*
X8459200Y-5290000D02*
X8419200Y-5330000D01*
X8419200Y-5540000D02*
X8459200Y-5580000D01*
X8459200Y-5540000D02*
X8419200Y-5580000D01*
X8419200Y-5790000D02*
X8459200Y-5830000D01*
X8459200Y-5790000D02*
X8419200Y-5830000D01*
X8419200Y-6040000D02*
X8459200Y-6080000D01*
X8459200Y-6040000D02*
X8419200Y-6080000D01*
X8419200Y-6290000D02*
X8459200Y-6330000D01*
X8459200Y-6290000D02*
X8419200Y-6330000D01*
X8419200Y-6540000D02*
X8459200Y-6580000D01*
X8459200Y-6540000D02*
X8419200Y-6580000D01*
X8419200Y-6790000D02*
X8459200Y-6830000D01*
X8459200Y-6790000D02*
X8419200Y-6830000D01*
X8419200Y-7040000D02*
X8459200Y-7080000D01*
X8459200Y-7040000D02*
X8419200Y-7080000D01*
X8419200Y-7290000D02*
X8459200Y-7330000D01*
X8459200Y-7290000D02*
X8419200Y-7330000D01*
X8419200Y-7540000D02*
X8459200Y-7580000D01*
X8459200Y-7540000D02*
X8419200Y-7580000D01*
X8419200Y-8040000D02*
X8459200Y-8080000D01*
X8459200Y-8040000D02*
X8419200Y-8080000D01*
X8469200Y-3940000D02*
X8509200Y-3980000D01*
X8509200Y-3940000D02*
X8469200Y-3980000D01*
X8469200Y-9440000D02*
X8509200Y-9480000D01*
X8509200Y-9440000D02*
X8469200Y-9480000D01*
X8669200Y-3940000D02*
X8709200Y-3980000D01*
X8709200Y-3940000D02*
X8669200Y-3980000D01*
X8669200Y-9440000D02*
X8709200Y-9480000D01*
X8709200Y-9440000D02*
X8669200Y-9480000D01*
X8714200Y-8586250D02*
X8754200Y-8626250D01*
X8754200Y-8586250D02*
X8714200Y-8626250D01*
X8717950Y-8936250D02*
X8757950Y-8976250D01*
X8757950Y-8936250D02*
X8717950Y-8976250D01*
X8749200Y-9140000D02*
X8789200Y-9180000D01*
X8789200Y-9140000D02*
X8749200Y-9180000D01*
X8869200Y-9440000D02*
X8909200Y-9480000D01*
X8909200Y-9440000D02*
X8869200Y-9480000D01*
X9069200Y-3940000D02*
X9109200Y-3980000D01*
X9109200Y-3940000D02*
X9069200Y-3980000D01*
X9069200Y-9440000D02*
X9109200Y-9480000D01*
X9109200Y-9440000D02*
X9069200Y-9480000D01*
X9169200Y-4790000D02*
X9209200Y-4830000D01*
X9209200Y-4790000D02*
X9169200Y-4830000D01*
X9169200Y-5290000D02*
X9209200Y-5330000D01*
X9209200Y-5290000D02*
X9169200Y-5330000D01*
X9169200Y-5540000D02*
X9209200Y-5580000D01*
X9209200Y-5540000D02*
X9169200Y-5580000D01*
X9169200Y-5790000D02*
X9209200Y-5830000D01*
X9209200Y-5790000D02*
X9169200Y-5830000D01*
X9169200Y-6040000D02*
X9209200Y-6080000D01*
X9209200Y-6040000D02*
X9169200Y-6080000D01*
X9169200Y-6290000D02*
X9209200Y-6330000D01*
X9209200Y-6290000D02*
X9169200Y-6330000D01*
X9169200Y-6540000D02*
X9209200Y-6580000D01*
X9209200Y-6540000D02*
X9169200Y-6580000D01*
X9169200Y-6790000D02*
X9209200Y-6830000D01*
X9209200Y-6790000D02*
X9169200Y-6830000D01*
X9199200Y-5035000D02*
X9239200Y-5075000D01*
X9239200Y-5035000D02*
X9199200Y-5075000D01*
X9204200Y-4273000D02*
X9244200Y-4313000D01*
X9244200Y-4273000D02*
X9204200Y-4313000D01*
X9269200Y-3940000D02*
X9309200Y-3980000D01*
X9309200Y-3940000D02*
X9269200Y-3980000D01*
X9269200Y-8445000D02*
X9309200Y-8485000D01*
X9309200Y-8445000D02*
X9269200Y-8485000D01*
X9269200Y-9440000D02*
X9309200Y-9480000D01*
X9309200Y-9440000D02*
X9269200Y-9480000D01*
X9309200Y-8905000D02*
X9349200Y-8945000D01*
X9349200Y-8905000D02*
X9309200Y-8945000D01*
X9419200Y-4790000D02*
X9459200Y-4830000D01*
X9459200Y-4790000D02*
X9419200Y-4830000D01*
X9419200Y-5040000D02*
X9459200Y-5080000D01*
X9459200Y-5040000D02*
X9419200Y-5080000D01*
X9419200Y-5290000D02*
X9459200Y-5330000D01*
X9459200Y-5290000D02*
X9419200Y-5330000D01*
X9419200Y-5540000D02*
X9459200Y-5580000D01*
X9459200Y-5540000D02*
X9419200Y-5580000D01*
X9419200Y-5790000D02*
X9459200Y-5830000D01*
X9459200Y-5790000D02*
X9419200Y-5830000D01*
X9419200Y-6040000D02*
X9459200Y-6080000D01*
X9459200Y-6040000D02*
X9419200Y-6080000D01*
X9419200Y-6290000D02*
X9459200Y-6330000D01*
X9459200Y-6290000D02*
X9419200Y-6330000D01*
X9419200Y-6540000D02*
X9459200Y-6580000D01*
X9459200Y-6540000D02*
X9419200Y-6580000D01*
X9419200Y-6790000D02*
X9459200Y-6830000D01*
X9459200Y-6790000D02*
X9419200Y-6830000D01*
X9419200Y-7040000D02*
X9459200Y-7080000D01*
X9459200Y-7040000D02*
X9419200Y-7080000D01*
X9419200Y-7790000D02*
X9459200Y-7830000D01*
X9459200Y-7790000D02*
X9419200Y-7830000D01*
X9444200Y-8110000D02*
X9484200Y-8150000D01*
X9484200Y-8110000D02*
X9444200Y-8150000D01*
X9449200Y-8560000D02*
X9489200Y-8600000D01*
X9489200Y-8560000D02*
X9449200Y-8600000D01*
X9454200Y-7965000D02*
X9494200Y-8005000D01*
X9494200Y-7965000D02*
X9454200Y-8005000D01*
X9469200Y-3940000D02*
X9509200Y-3980000D01*
X9509200Y-3940000D02*
X9469200Y-3980000D01*
X9469200Y-9440000D02*
X9509200Y-9480000D01*
X9509200Y-9440000D02*
X9469200Y-9480000D01*
X9643200Y-7805000D02*
X9683200Y-7845000D01*
X9683200Y-7805000D02*
X9643200Y-7845000D01*
X9669200Y-3940000D02*
X9709200Y-3980000D01*
X9709200Y-3940000D02*
X9669200Y-3980000D01*
X9669200Y-4290000D02*
X9709200Y-4330000D01*
X9709200Y-4290000D02*
X9669200Y-4330000D01*
X9669200Y-4790000D02*
X9709200Y-4830000D01*
X9709200Y-4790000D02*
X9669200Y-4830000D01*
X9669200Y-5040000D02*
X9709200Y-5080000D01*
X9709200Y-5040000D02*
X9669200Y-5080000D01*
X9669200Y-5290000D02*
X9709200Y-5330000D01*
X9709200Y-5290000D02*
X9669200Y-5330000D01*
X9669200Y-5540000D02*
X9709200Y-5580000D01*
X9709200Y-5540000D02*
X9669200Y-5580000D01*
X9669200Y-6290000D02*
X9709200Y-6330000D01*
X9709200Y-6290000D02*
X9669200Y-6330000D01*
X9669200Y-6540000D02*
X9709200Y-6580000D01*
X9709200Y-6540000D02*
X9669200Y-6580000D01*
X9669200Y-9440000D02*
X9709200Y-9480000D01*
X9709200Y-9440000D02*
X9669200Y-9480000D01*
X9679200Y-8615000D02*
X9719200Y-8655000D01*
X9719200Y-8615000D02*
X9679200Y-8655000D01*
X9759200Y-8285000D02*
X9799200Y-8325000D01*
X9799200Y-8285000D02*
X9759200Y-8325000D01*
X9824200Y-7795000D02*
X9864200Y-7835000D01*
X9864200Y-7795000D02*
X9824200Y-7835000D01*
X9869200Y-3940000D02*
X9909200Y-3980000D01*
X9909200Y-3940000D02*
X9869200Y-3980000D01*
X9869200Y-9440000D02*
X9909200Y-9480000D01*
X9909200Y-9440000D02*
X9869200Y-9480000D01*
X9914200Y-8720000D02*
X9954200Y-8760000D01*
X9954200Y-8720000D02*
X9914200Y-8760000D01*
X9919200Y-4290000D02*
X9959200Y-4330000D01*
X9959200Y-4290000D02*
X9919200Y-4330000D01*
X9919200Y-4790000D02*
X9959200Y-4830000D01*
X9959200Y-4790000D02*
X9919200Y-4830000D01*
X9919200Y-5040000D02*
X9959200Y-5080000D01*
X9959200Y-5040000D02*
X9919200Y-5080000D01*
X9919200Y-5290000D02*
X9959200Y-5330000D01*
X9959200Y-5290000D02*
X9919200Y-5330000D01*
X9919200Y-6540000D02*
X9959200Y-6580000D01*
X9959200Y-6540000D02*
X9919200Y-6580000D01*
X9944200Y-7275000D02*
X9984200Y-7315000D01*
X9984200Y-7275000D02*
X9944200Y-7315000D01*
X10009200Y-7127000D02*
X10049200Y-7167000D01*
X10049200Y-7127000D02*
X10009200Y-7167000D01*
X10069200Y-3940000D02*
X10109200Y-3980000D01*
X10109200Y-3940000D02*
X10069200Y-3980000D01*
X10069200Y-9440000D02*
X10109200Y-9480000D01*
X10109200Y-9440000D02*
X10069200Y-9480000D01*
X10149200Y-7505000D02*
X10189200Y-7545000D01*
X10189200Y-7505000D02*
X10149200Y-7545000D01*
X10169200Y-4290000D02*
X10209200Y-4330000D01*
X10209200Y-4290000D02*
X10169200Y-4330000D01*
X10169200Y-4790000D02*
X10209200Y-4830000D01*
X10209200Y-4790000D02*
X10169200Y-4830000D01*
X10169200Y-5040000D02*
X10209200Y-5080000D01*
X10209200Y-5040000D02*
X10169200Y-5080000D01*
X10169200Y-5290000D02*
X10209200Y-5330000D01*
X10209200Y-5290000D02*
X10169200Y-5330000D01*
X10169200Y-6540000D02*
X10209200Y-6580000D01*
X10209200Y-6540000D02*
X10169200Y-6580000D01*
X10239200Y-7985000D02*
X10279200Y-8025000D01*
X10279200Y-7985000D02*
X10239200Y-8025000D01*
X10269200Y-3940000D02*
X10309200Y-3980000D01*
X10309200Y-3940000D02*
X10269200Y-3980000D01*
X10269200Y-9440000D02*
X10309200Y-9480000D01*
X10309200Y-9440000D02*
X10269200Y-9480000D01*
X10299200Y-7455000D02*
X10339200Y-7495000D01*
X10339200Y-7455000D02*
X10299200Y-7495000D01*
X10389200Y-7650000D02*
X10429200Y-7690000D01*
X10429200Y-7650000D02*
X10389200Y-7690000D01*
X10419200Y-4290000D02*
X10459200Y-4330000D01*
X10459200Y-4290000D02*
X10419200Y-4330000D01*
X10419200Y-4790000D02*
X10459200Y-4830000D01*
X10459200Y-4790000D02*
X10419200Y-4830000D01*
X10419200Y-5040000D02*
X10459200Y-5080000D01*
X10459200Y-5040000D02*
X10419200Y-5080000D01*
X10419200Y-5290000D02*
X10459200Y-5330000D01*
X10459200Y-5290000D02*
X10419200Y-5330000D01*
X10419200Y-5540000D02*
X10459200Y-5580000D01*
X10459200Y-5540000D02*
X10419200Y-5580000D01*
X10469200Y-3940000D02*
X10509200Y-3980000D01*
X10509200Y-3940000D02*
X10469200Y-3980000D01*
X10469200Y-9440000D02*
X10509200Y-9480000D01*
X10509200Y-9440000D02*
X10469200Y-9480000D01*
X10484200Y-7398000D02*
X10524200Y-7438000D01*
X10524200Y-7398000D02*
X10484200Y-7438000D01*
X10539200Y-7829000D02*
X10579200Y-7869000D01*
X10579200Y-7829000D02*
X10539200Y-7869000D01*
X10559200Y-7523000D02*
X10599200Y-7563000D01*
X10599200Y-7523000D02*
X10559200Y-7563000D01*
X10669200Y-9440000D02*
X10709200Y-9480000D01*
X10709200Y-9440000D02*
X10669200Y-9480000D01*
X10694200Y-9052000D02*
X10734200Y-9092000D01*
X10734200Y-9052000D02*
X10694200Y-9092000D01*
X10869200Y-9440000D02*
X10909200Y-9480000D01*
X10909200Y-9440000D02*
X10869200Y-9480000D01*
X11069200Y-9440000D02*
X11109200Y-9480000D01*
X11109200Y-9440000D02*
X11069200Y-9480000D01*
X11091200Y-6639000D02*
X11131200Y-6679000D01*
X11131200Y-6639000D02*
X11091200Y-6679000D01*
X11124200Y-8330000D02*
X11164200Y-8370000D01*
X11164200Y-8330000D02*
X11124200Y-8370000D01*
X11269200Y-9440000D02*
X11309200Y-9480000D01*
X11309200Y-9440000D02*
X11269200Y-9480000D01*
X11469200Y-9440000D02*
X11509200Y-9480000D01*
X11509200Y-9440000D02*
X11469200Y-9480000D01*
X11612200Y-7068000D02*
X11652200Y-7108000D01*
X11652200Y-7068000D02*
X11612200Y-7108000D01*
X11644200Y-8870000D02*
X11684200Y-8910000D01*
X11684200Y-8870000D02*
X11644200Y-8910000D01*
X11669200Y-3940000D02*
X11709200Y-3980000D01*
X11709200Y-3940000D02*
X11669200Y-3980000D01*
X11669200Y-4540000D02*
X11709200Y-4580000D01*
X11709200Y-4540000D02*
X11669200Y-4580000D01*
X11669200Y-7790000D02*
X11709200Y-7830000D01*
X11709200Y-7790000D02*
X11669200Y-7830000D01*
X11669200Y-8040000D02*
X11709200Y-8080000D01*
X11709200Y-8040000D02*
X11669200Y-8080000D01*
X11669200Y-9440000D02*
X11709200Y-9480000D01*
X11709200Y-9440000D02*
X11669200Y-9480000D01*
X11674200Y-4145000D02*
X11714200Y-4185000D01*
X11714200Y-4145000D02*
X11674200Y-4185000D01*
X11683200Y-8568000D02*
X11723200Y-8608000D01*
X11723200Y-8568000D02*
X11683200Y-8608000D01*
X11864200Y-8325000D02*
X11904200Y-8365000D01*
X11904200Y-8325000D02*
X11864200Y-8365000D01*
X11869200Y-3940000D02*
X11909200Y-3980000D01*
X11909200Y-3940000D02*
X11869200Y-3980000D01*
X11869200Y-9440000D02*
X11909200Y-9480000D01*
X11909200Y-9440000D02*
X11869200Y-9480000D01*
X11899200Y-8135000D02*
X11939200Y-8175000D01*
X11939200Y-8135000D02*
X11899200Y-8175000D01*
X11909200Y-8585000D02*
X11949200Y-8625000D01*
X11949200Y-8585000D02*
X11909200Y-8625000D01*
X11919200Y-4540000D02*
X11959200Y-4580000D01*
X11959200Y-4540000D02*
X11919200Y-4580000D01*
X11919200Y-5040000D02*
X11959200Y-5080000D01*
X11959200Y-5040000D02*
X11919200Y-5080000D01*
X11919200Y-5790000D02*
X11959200Y-5830000D01*
X11959200Y-5790000D02*
X11919200Y-5830000D01*
X11919200Y-6290000D02*
X11959200Y-6330000D01*
X11959200Y-6290000D02*
X11919200Y-6330000D01*
X11919200Y-6540000D02*
X11959200Y-6580000D01*
X11959200Y-6540000D02*
X11919200Y-6580000D01*
X12069200Y-3940000D02*
X12109200Y-3980000D01*
X12109200Y-3940000D02*
X12069200Y-3980000D01*
X12069200Y-9440000D02*
X12109200Y-9480000D01*
X12109200Y-9440000D02*
X12069200Y-9480000D01*
X12129200Y-8060000D02*
X12169200Y-8100000D01*
X12169200Y-8060000D02*
X12129200Y-8100000D01*
X12169200Y-4540000D02*
X12209200Y-4580000D01*
X12209200Y-4540000D02*
X12169200Y-4580000D01*
X12169200Y-5040000D02*
X12209200Y-5080000D01*
X12209200Y-5040000D02*
X12169200Y-5080000D01*
X12169200Y-5790000D02*
X12209200Y-5830000D01*
X12209200Y-5790000D02*
X12169200Y-5830000D01*
X12169200Y-6290000D02*
X12209200Y-6330000D01*
X12209200Y-6290000D02*
X12169200Y-6330000D01*
X12169200Y-6540000D02*
X12209200Y-6580000D01*
X12209200Y-6540000D02*
X12169200Y-6580000D01*
X12169200Y-7290000D02*
X12209200Y-7330000D01*
X12209200Y-7290000D02*
X12169200Y-7330000D01*
X12269200Y-3940000D02*
X12309200Y-3980000D01*
X12309200Y-3940000D02*
X12269200Y-3980000D01*
X12269200Y-6050000D02*
X12309200Y-6090000D01*
X12309200Y-6050000D02*
X12269200Y-6090000D01*
X12269200Y-9440000D02*
X12309200Y-9480000D01*
X12309200Y-9440000D02*
X12269200Y-9480000D01*
X12339200Y-5555000D02*
X12379200Y-5595000D01*
X12379200Y-5555000D02*
X12339200Y-5595000D01*
X12359200Y-7965000D02*
X12399200Y-8005000D01*
X12399200Y-7965000D02*
X12359200Y-8005000D01*
X12414200Y-5290000D02*
X12454200Y-5330000D01*
X12454200Y-5290000D02*
X12414200Y-5330000D01*
X12419200Y-4540000D02*
X12459200Y-4580000D01*
X12459200Y-4540000D02*
X12419200Y-4580000D01*
X12419200Y-7290000D02*
X12459200Y-7330000D01*
X12459200Y-7290000D02*
X12419200Y-7330000D01*
X12454200Y-8225000D02*
X12494200Y-8265000D01*
X12494200Y-8225000D02*
X12454200Y-8265000D01*
X12469200Y-3940000D02*
X12509200Y-3980000D01*
X12509200Y-3940000D02*
X12469200Y-3980000D01*
X12469200Y-9440000D02*
X12509200Y-9480000D01*
X12509200Y-9440000D02*
X12469200Y-9480000D01*
X12509200Y-5165000D02*
X12549200Y-5205000D01*
X12549200Y-5165000D02*
X12509200Y-5205000D01*
X12566700Y-6685000D02*
X12606700Y-6725000D01*
X12606700Y-6685000D02*
X12566700Y-6725000D01*
X12619200Y-8160000D02*
X12659200Y-8200000D01*
X12659200Y-8160000D02*
X12619200Y-8200000D01*
X12669200Y-3940000D02*
X12709200Y-3980000D01*
X12709200Y-3940000D02*
X12669200Y-3980000D01*
X12669200Y-4540000D02*
X12709200Y-4580000D01*
X12709200Y-4540000D02*
X12669200Y-4580000D01*
X12669200Y-5040000D02*
X12709200Y-5080000D01*
X12709200Y-5040000D02*
X12669200Y-5080000D01*
X12669200Y-5290000D02*
X12709200Y-5330000D01*
X12709200Y-5290000D02*
X12669200Y-5330000D01*
X12669200Y-5670000D02*
X12709200Y-5710000D01*
X12709200Y-5670000D02*
X12669200Y-5710000D01*
X12669200Y-9440000D02*
X12709200Y-9480000D01*
X12709200Y-9440000D02*
X12669200Y-9480000D01*
X12734200Y-5925000D02*
X12774200Y-5965000D01*
X12774200Y-5925000D02*
X12734200Y-5965000D01*
X12774200Y-8095000D02*
X12814200Y-8135000D01*
X12814200Y-8095000D02*
X12774200Y-8135000D01*
X12792200Y-4403000D02*
X12832200Y-4443000D01*
X12832200Y-4403000D02*
X12792200Y-4443000D01*
X12799200Y-5420000D02*
X12839200Y-5460000D01*
X12839200Y-5420000D02*
X12799200Y-5460000D01*
X12859200Y-8510000D02*
X12899200Y-8550000D01*
X12899200Y-8510000D02*
X12859200Y-8550000D01*
X12869200Y-3940000D02*
X12909200Y-3980000D01*
X12909200Y-3940000D02*
X12869200Y-3980000D01*
X12894200Y-6430000D02*
X12934200Y-6470000D01*
X12934200Y-6430000D02*
X12894200Y-6470000D01*
X12919200Y-5290000D02*
X12959200Y-5330000D01*
X12959200Y-5290000D02*
X12919200Y-5330000D01*
X12956700Y-6187500D02*
X12996700Y-6227500D01*
X12996700Y-6187500D02*
X12956700Y-6227500D01*
X13354200Y-4910000D02*
X13394200Y-4950000D01*
X13394200Y-4910000D02*
X13354200Y-4950000D01*
X13354200Y-5160000D02*
X13394200Y-5200000D01*
X13394200Y-5160000D02*
X13354200Y-5200000D01*
X13419200Y-7290000D02*
X13459200Y-7330000D01*
X13459200Y-7290000D02*
X13419200Y-7330000D01*
X13419200Y-7540000D02*
X13459200Y-7580000D01*
X13459200Y-7540000D02*
X13419200Y-7580000D01*
X13419200Y-7790000D02*
X13459200Y-7830000D01*
X13459200Y-7790000D02*
X13419200Y-7830000D01*
X13459200Y-6165000D02*
X13499200Y-6205000D01*
X13499200Y-6165000D02*
X13459200Y-6205000D01*
X13459200Y-6295000D02*
X13499200Y-6335000D01*
X13499200Y-6295000D02*
X13459200Y-6335000D01*
X13469200Y-3940000D02*
X13509200Y-3980000D01*
X13509200Y-3940000D02*
X13469200Y-3980000D01*
X13669200Y-3940000D02*
X13709200Y-3980000D01*
X13709200Y-3940000D02*
X13669200Y-3980000D01*
X13669200Y-7040000D02*
X13709200Y-7080000D01*
X13709200Y-7040000D02*
X13669200Y-7080000D01*
X13669200Y-7290000D02*
X13709200Y-7330000D01*
X13709200Y-7290000D02*
X13669200Y-7330000D01*
X13669200Y-7540000D02*
X13709200Y-7580000D01*
X13709200Y-7540000D02*
X13669200Y-7580000D01*
X13669200Y-9440000D02*
X13709200Y-9480000D01*
X13709200Y-9440000D02*
X13669200Y-9480000D01*
X13684200Y-5955000D02*
X13724200Y-5995000D01*
X13724200Y-5955000D02*
X13684200Y-5995000D01*
X13704200Y-6155000D02*
X13744200Y-6195000D01*
X13744200Y-6155000D02*
X13704200Y-6195000D01*
X13869200Y-3940000D02*
X13909200Y-3980000D01*
X13909200Y-3940000D02*
X13869200Y-3980000D01*
X13869200Y-9440000D02*
X13909200Y-9480000D01*
X13909200Y-9440000D02*
X13869200Y-9480000D01*
X13959200Y-6200000D02*
X13999200Y-6240000D01*
X13999200Y-6200000D02*
X13959200Y-6240000D01*
X14024200Y-7455000D02*
X14064200Y-7495000D01*
X14064200Y-7455000D02*
X14024200Y-7495000D01*
X14024200Y-9290000D02*
X14064200Y-9330000D01*
X14064200Y-9290000D02*
X14024200Y-9330000D01*
X14069200Y-3940000D02*
X14109200Y-3980000D01*
X14109200Y-3940000D02*
X14069200Y-3980000D01*
X14069200Y-9440000D02*
X14109200Y-9480000D01*
X14109200Y-9440000D02*
X14069200Y-9480000D01*
X14099200Y-6145000D02*
X14139200Y-6185000D01*
X14139200Y-6145000D02*
X14099200Y-6185000D01*
X14169200Y-4540000D02*
X14209200Y-4580000D01*
X14209200Y-4540000D02*
X14169200Y-4580000D01*
X14169200Y-4790000D02*
X14209200Y-4830000D01*
X14209200Y-4790000D02*
X14169200Y-4830000D01*
X14169200Y-5040000D02*
X14209200Y-5080000D01*
X14209200Y-5040000D02*
X14169200Y-5080000D01*
X14169200Y-8540000D02*
X14209200Y-8580000D01*
X14209200Y-8540000D02*
X14169200Y-8580000D01*
X14179200Y-9035000D02*
X14219200Y-9075000D01*
X14219200Y-9035000D02*
X14179200Y-9075000D01*
X14194200Y-7465000D02*
X14234200Y-7505000D01*
X14234200Y-7465000D02*
X14194200Y-7505000D01*
X14269200Y-3940000D02*
X14309200Y-3980000D01*
X14309200Y-3940000D02*
X14269200Y-3980000D01*
X14269200Y-9440000D02*
X14309200Y-9480000D01*
X14309200Y-9440000D02*
X14269200Y-9480000D01*
X14314200Y-7080000D02*
X14354200Y-7120000D01*
X14354200Y-7080000D02*
X14314200Y-7120000D01*
X14364200Y-9030000D02*
X14404200Y-9070000D01*
X14404200Y-9030000D02*
X14364200Y-9070000D01*
X14371700Y-7287500D02*
X14411700Y-7327500D01*
X14411700Y-7287500D02*
X14371700Y-7327500D01*
X14419200Y-4540000D02*
X14459200Y-4580000D01*
X14459200Y-4540000D02*
X14419200Y-4580000D01*
X14419200Y-4790000D02*
X14459200Y-4830000D01*
X14459200Y-4790000D02*
X14419200Y-4830000D01*
X14419200Y-5040000D02*
X14459200Y-5080000D01*
X14459200Y-5040000D02*
X14419200Y-5080000D01*
X14419200Y-8540000D02*
X14459200Y-8580000D01*
X14459200Y-8540000D02*
X14419200Y-8580000D01*
X14469200Y-3940000D02*
X14509200Y-3980000D01*
X14509200Y-3940000D02*
X14469200Y-3980000D01*
X14469200Y-9365000D02*
X14509200Y-9405000D01*
X14509200Y-9365000D02*
X14469200Y-9405000D01*
X14474200Y-9030000D02*
X14514200Y-9070000D01*
X14514200Y-9030000D02*
X14474200Y-9070000D01*
X14489200Y-7290000D02*
X14529200Y-7330000D01*
X14529200Y-7290000D02*
X14489200Y-7330000D01*
X14534200Y-9275000D02*
X14574200Y-9315000D01*
X14574200Y-9275000D02*
X14534200Y-9315000D01*
X14604200Y-6695000D02*
X14644200Y-6735000D01*
X14644200Y-6695000D02*
X14604200Y-6735000D01*
X14669200Y-3940000D02*
X14709200Y-3980000D01*
X14709200Y-3940000D02*
X14669200Y-3980000D01*
X14669200Y-7540000D02*
X14709200Y-7580000D01*
X14709200Y-7540000D02*
X14669200Y-7580000D01*
X14669200Y-8540000D02*
X14709200Y-8580000D01*
X14709200Y-8540000D02*
X14669200Y-8580000D01*
X14669200Y-9440000D02*
X14709200Y-9480000D01*
X14709200Y-9440000D02*
X14669200Y-9480000D01*
X14724200Y-4470000D02*
X14764200Y-4510000D01*
X14764200Y-4470000D02*
X14724200Y-4510000D01*
X14774200Y-7315000D02*
X14814200Y-7355000D01*
X14814200Y-7315000D02*
X14774200Y-7355000D01*
X14804200Y-6695000D02*
X14844200Y-6735000D01*
X14844200Y-6695000D02*
X14804200Y-6735000D01*
X14869200Y-3940000D02*
X14909200Y-3980000D01*
X14909200Y-3940000D02*
X14869200Y-3980000D01*
X14869200Y-9440000D02*
X14909200Y-9480000D01*
X14909200Y-9440000D02*
X14869200Y-9480000D01*
X14919200Y-7540000D02*
X14959200Y-7580000D01*
X14959200Y-7540000D02*
X14919200Y-7580000D01*
X15004200Y-6295000D02*
X15044200Y-6335000D01*
X15044200Y-6295000D02*
X15004200Y-6335000D01*
X15004200Y-6735000D02*
X15044200Y-6775000D01*
X15044200Y-6735000D02*
X15004200Y-6775000D01*
X15069200Y-3940000D02*
X15109200Y-3980000D01*
X15109200Y-3940000D02*
X15069200Y-3980000D01*
X15069200Y-9440000D02*
X15109200Y-9480000D01*
X15109200Y-9440000D02*
X15069200Y-9480000D01*
X15154200Y-7150000D02*
X15194200Y-7190000D01*
X15194200Y-7150000D02*
X15154200Y-7190000D01*
X15269200Y-3940000D02*
X15309200Y-3980000D01*
X15309200Y-3940000D02*
X15269200Y-3980000D01*
X15269200Y-9440000D02*
X15309200Y-9480000D01*
X15309200Y-9440000D02*
X15269200Y-9480000D01*
X15469200Y-3940000D02*
X15509200Y-3980000D01*
X15509200Y-3940000D02*
X15469200Y-3980000D01*
X15469200Y-9440000D02*
X15509200Y-9480000D01*
X15509200Y-9440000D02*
X15469200Y-9480000D01*
X15659200Y-4915000D02*
X15699200Y-4955000D01*
X15699200Y-4915000D02*
X15659200Y-4955000D01*
X15669200Y-3940000D02*
X15709200Y-3980000D01*
X15709200Y-3940000D02*
X15669200Y-3980000D01*
X15669200Y-5540000D02*
X15709200Y-5580000D01*
X15709200Y-5540000D02*
X15669200Y-5580000D01*
X15669200Y-5790000D02*
X15709200Y-5830000D01*
X15709200Y-5790000D02*
X15669200Y-5830000D01*
X15669200Y-6540000D02*
X15709200Y-6580000D01*
X15709200Y-6540000D02*
X15669200Y-6580000D01*
X15669200Y-6790000D02*
X15709200Y-6830000D01*
X15709200Y-6790000D02*
X15669200Y-6830000D01*
X15669200Y-7540000D02*
X15709200Y-7580000D01*
X15709200Y-7540000D02*
X15669200Y-7580000D01*
X15669200Y-7790000D02*
X15709200Y-7830000D01*
X15709200Y-7790000D02*
X15669200Y-7830000D01*
X15669200Y-9440000D02*
X15709200Y-9480000D01*
X15709200Y-9440000D02*
X15669200Y-9480000D01*
X15869200Y-3940000D02*
X15909200Y-3980000D01*
X15909200Y-3940000D02*
X15869200Y-3980000D01*
X15869200Y-9440000D02*
X15909200Y-9480000D01*
X15909200Y-9440000D02*
X15869200Y-9480000D01*
X15919200Y-7290000D02*
X15959200Y-7330000D01*
X15959200Y-7290000D02*
X15919200Y-7330000D01*
X16069200Y-3940000D02*
X16109200Y-3980000D01*
X16109200Y-3940000D02*
X16069200Y-3980000D01*
X16069200Y-9440000D02*
X16109200Y-9480000D01*
X16109200Y-9440000D02*
X16069200Y-9480000D01*
X16169200Y-4790000D02*
X16209200Y-4830000D01*
X16209200Y-4790000D02*
X16169200Y-4830000D01*
X16169200Y-5040000D02*
X16209200Y-5080000D01*
X16209200Y-5040000D02*
X16169200Y-5080000D01*
X16169200Y-5290000D02*
X16209200Y-5330000D01*
X16209200Y-5290000D02*
X16169200Y-5330000D01*
X16169200Y-5540000D02*
X16209200Y-5580000D01*
X16209200Y-5540000D02*
X16169200Y-5580000D01*
X16169200Y-5790000D02*
X16209200Y-5830000D01*
X16209200Y-5790000D02*
X16169200Y-5830000D01*
X16169200Y-6040000D02*
X16209200Y-6080000D01*
X16209200Y-6040000D02*
X16169200Y-6080000D01*
X16169200Y-6290000D02*
X16209200Y-6330000D01*
X16209200Y-6290000D02*
X16169200Y-6330000D01*
X16169200Y-6540000D02*
X16209200Y-6580000D01*
X16209200Y-6540000D02*
X16169200Y-6580000D01*
X16169200Y-6790000D02*
X16209200Y-6830000D01*
X16209200Y-6790000D02*
X16169200Y-6830000D01*
X16169200Y-7040000D02*
X16209200Y-7080000D01*
X16209200Y-7040000D02*
X16169200Y-7080000D01*
X16169200Y-7290000D02*
X16209200Y-7330000D01*
X16209200Y-7290000D02*
X16169200Y-7330000D01*
X16169200Y-7540000D02*
X16209200Y-7580000D01*
X16209200Y-7540000D02*
X16169200Y-7580000D01*
X16169200Y-7790000D02*
X16209200Y-7830000D01*
X16209200Y-7790000D02*
X16169200Y-7830000D01*
X16169200Y-8040000D02*
X16209200Y-8080000D01*
X16209200Y-8040000D02*
X16169200Y-8080000D01*
X16169200Y-8540000D02*
X16209200Y-8580000D01*
X16209200Y-8540000D02*
X16169200Y-8580000D01*
X16269200Y-3940000D02*
X16309200Y-3980000D01*
X16309200Y-3940000D02*
X16269200Y-3980000D01*
X16269200Y-9440000D02*
X16309200Y-9480000D01*
X16309200Y-9440000D02*
X16269200Y-9480000D01*
X16419200Y-4790000D02*
X16459200Y-4830000D01*
X16459200Y-4790000D02*
X16419200Y-4830000D01*
X16419200Y-5040000D02*
X16459200Y-5080000D01*
X16459200Y-5040000D02*
X16419200Y-5080000D01*
X16419200Y-5290000D02*
X16459200Y-5330000D01*
X16459200Y-5290000D02*
X16419200Y-5330000D01*
X16419200Y-5540000D02*
X16459200Y-5580000D01*
X16459200Y-5540000D02*
X16419200Y-5580000D01*
X16419200Y-5790000D02*
X16459200Y-5830000D01*
X16459200Y-5790000D02*
X16419200Y-5830000D01*
X16419200Y-6040000D02*
X16459200Y-6080000D01*
X16459200Y-6040000D02*
X16419200Y-6080000D01*
X16419200Y-6290000D02*
X16459200Y-6330000D01*
X16459200Y-6290000D02*
X16419200Y-6330000D01*
X16419200Y-6540000D02*
X16459200Y-6580000D01*
X16459200Y-6540000D02*
X16419200Y-6580000D01*
X16419200Y-6790000D02*
X16459200Y-6830000D01*
X16459200Y-6790000D02*
X16419200Y-6830000D01*
X16419200Y-7040000D02*
X16459200Y-7080000D01*
X16459200Y-7040000D02*
X16419200Y-7080000D01*
X16419200Y-7290000D02*
X16459200Y-7330000D01*
X16459200Y-7290000D02*
X16419200Y-7330000D01*
X16419200Y-7540000D02*
X16459200Y-7580000D01*
X16459200Y-7540000D02*
X16419200Y-7580000D01*
X16419200Y-7790000D02*
X16459200Y-7830000D01*
X16459200Y-7790000D02*
X16419200Y-7830000D01*
X16419200Y-8040000D02*
X16459200Y-8080000D01*
X16459200Y-8040000D02*
X16419200Y-8080000D01*
X16419200Y-8290000D02*
X16459200Y-8330000D01*
X16459200Y-8290000D02*
X16419200Y-8330000D01*
X16419200Y-8540000D02*
X16459200Y-8580000D01*
X16459200Y-8540000D02*
X16419200Y-8580000D01*
X16469200Y-3940000D02*
X16509200Y-3980000D01*
X16509200Y-3940000D02*
X16469200Y-3980000D01*
X16469200Y-9440000D02*
X16509200Y-9480000D01*
X16509200Y-9440000D02*
X16469200Y-9480000D01*
X16669200Y-3940000D02*
X16709200Y-3980000D01*
X16709200Y-3940000D02*
X16669200Y-3980000D01*
X16669200Y-4790000D02*
X16709200Y-4830000D01*
X16709200Y-4790000D02*
X16669200Y-4830000D01*
X16669200Y-5040000D02*
X16709200Y-5080000D01*
X16709200Y-5040000D02*
X16669200Y-5080000D01*
X16669200Y-5540000D02*
X16709200Y-5580000D01*
X16709200Y-5540000D02*
X16669200Y-5580000D01*
X16669200Y-5790000D02*
X16709200Y-5830000D01*
X16709200Y-5790000D02*
X16669200Y-5830000D01*
X16669200Y-6040000D02*
X16709200Y-6080000D01*
X16709200Y-6040000D02*
X16669200Y-6080000D01*
X16669200Y-6540000D02*
X16709200Y-6580000D01*
X16709200Y-6540000D02*
X16669200Y-6580000D01*
X16669200Y-6790000D02*
X16709200Y-6830000D01*
X16709200Y-6790000D02*
X16669200Y-6830000D01*
X16669200Y-7040000D02*
X16709200Y-7080000D01*
X16709200Y-7040000D02*
X16669200Y-7080000D01*
X16669200Y-7290000D02*
X16709200Y-7330000D01*
X16709200Y-7290000D02*
X16669200Y-7330000D01*
X16669200Y-7540000D02*
X16709200Y-7580000D01*
X16709200Y-7540000D02*
X16669200Y-7580000D01*
X16669200Y-7790000D02*
X16709200Y-7830000D01*
X16709200Y-7790000D02*
X16669200Y-7830000D01*
X16669200Y-8540000D02*
X16709200Y-8580000D01*
X16709200Y-8540000D02*
X16669200Y-8580000D01*
X16669200Y-9440000D02*
X16709200Y-9480000D01*
X16709200Y-9440000D02*
X16669200Y-9480000D01*
X16869200Y-3940000D02*
X16909200Y-3980000D01*
X16909200Y-3940000D02*
X16869200Y-3980000D01*
X16869200Y-9440000D02*
X16909200Y-9480000D01*
X16909200Y-9440000D02*
X16869200Y-9480000D01*
X16919200Y-4790000D02*
X16959200Y-4830000D01*
X16959200Y-4790000D02*
X16919200Y-4830000D01*
X16919200Y-5540000D02*
X16959200Y-5580000D01*
X16959200Y-5540000D02*
X16919200Y-5580000D01*
X16919200Y-5790000D02*
X16959200Y-5830000D01*
X16959200Y-5790000D02*
X16919200Y-5830000D01*
X16919200Y-6540000D02*
X16959200Y-6580000D01*
X16959200Y-6540000D02*
X16919200Y-6580000D01*
X16919200Y-6790000D02*
X16959200Y-6830000D01*
X16959200Y-6790000D02*
X16919200Y-6830000D01*
X16919200Y-7540000D02*
X16959200Y-7580000D01*
X16959200Y-7540000D02*
X16919200Y-7580000D01*
X16919200Y-7790000D02*
X16959200Y-7830000D01*
X16959200Y-7790000D02*
X16919200Y-7830000D01*
X16919200Y-8540000D02*
X16959200Y-8580000D01*
X16959200Y-8540000D02*
X16919200Y-8580000D01*
X17069200Y-4240000D02*
X17109200Y-4280000D01*
X17109200Y-4240000D02*
X17069200Y-4280000D01*
X17069200Y-4440000D02*
X17109200Y-4480000D01*
X17109200Y-4440000D02*
X17069200Y-4480000D01*
X17069200Y-4640000D02*
X17109200Y-4680000D01*
X17109200Y-4640000D02*
X17069200Y-4680000D01*
X17069200Y-4840000D02*
X17109200Y-4880000D01*
X17109200Y-4840000D02*
X17069200Y-4880000D01*
X17069200Y-5040000D02*
X17109200Y-5080000D01*
X17109200Y-5040000D02*
X17069200Y-5080000D01*
X17069200Y-5440000D02*
X17109200Y-5480000D01*
X17109200Y-5440000D02*
X17069200Y-5480000D01*
X17069200Y-5640000D02*
X17109200Y-5680000D01*
X17109200Y-5640000D02*
X17069200Y-5680000D01*
X17069200Y-5840000D02*
X17109200Y-5880000D01*
X17109200Y-5840000D02*
X17069200Y-5880000D01*
X17069200Y-6040000D02*
X17109200Y-6080000D01*
X17109200Y-6040000D02*
X17069200Y-6080000D01*
X17069200Y-6440000D02*
X17109200Y-6480000D01*
X17109200Y-6440000D02*
X17069200Y-6480000D01*
X17069200Y-6640000D02*
X17109200Y-6680000D01*
X17109200Y-6640000D02*
X17069200Y-6680000D01*
X17069200Y-6840000D02*
X17109200Y-6880000D01*
X17109200Y-6840000D02*
X17069200Y-6880000D01*
X17069200Y-7440000D02*
X17109200Y-7480000D01*
X17109200Y-7440000D02*
X17069200Y-7480000D01*
X17069200Y-7640000D02*
X17109200Y-7680000D01*
X17109200Y-7640000D02*
X17069200Y-7680000D01*
X17069200Y-7840000D02*
X17109200Y-7880000D01*
X17109200Y-7840000D02*
X17069200Y-7880000D01*
X17069200Y-8440000D02*
X17109200Y-8480000D01*
X17109200Y-8440000D02*
X17069200Y-8480000D01*
X17069200Y-8640000D02*
X17109200Y-8680000D01*
X17109200Y-8640000D02*
X17069200Y-8680000D01*
X17069200Y-8840000D02*
X17109200Y-8880000D01*
X17109200Y-8840000D02*
X17069200Y-8880000D01*
X17069200Y-9040000D02*
X17109200Y-9080000D01*
X17109200Y-9040000D02*
X17069200Y-9080000D01*
X17069200Y-9240000D02*
X17109200Y-9280000D01*
X17109200Y-9240000D02*
X17069200Y-9280000D01*
X14090200Y-5206000D02*
G75*
G02*
X13998200Y-5206000I-46000J0D01*
G01*
X13998200Y-5206000D02*
G75*
G02*
X14090200Y-5206000I46000J0D01*
G01*
X14090200Y-5468000D02*
G75*
G02*
X13998200Y-5468000I-46000J0D01*
G01*
X13998200Y-5468000D02*
G75*
G02*
X14090200Y-5468000I46000J0D01*
G01*
X14090200Y-7947000D02*
G75*
G02*
X13998200Y-7947000I-46000J0D01*
G01*
X13998200Y-7947000D02*
G75*
G02*
X14090200Y-7947000I46000J0D01*
G01*
X14090200Y-8209000D02*
G75*
G02*
X13998200Y-8209000I-46000J0D01*
G01*
X13998200Y-8209000D02*
G75*
G02*
X14090200Y-8209000I46000J0D01*
G01*
X14340200Y-5206000D02*
G75*
G02*
X14248200Y-5206000I-46000J0D01*
G01*
X14248200Y-5206000D02*
G75*
G02*
X14340200Y-5206000I46000J0D01*
G01*
X14340200Y-5468000D02*
G75*
G02*
X14248200Y-5468000I-46000J0D01*
G01*
X14248200Y-5468000D02*
G75*
G02*
X14340200Y-5468000I46000J0D01*
G01*
X14340200Y-7947000D02*
G75*
G02*
X14248200Y-7947000I-46000J0D01*
G01*
X14248200Y-7947000D02*
G75*
G02*
X14340200Y-7947000I46000J0D01*
G01*
X14340200Y-8209000D02*
G75*
G02*
X14248200Y-8209000I-46000J0D01*
G01*
X14248200Y-8209000D02*
G75*
G02*
X14340200Y-8209000I46000J0D01*
G01*
X14540200Y-5206000D02*
G75*
G02*
X14448200Y-5206000I-46000J0D01*
G01*
X14448200Y-5206000D02*
G75*
G02*
X14540200Y-5206000I46000J0D01*
G01*
X14540200Y-5468000D02*
G75*
G02*
X14448200Y-5468000I-46000J0D01*
G01*
X14448200Y-5468000D02*
G75*
G02*
X14540200Y-5468000I46000J0D01*
G01*
X14540200Y-7947000D02*
G75*
G02*
X14448200Y-7947000I-46000J0D01*
G01*
X14448200Y-7947000D02*
G75*
G02*
X14540200Y-7947000I46000J0D01*
G01*
X14540200Y-8209000D02*
G75*
G02*
X14448200Y-8209000I-46000J0D01*
G01*
X14448200Y-8209000D02*
G75*
G02*
X14540200Y-8209000I46000J0D01*
G01*
X14790200Y-5206000D02*
G75*
G02*
X14698200Y-5206000I-46000J0D01*
G01*
X14698200Y-5206000D02*
G75*
G02*
X14790200Y-5206000I46000J0D01*
G01*
X14790200Y-5468000D02*
G75*
G02*
X14698200Y-5468000I-46000J0D01*
G01*
X14698200Y-5468000D02*
G75*
G02*
X14790200Y-5468000I46000J0D01*
G01*
X14790200Y-7947000D02*
G75*
G02*
X14698200Y-7947000I-46000J0D01*
G01*
X14698200Y-7947000D02*
G75*
G02*
X14790200Y-7947000I46000J0D01*
G01*
X14790200Y-8209000D02*
G75*
G02*
X14698200Y-8209000I-46000J0D01*
G01*
X14698200Y-8209000D02*
G75*
G02*
X14790200Y-8209000I46000J0D01*
G01*
X7973233Y-6243500D02*
X7973233Y-6343500D01*
X7923233Y-6293500D02*
X8023233Y-6293500D01*
X7973233Y-6520500D02*
X7973233Y-6620500D01*
X7923233Y-6570500D02*
X8023233Y-6570500D01*
X7973233Y-6797500D02*
X7973233Y-6897500D01*
X7923233Y-6847500D02*
X8023233Y-6847500D01*
X7973233Y-7074500D02*
X7973233Y-7174500D01*
X7923233Y-7124500D02*
X8023233Y-7124500D01*
X8257233Y-6105000D02*
X8257233Y-6205000D01*
X8207233Y-6155000D02*
X8307233Y-6155000D01*
X8257233Y-6382000D02*
X8257233Y-6482000D01*
X8207233Y-6432000D02*
X8307233Y-6432000D01*
X8257233Y-6659000D02*
X8257233Y-6759000D01*
X8207233Y-6709000D02*
X8307233Y-6709000D01*
X8257233Y-6936000D02*
X8257233Y-7036000D01*
X8207233Y-6986000D02*
X8307233Y-6986000D01*
X8257233Y-7213000D02*
X8257233Y-7313000D01*
X8207233Y-7263000D02*
X8307233Y-7263000D01*
X8902200Y-4195000D02*
X8902200Y-4295000D01*
X8852200Y-4245000D02*
X8952200Y-4245000D01*
X8902200Y-4449000D02*
X8902200Y-4549000D01*
X8852200Y-4499000D02*
X8952200Y-4499000D01*
X8902200Y-4703000D02*
X8902200Y-4803000D01*
X8852200Y-4753000D02*
X8952200Y-4753000D01*
X8902200Y-4957000D02*
X8902200Y-5057000D01*
X8852200Y-5007000D02*
X8952200Y-5007000D01*
X8902200Y-5211000D02*
X8902200Y-5311000D01*
X8852200Y-5261000D02*
X8952200Y-5261000D01*
X8902200Y-5465000D02*
X8902200Y-5565000D01*
X8852200Y-5515000D02*
X8952200Y-5515000D01*
X8902200Y-5719000D02*
X8902200Y-5819000D01*
X8852200Y-5769000D02*
X8952200Y-5769000D01*
X8902200Y-5973000D02*
X8902200Y-6073000D01*
X8852200Y-6023000D02*
X8952200Y-6023000D01*
X8902200Y-6227000D02*
X8902200Y-6327000D01*
X8852200Y-6277000D02*
X8952200Y-6277000D01*
X8902200Y-6481000D02*
X8902200Y-6581000D01*
X8852200Y-6531000D02*
X8952200Y-6531000D01*
X8902200Y-6735000D02*
X8902200Y-6835000D01*
X8852200Y-6785000D02*
X8952200Y-6785000D01*
X8902200Y-6989000D02*
X8902200Y-7089000D01*
X8852200Y-7039000D02*
X8952200Y-7039000D01*
X8902200Y-7243000D02*
X8902200Y-7343000D01*
X8852200Y-7293000D02*
X8952200Y-7293000D01*
X8902200Y-7497000D02*
X8902200Y-7597000D01*
X8852200Y-7547000D02*
X8952200Y-7547000D01*
X8902200Y-7751000D02*
X8902200Y-7851000D01*
X8852200Y-7801000D02*
X8952200Y-7801000D01*
X8902200Y-8005000D02*
X8902200Y-8105000D01*
X8852200Y-8055000D02*
X8952200Y-8055000D01*
X8902200Y-8259000D02*
X8902200Y-8359000D01*
X8852200Y-8309000D02*
X8952200Y-8309000D01*
X8902200Y-8513000D02*
X8902200Y-8613000D01*
X8852200Y-8563000D02*
X8952200Y-8563000D01*
X8902200Y-8767000D02*
X8902200Y-8867000D01*
X8852200Y-8817000D02*
X8952200Y-8817000D01*
X8902200Y-9021000D02*
X8902200Y-9121000D01*
X8852200Y-9071000D02*
X8952200Y-9071000D01*
X10934200Y-4195000D02*
X10934200Y-4295000D01*
X10884200Y-4245000D02*
X10984200Y-4245000D01*
X10934200Y-4449000D02*
X10934200Y-4549000D01*
X10884200Y-4499000D02*
X10984200Y-4499000D01*
X10934200Y-4703000D02*
X10934200Y-4803000D01*
X10884200Y-4753000D02*
X10984200Y-4753000D01*
X10934200Y-4957000D02*
X10934200Y-5057000D01*
X10884200Y-5007000D02*
X10984200Y-5007000D01*
X10934200Y-5211000D02*
X10934200Y-5311000D01*
X10884200Y-5261000D02*
X10984200Y-5261000D01*
X10934200Y-5465000D02*
X10934200Y-5565000D01*
X10884200Y-5515000D02*
X10984200Y-5515000D01*
X10934200Y-5719000D02*
X10934200Y-5819000D01*
X10884200Y-5769000D02*
X10984200Y-5769000D01*
X10934200Y-5973000D02*
X10934200Y-6073000D01*
X10884200Y-6023000D02*
X10984200Y-6023000D01*
X10934200Y-6227000D02*
X10934200Y-6327000D01*
X10884200Y-6277000D02*
X10984200Y-6277000D01*
X10934200Y-6481000D02*
X10934200Y-6581000D01*
X10884200Y-6531000D02*
X10984200Y-6531000D01*
X10934200Y-6735000D02*
X10934200Y-6835000D01*
X10884200Y-6785000D02*
X10984200Y-6785000D01*
X10934200Y-6989000D02*
X10934200Y-7089000D01*
X10884200Y-7039000D02*
X10984200Y-7039000D01*
X10934200Y-7243000D02*
X10934200Y-7343000D01*
X10884200Y-7293000D02*
X10984200Y-7293000D01*
X10934200Y-7497000D02*
X10934200Y-7597000D01*
X10884200Y-7547000D02*
X10984200Y-7547000D01*
X10934200Y-7751000D02*
X10934200Y-7851000D01*
X10884200Y-7801000D02*
X10984200Y-7801000D01*
X10934200Y-8005000D02*
X10934200Y-8105000D01*
X10884200Y-8055000D02*
X10984200Y-8055000D01*
X10934200Y-8259000D02*
X10934200Y-8359000D01*
X10884200Y-8309000D02*
X10984200Y-8309000D01*
X10934200Y-8513000D02*
X10934200Y-8613000D01*
X10884200Y-8563000D02*
X10984200Y-8563000D01*
X10934200Y-8767000D02*
X10934200Y-8867000D01*
X10884200Y-8817000D02*
X10984200Y-8817000D01*
X10934200Y-9021000D02*
X10934200Y-9121000D01*
X10884200Y-9071000D02*
X10984200Y-9071000D01*
X11434100Y-3990000D02*
X11434100Y-4090000D01*
X11384100Y-4040000D02*
X11484100Y-4040000D01*
X11434100Y-4244000D02*
X11434100Y-4344000D01*
X11384100Y-4294000D02*
X11484100Y-4294000D01*
X11434100Y-4498000D02*
X11434100Y-4598000D01*
X11384100Y-4548000D02*
X11484100Y-4548000D01*
X11434100Y-4752000D02*
X11434100Y-4852000D01*
X11384100Y-4802000D02*
X11484100Y-4802000D01*
X11434100Y-5006000D02*
X11434100Y-5106000D01*
X11384100Y-5056000D02*
X11484100Y-5056000D01*
X11434100Y-5260000D02*
X11434100Y-5360000D01*
X11384100Y-5310000D02*
X11484100Y-5310000D01*
X11434100Y-5514000D02*
X11434100Y-5614000D01*
X11384100Y-5564000D02*
X11484100Y-5564000D01*
X11434100Y-5768000D02*
X11434100Y-5868000D01*
X11384100Y-5818000D02*
X11484100Y-5818000D01*
X11434100Y-6022000D02*
X11434100Y-6122000D01*
X11384100Y-6072000D02*
X11484100Y-6072000D01*
X11434100Y-6276000D02*
X11434100Y-6376000D01*
X11384100Y-6326000D02*
X11484100Y-6326000D01*
X11434100Y-6530000D02*
X11434100Y-6630000D01*
X11384100Y-6580000D02*
X11484100Y-6580000D01*
X11434100Y-6784000D02*
X11434100Y-6884000D01*
X11384100Y-6834000D02*
X11484100Y-6834000D01*
X11434100Y-7038000D02*
X11434100Y-7138000D01*
X11384100Y-7088000D02*
X11484100Y-7088000D01*
X11434100Y-7292000D02*
X11434100Y-7392000D01*
X11384100Y-7342000D02*
X11484100Y-7342000D01*
X11434100Y-7546000D02*
X11434100Y-7646000D01*
X11384100Y-7596000D02*
X11484100Y-7596000D01*
X11434100Y-7800000D02*
X11434100Y-7900000D01*
X11384100Y-7850000D02*
X11484100Y-7850000D01*
X11434100Y-8054000D02*
X11434100Y-8154000D01*
X11384100Y-8104000D02*
X11484100Y-8104000D01*
X11434100Y-8308000D02*
X11434100Y-8408000D01*
X11384100Y-8358000D02*
X11484100Y-8358000D01*
X11434100Y-8562000D02*
X11434100Y-8662000D01*
X11384100Y-8612000D02*
X11484100Y-8612000D01*
X11434100Y-8816000D02*
X11434100Y-8916000D01*
X11384100Y-8866000D02*
X11484100Y-8866000D01*
X13212200Y-3989000D02*
X13212200Y-4089000D01*
X13162200Y-4039000D02*
X13262200Y-4039000D01*
X13212200Y-4243000D02*
X13212200Y-4343000D01*
X13162200Y-4293000D02*
X13262200Y-4293000D01*
X13212200Y-4497000D02*
X13212200Y-4597000D01*
X13162200Y-4547000D02*
X13262200Y-4547000D01*
X13212200Y-4751000D02*
X13212200Y-4851000D01*
X13162200Y-4801000D02*
X13262200Y-4801000D01*
X13212200Y-5005000D02*
X13212200Y-5105000D01*
X13162200Y-5055000D02*
X13262200Y-5055000D01*
X13212200Y-5259000D02*
X13212200Y-5359000D01*
X13162200Y-5309000D02*
X13262200Y-5309000D01*
X13212200Y-5513000D02*
X13212200Y-5613000D01*
X13162200Y-5563000D02*
X13262200Y-5563000D01*
X13212200Y-5767000D02*
X13212200Y-5867000D01*
X13162200Y-5817000D02*
X13262200Y-5817000D01*
X13212200Y-6021000D02*
X13212200Y-6121000D01*
X13162200Y-6071000D02*
X13262200Y-6071000D01*
X13212200Y-6275000D02*
X13212200Y-6375000D01*
X13162200Y-6325000D02*
X13262200Y-6325000D01*
X13212200Y-6529000D02*
X13212200Y-6629000D01*
X13162200Y-6579000D02*
X13262200Y-6579000D01*
X13212200Y-6783000D02*
X13212200Y-6883000D01*
X13162200Y-6833000D02*
X13262200Y-6833000D01*
X13212200Y-7037000D02*
X13212200Y-7137000D01*
X13162200Y-7087000D02*
X13262200Y-7087000D01*
X13212200Y-7291000D02*
X13212200Y-7391000D01*
X13162200Y-7341000D02*
X13262200Y-7341000D01*
X13212200Y-7545000D02*
X13212200Y-7645000D01*
X13162200Y-7595000D02*
X13262200Y-7595000D01*
X13212200Y-7799000D02*
X13212200Y-7899000D01*
X13162200Y-7849000D02*
X13262200Y-7849000D01*
X13212200Y-8053000D02*
X13212200Y-8153000D01*
X13162200Y-8103000D02*
X13262200Y-8103000D01*
X13212200Y-8307000D02*
X13212200Y-8407000D01*
X13162200Y-8357000D02*
X13262200Y-8357000D01*
X13212200Y-8561000D02*
X13212200Y-8661000D01*
X13162200Y-8611000D02*
X13262200Y-8611000D01*
X13212200Y-8815000D02*
X13212200Y-8915000D01*
X13162200Y-8865000D02*
X13262200Y-8865000D01*
X15359200Y-8875000D02*
X15359200Y-8975000D01*
X15309200Y-8925000D02*
X15409200Y-8925000D01*
X15359200Y-9129000D02*
X15359200Y-9229000D01*
X15309200Y-9179000D02*
X15409200Y-9179000D01*
X15361200Y-4190000D02*
X15361200Y-4290000D01*
X15311200Y-4240000D02*
X15411200Y-4240000D01*
X15361200Y-4444000D02*
X15361200Y-4544000D01*
X15311200Y-4494000D02*
X15411200Y-4494000D01*
X15613200Y-8875000D02*
X15613200Y-8975000D01*
X15563200Y-8925000D02*
X15663200Y-8925000D01*
X15613200Y-9129000D02*
X15613200Y-9229000D01*
X15563200Y-9179000D02*
X15663200Y-9179000D01*
X15615200Y-4190000D02*
X15615200Y-4290000D01*
X15565200Y-4240000D02*
X15665200Y-4240000D01*
X15615200Y-4444000D02*
X15615200Y-4544000D01*
X15565200Y-4494000D02*
X15665200Y-4494000D01*
X15867200Y-8875000D02*
X15867200Y-8975000D01*
X15817200Y-8925000D02*
X15917200Y-8925000D01*
X15867200Y-9129000D02*
X15867200Y-9229000D01*
X15817200Y-9179000D02*
X15917200Y-9179000D01*
X15869200Y-4190000D02*
X15869200Y-4290000D01*
X15819200Y-4240000D02*
X15919200Y-4240000D01*
X15869200Y-4444000D02*
X15869200Y-4544000D01*
X15819200Y-4494000D02*
X15919200Y-4494000D01*
X16121200Y-8875000D02*
X16121200Y-8975000D01*
X16071200Y-8925000D02*
X16171200Y-8925000D01*
X16121200Y-9129000D02*
X16121200Y-9229000D01*
X16071200Y-9179000D02*
X16171200Y-9179000D01*
X16123200Y-4190000D02*
X16123200Y-4290000D01*
X16073200Y-4240000D02*
X16173200Y-4240000D01*
X16123200Y-4444000D02*
X16123200Y-4544000D01*
X16073200Y-4494000D02*
X16173200Y-4494000D01*
D12*
X15713698Y-5284498D02*
X15713698Y-5185502D01*
X15614702Y-5185502D01*
X15614702Y-5284498D01*
X15713698Y-5284498D01*
X15713698Y-6284498D02*
X15713698Y-6185502D01*
X15614702Y-6185502D01*
X15614702Y-6284498D01*
X15713698Y-6284498D01*
X15713698Y-7234498D02*
X15713698Y-7135502D01*
X15614702Y-7135502D01*
X15614702Y-7234498D01*
X15713698Y-7234498D01*
X15713698Y-8234498D02*
X15713698Y-8135502D01*
X15614702Y-8135502D01*
X15614702Y-8234498D01*
X15713698Y-8234498D01*
X15963698Y-5034498D02*
X15963698Y-4935502D01*
X15864702Y-4935502D01*
X15864702Y-5034498D01*
X15963698Y-5034498D01*
X15963698Y-5784498D02*
X15963698Y-5685502D01*
X15864702Y-5685502D01*
X15864702Y-5784498D01*
X15963698Y-5784498D01*
X15963698Y-6534498D02*
X15963698Y-6435502D01*
X15864702Y-6435502D01*
X15864702Y-6534498D01*
X15963698Y-6534498D01*
X15963698Y-6984498D02*
X15963698Y-6885502D01*
X15864702Y-6885502D01*
X15864702Y-6984498D01*
X15963698Y-6984498D01*
X15963698Y-7734498D02*
X15963698Y-7635502D01*
X15864702Y-7635502D01*
X15864702Y-7734498D01*
X15963698Y-7734498D01*
X15963698Y-8484498D02*
X15963698Y-8385502D01*
X15864702Y-8385502D01*
X15864702Y-8484498D01*
X15963698Y-8484498D01*
X16963698Y-5284498D02*
X16963698Y-5185502D01*
X16864702Y-5185502D01*
X16864702Y-5284498D01*
X16963698Y-5284498D01*
X16963698Y-6284498D02*
X16963698Y-6185502D01*
X16864702Y-6185502D01*
X16864702Y-6284498D01*
X16963698Y-6284498D01*
X16963698Y-7234498D02*
X16963698Y-7135502D01*
X16864702Y-7135502D01*
X16864702Y-7234498D01*
X16963698Y-7234498D01*
X16963698Y-8234498D02*
X16963698Y-8135502D01*
X16864702Y-8135502D01*
X16864702Y-8234498D01*
X16963698Y-8234498D01*
D13*
X13737200Y-5050000D02*
X13852200Y-4935000D01*
X13737200Y-4820000D01*
X13622200Y-4935000D01*
X13737200Y-5050000D01*
X13737200Y-5618000D02*
X13852200Y-5503000D01*
X13737200Y-5388000D01*
X13622200Y-5503000D01*
X13737200Y-5618000D01*
X13737200Y-8027000D02*
X13852200Y-7912000D01*
X13737200Y-7797000D01*
X13622200Y-7912000D01*
X13737200Y-8027000D01*
X13737200Y-8595000D02*
X13852200Y-8480000D01*
X13737200Y-8365000D01*
X13622200Y-8480000D01*
X13737200Y-8595000D01*
X15051200Y-5050000D02*
X15166200Y-4935000D01*
X15051200Y-4820000D01*
X14936200Y-4935000D01*
X15051200Y-5050000D01*
X15051200Y-5618000D02*
X15166200Y-5503000D01*
X15051200Y-5388000D01*
X14936200Y-5503000D01*
X15051200Y-5618000D01*
X15051200Y-8027000D02*
X15166200Y-7912000D01*
X15051200Y-7797000D01*
X14936200Y-7912000D01*
X15051200Y-8027000D01*
X15051200Y-8595000D02*
X15166200Y-8480000D01*
X15051200Y-8365000D01*
X14936200Y-8480000D01*
X15051200Y-8595000D01*
D14*
X7955233Y-5299000D02*
X8275233Y-5619000D01*
X8275233Y-5299000D02*
X7955233Y-5619000D01*
X8275233Y-5459000D02*
G75*
G02*
X7955233Y-5459000I-160000J0D01*
G01*
X7955233Y-5459000D02*
G75*
G02*
X8275233Y-5459000I160000J0D01*
G01*
X7955233Y-7799000D02*
X8275233Y-8119000D01*
X8275233Y-7799000D02*
X7955233Y-8119000D01*
X8275233Y-7959000D02*
G75*
G02*
X7955233Y-7959000I-160000J0D01*
G01*
X7955233Y-7959000D02*
G75*
G02*
X8275233Y-7959000I160000J0D01*
G01*
D11*
X7444977Y-9876484D02*
X7444977Y-9676484D01*
X7444977Y-9676484D02*
X7492596Y-9676484D01*
X7492596Y-9676484D02*
X7521167Y-9686008D01*
X7521167Y-9686008D02*
X7540215Y-9705055D01*
X7540215Y-9705055D02*
X7549739Y-9724103D01*
X7549739Y-9724103D02*
X7559262Y-9762198D01*
X7559262Y-9762198D02*
X7559262Y-9790770D01*
X7559262Y-9790770D02*
X7549739Y-9828865D01*
X7549739Y-9828865D02*
X7540215Y-9847912D01*
X7540215Y-9847912D02*
X7521167Y-9866960D01*
X7521167Y-9866960D02*
X7492596Y-9876484D01*
X7492596Y-9876484D02*
X7444977Y-9876484D01*
X7644977Y-9876484D02*
X7644977Y-9743150D01*
X7644977Y-9781246D02*
X7654501Y-9762198D01*
X7654501Y-9762198D02*
X7664024Y-9752674D01*
X7664024Y-9752674D02*
X7683072Y-9743150D01*
X7683072Y-9743150D02*
X7702120Y-9743150D01*
X7768786Y-9876484D02*
X7768786Y-9743150D01*
X7768786Y-9676484D02*
X7759262Y-9686008D01*
X7759262Y-9686008D02*
X7768786Y-9695531D01*
X7768786Y-9695531D02*
X7778310Y-9686008D01*
X7778310Y-9686008D02*
X7768786Y-9676484D01*
X7768786Y-9676484D02*
X7768786Y-9695531D01*
X7892596Y-9876484D02*
X7873548Y-9866960D01*
X7873548Y-9866960D02*
X7864024Y-9847912D01*
X7864024Y-9847912D02*
X7864024Y-9676484D01*
X7997358Y-9876484D02*
X7978310Y-9866960D01*
X7978310Y-9866960D02*
X7968786Y-9847912D01*
X7968786Y-9847912D02*
X7968786Y-9676484D01*
X8225929Y-9876484D02*
X8225929Y-9676484D01*
X8225929Y-9676484D02*
X8292596Y-9819341D01*
X8292596Y-9819341D02*
X8359262Y-9676484D01*
X8359262Y-9676484D02*
X8359262Y-9876484D01*
X8540215Y-9876484D02*
X8540215Y-9771722D01*
X8540215Y-9771722D02*
X8530691Y-9752674D01*
X8530691Y-9752674D02*
X8511644Y-9743150D01*
X8511644Y-9743150D02*
X8473548Y-9743150D01*
X8473548Y-9743150D02*
X8454501Y-9752674D01*
X8540215Y-9866960D02*
X8521167Y-9876484D01*
X8521167Y-9876484D02*
X8473548Y-9876484D01*
X8473548Y-9876484D02*
X8454501Y-9866960D01*
X8454501Y-9866960D02*
X8444977Y-9847912D01*
X8444977Y-9847912D02*
X8444977Y-9828865D01*
X8444977Y-9828865D02*
X8454501Y-9809817D01*
X8454501Y-9809817D02*
X8473548Y-9800293D01*
X8473548Y-9800293D02*
X8521167Y-9800293D01*
X8521167Y-9800293D02*
X8540215Y-9790770D01*
X8635453Y-9743150D02*
X8635453Y-9943150D01*
X8635453Y-9752674D02*
X8654501Y-9743150D01*
X8654501Y-9743150D02*
X8692596Y-9743150D01*
X8692596Y-9743150D02*
X8711644Y-9752674D01*
X8711644Y-9752674D02*
X8721167Y-9762198D01*
X8721167Y-9762198D02*
X8730691Y-9781246D01*
X8730691Y-9781246D02*
X8730691Y-9838389D01*
X8730691Y-9838389D02*
X8721167Y-9857436D01*
X8721167Y-9857436D02*
X8711644Y-9866960D01*
X8711644Y-9866960D02*
X8692596Y-9876484D01*
X8692596Y-9876484D02*
X8654501Y-9876484D01*
X8654501Y-9876484D02*
X8635453Y-9866960D01*
X8816405Y-9857436D02*
X8825929Y-9866960D01*
X8825929Y-9866960D02*
X8816405Y-9876484D01*
X8816405Y-9876484D02*
X8806882Y-9866960D01*
X8806882Y-9866960D02*
X8816405Y-9857436D01*
X8816405Y-9857436D02*
X8816405Y-9876484D01*
X8816405Y-9752674D02*
X8825929Y-9762198D01*
X8825929Y-9762198D02*
X8816405Y-9771722D01*
X8816405Y-9771722D02*
X8806882Y-9762198D01*
X8806882Y-9762198D02*
X8816405Y-9752674D01*
X8816405Y-9752674D02*
X8816405Y-9771722D01*
D10*
X7144200Y-10185000D02*
X7184200Y-10225000D01*
X7184200Y-10185000D02*
X7144200Y-10225000D01*
D11*
X7483072Y-10096484D02*
X7502120Y-10096484D01*
X7502120Y-10096484D02*
X7521167Y-10106008D01*
X7521167Y-10106008D02*
X7530691Y-10115531D01*
X7530691Y-10115531D02*
X7540215Y-10134579D01*
X7540215Y-10134579D02*
X7549739Y-10172674D01*
X7549739Y-10172674D02*
X7549739Y-10220293D01*
X7549739Y-10220293D02*
X7540215Y-10258389D01*
X7540215Y-10258389D02*
X7530691Y-10277436D01*
X7530691Y-10277436D02*
X7521167Y-10286960D01*
X7521167Y-10286960D02*
X7502120Y-10296484D01*
X7502120Y-10296484D02*
X7483072Y-10296484D01*
X7483072Y-10296484D02*
X7464024Y-10286960D01*
X7464024Y-10286960D02*
X7454501Y-10277436D01*
X7454501Y-10277436D02*
X7444977Y-10258389D01*
X7444977Y-10258389D02*
X7435453Y-10220293D01*
X7435453Y-10220293D02*
X7435453Y-10172674D01*
X7435453Y-10172674D02*
X7444977Y-10134579D01*
X7444977Y-10134579D02*
X7454501Y-10115531D01*
X7454501Y-10115531D02*
X7464024Y-10106008D01*
X7464024Y-10106008D02*
X7483072Y-10096484D01*
X7635453Y-10277436D02*
X7644977Y-10286960D01*
X7644977Y-10286960D02*
X7635453Y-10296484D01*
X7635453Y-10296484D02*
X7625929Y-10286960D01*
X7625929Y-10286960D02*
X7635453Y-10277436D01*
X7635453Y-10277436D02*
X7635453Y-10296484D01*
X7816405Y-10163150D02*
X7816405Y-10296484D01*
X7768786Y-10086960D02*
X7721167Y-10229817D01*
X7721167Y-10229817D02*
X7844977Y-10229817D01*
X7959262Y-10096484D02*
X7978310Y-10096484D01*
X7978310Y-10096484D02*
X7997358Y-10106008D01*
X7997358Y-10106008D02*
X8006882Y-10115531D01*
X8006882Y-10115531D02*
X8016405Y-10134579D01*
X8016405Y-10134579D02*
X8025929Y-10172674D01*
X8025929Y-10172674D02*
X8025929Y-10220293D01*
X8025929Y-10220293D02*
X8016405Y-10258389D01*
X8016405Y-10258389D02*
X8006882Y-10277436D01*
X8006882Y-10277436D02*
X7997358Y-10286960D01*
X7997358Y-10286960D02*
X7978310Y-10296484D01*
X7978310Y-10296484D02*
X7959262Y-10296484D01*
X7959262Y-10296484D02*
X7940215Y-10286960D01*
X7940215Y-10286960D02*
X7930691Y-10277436D01*
X7930691Y-10277436D02*
X7921167Y-10258389D01*
X7921167Y-10258389D02*
X7911643Y-10220293D01*
X7911643Y-10220293D02*
X7911643Y-10172674D01*
X7911643Y-10172674D02*
X7921167Y-10134579D01*
X7921167Y-10134579D02*
X7930691Y-10115531D01*
X7930691Y-10115531D02*
X7940215Y-10106008D01*
X7940215Y-10106008D02*
X7959262Y-10096484D01*
X8149739Y-10096484D02*
X8168786Y-10096484D01*
X8168786Y-10096484D02*
X8187834Y-10106008D01*
X8187834Y-10106008D02*
X8197358Y-10115531D01*
X8197358Y-10115531D02*
X8206882Y-10134579D01*
X8206882Y-10134579D02*
X8216405Y-10172674D01*
X8216405Y-10172674D02*
X8216405Y-10220293D01*
X8216405Y-10220293D02*
X8206882Y-10258389D01*
X8206882Y-10258389D02*
X8197358Y-10277436D01*
X8197358Y-10277436D02*
X8187834Y-10286960D01*
X8187834Y-10286960D02*
X8168786Y-10296484D01*
X8168786Y-10296484D02*
X8149739Y-10296484D01*
X8149739Y-10296484D02*
X8130691Y-10286960D01*
X8130691Y-10286960D02*
X8121167Y-10277436D01*
X8121167Y-10277436D02*
X8111643Y-10258389D01*
X8111643Y-10258389D02*
X8102120Y-10220293D01*
X8102120Y-10220293D02*
X8102120Y-10172674D01*
X8102120Y-10172674D02*
X8111643Y-10134579D01*
X8111643Y-10134579D02*
X8121167Y-10115531D01*
X8121167Y-10115531D02*
X8130691Y-10106008D01*
X8130691Y-10106008D02*
X8149739Y-10096484D01*
X8302120Y-10296484D02*
X8302120Y-10163150D01*
X8302120Y-10182198D02*
X8311643Y-10172674D01*
X8311643Y-10172674D02*
X8330691Y-10163150D01*
X8330691Y-10163150D02*
X8359263Y-10163150D01*
X8359263Y-10163150D02*
X8378310Y-10172674D01*
X8378310Y-10172674D02*
X8387834Y-10191722D01*
X8387834Y-10191722D02*
X8387834Y-10296484D01*
X8387834Y-10191722D02*
X8397358Y-10172674D01*
X8397358Y-10172674D02*
X8416405Y-10163150D01*
X8416405Y-10163150D02*
X8444977Y-10163150D01*
X8444977Y-10163150D02*
X8464025Y-10172674D01*
X8464025Y-10172674D02*
X8473548Y-10191722D01*
X8473548Y-10191722D02*
X8473548Y-10296484D01*
X8568786Y-10296484D02*
X8568786Y-10163150D01*
X8568786Y-10182198D02*
X8578310Y-10172674D01*
X8578310Y-10172674D02*
X8597358Y-10163150D01*
X8597358Y-10163150D02*
X8625929Y-10163150D01*
X8625929Y-10163150D02*
X8644977Y-10172674D01*
X8644977Y-10172674D02*
X8654501Y-10191722D01*
X8654501Y-10191722D02*
X8654501Y-10296484D01*
X8654501Y-10191722D02*
X8664025Y-10172674D01*
X8664025Y-10172674D02*
X8683072Y-10163150D01*
X8683072Y-10163150D02*
X8711644Y-10163150D01*
X8711644Y-10163150D02*
X8730691Y-10172674D01*
X8730691Y-10172674D02*
X8740215Y-10191722D01*
X8740215Y-10191722D02*
X8740215Y-10296484D01*
X9130691Y-10086960D02*
X8959263Y-10344103D01*
X9387834Y-10096484D02*
X9406882Y-10096484D01*
X9406882Y-10096484D02*
X9425929Y-10106008D01*
X9425929Y-10106008D02*
X9435453Y-10115531D01*
X9435453Y-10115531D02*
X9444977Y-10134579D01*
X9444977Y-10134579D02*
X9454501Y-10172674D01*
X9454501Y-10172674D02*
X9454501Y-10220293D01*
X9454501Y-10220293D02*
X9444977Y-10258389D01*
X9444977Y-10258389D02*
X9435453Y-10277436D01*
X9435453Y-10277436D02*
X9425929Y-10286960D01*
X9425929Y-10286960D02*
X9406882Y-10296484D01*
X9406882Y-10296484D02*
X9387834Y-10296484D01*
X9387834Y-10296484D02*
X9368787Y-10286960D01*
X9368787Y-10286960D02*
X9359263Y-10277436D01*
X9359263Y-10277436D02*
X9349739Y-10258389D01*
X9349739Y-10258389D02*
X9340215Y-10220293D01*
X9340215Y-10220293D02*
X9340215Y-10172674D01*
X9340215Y-10172674D02*
X9349739Y-10134579D01*
X9349739Y-10134579D02*
X9359263Y-10115531D01*
X9359263Y-10115531D02*
X9368787Y-10106008D01*
X9368787Y-10106008D02*
X9387834Y-10096484D01*
X9540215Y-10277436D02*
X9549739Y-10286960D01*
X9549739Y-10286960D02*
X9540215Y-10296484D01*
X9540215Y-10296484D02*
X9530691Y-10286960D01*
X9530691Y-10286960D02*
X9540215Y-10277436D01*
X9540215Y-10277436D02*
X9540215Y-10296484D01*
X9673548Y-10096484D02*
X9692596Y-10096484D01*
X9692596Y-10096484D02*
X9711644Y-10106008D01*
X9711644Y-10106008D02*
X9721168Y-10115531D01*
X9721168Y-10115531D02*
X9730691Y-10134579D01*
X9730691Y-10134579D02*
X9740215Y-10172674D01*
X9740215Y-10172674D02*
X9740215Y-10220293D01*
X9740215Y-10220293D02*
X9730691Y-10258389D01*
X9730691Y-10258389D02*
X9721168Y-10277436D01*
X9721168Y-10277436D02*
X9711644Y-10286960D01*
X9711644Y-10286960D02*
X9692596Y-10296484D01*
X9692596Y-10296484D02*
X9673548Y-10296484D01*
X9673548Y-10296484D02*
X9654501Y-10286960D01*
X9654501Y-10286960D02*
X9644977Y-10277436D01*
X9644977Y-10277436D02*
X9635453Y-10258389D01*
X9635453Y-10258389D02*
X9625929Y-10220293D01*
X9625929Y-10220293D02*
X9625929Y-10172674D01*
X9625929Y-10172674D02*
X9635453Y-10134579D01*
X9635453Y-10134579D02*
X9644977Y-10115531D01*
X9644977Y-10115531D02*
X9654501Y-10106008D01*
X9654501Y-10106008D02*
X9673548Y-10096484D01*
X9930691Y-10296484D02*
X9816406Y-10296484D01*
X9873548Y-10296484D02*
X9873548Y-10096484D01*
X9873548Y-10096484D02*
X9854501Y-10125055D01*
X9854501Y-10125055D02*
X9835453Y-10144103D01*
X9835453Y-10144103D02*
X9816406Y-10153627D01*
X10111644Y-10096484D02*
X10016406Y-10096484D01*
X10016406Y-10096484D02*
X10006882Y-10191722D01*
X10006882Y-10191722D02*
X10016406Y-10182198D01*
X10016406Y-10182198D02*
X10035453Y-10172674D01*
X10035453Y-10172674D02*
X10083072Y-10172674D01*
X10083072Y-10172674D02*
X10102120Y-10182198D01*
X10102120Y-10182198D02*
X10111644Y-10191722D01*
X10111644Y-10191722D02*
X10121168Y-10210770D01*
X10121168Y-10210770D02*
X10121168Y-10258389D01*
X10121168Y-10258389D02*
X10111644Y-10277436D01*
X10111644Y-10277436D02*
X10102120Y-10286960D01*
X10102120Y-10286960D02*
X10083072Y-10296484D01*
X10083072Y-10296484D02*
X10035453Y-10296484D01*
X10035453Y-10296484D02*
X10016406Y-10286960D01*
X10016406Y-10286960D02*
X10006882Y-10277436D01*
X10187834Y-10096484D02*
X10321168Y-10096484D01*
X10321168Y-10096484D02*
X10235453Y-10296484D01*
X10387834Y-10096484D02*
X10387834Y-10134579D01*
X10464025Y-10096484D02*
X10464025Y-10134579D01*
X10759263Y-10372674D02*
X10749739Y-10363150D01*
X10749739Y-10363150D02*
X10730691Y-10334579D01*
X10730691Y-10334579D02*
X10721168Y-10315531D01*
X10721168Y-10315531D02*
X10711644Y-10286960D01*
X10711644Y-10286960D02*
X10702120Y-10239341D01*
X10702120Y-10239341D02*
X10702120Y-10201246D01*
X10702120Y-10201246D02*
X10711644Y-10153627D01*
X10711644Y-10153627D02*
X10721168Y-10125055D01*
X10721168Y-10125055D02*
X10730691Y-10106008D01*
X10730691Y-10106008D02*
X10749739Y-10077436D01*
X10749739Y-10077436D02*
X10759263Y-10067912D01*
X10816406Y-10096484D02*
X10940215Y-10096484D01*
X10940215Y-10096484D02*
X10873549Y-10172674D01*
X10873549Y-10172674D02*
X10902120Y-10172674D01*
X10902120Y-10172674D02*
X10921168Y-10182198D01*
X10921168Y-10182198D02*
X10930691Y-10191722D01*
X10930691Y-10191722D02*
X10940215Y-10210770D01*
X10940215Y-10210770D02*
X10940215Y-10258389D01*
X10940215Y-10258389D02*
X10930691Y-10277436D01*
X10930691Y-10277436D02*
X10921168Y-10286960D01*
X10921168Y-10286960D02*
X10902120Y-10296484D01*
X10902120Y-10296484D02*
X10844977Y-10296484D01*
X10844977Y-10296484D02*
X10825930Y-10286960D01*
X10825930Y-10286960D02*
X10816406Y-10277436D01*
X11006882Y-10096484D02*
X11140215Y-10096484D01*
X11140215Y-10096484D02*
X11054501Y-10296484D01*
X11206882Y-10115531D02*
X11216406Y-10106008D01*
X11216406Y-10106008D02*
X11235453Y-10096484D01*
X11235453Y-10096484D02*
X11283072Y-10096484D01*
X11283072Y-10096484D02*
X11302120Y-10106008D01*
X11302120Y-10106008D02*
X11311644Y-10115531D01*
X11311644Y-10115531D02*
X11321168Y-10134579D01*
X11321168Y-10134579D02*
X11321168Y-10153627D01*
X11321168Y-10153627D02*
X11311644Y-10182198D01*
X11311644Y-10182198D02*
X11197358Y-10296484D01*
X11197358Y-10296484D02*
X11321168Y-10296484D01*
X11559263Y-10296484D02*
X11559263Y-10096484D01*
X11644977Y-10296484D02*
X11644977Y-10191722D01*
X11644977Y-10191722D02*
X11635453Y-10172674D01*
X11635453Y-10172674D02*
X11616406Y-10163150D01*
X11616406Y-10163150D02*
X11587834Y-10163150D01*
X11587834Y-10163150D02*
X11568787Y-10172674D01*
X11568787Y-10172674D02*
X11559263Y-10182198D01*
X11768787Y-10296484D02*
X11749739Y-10286960D01*
X11749739Y-10286960D02*
X11740215Y-10277436D01*
X11740215Y-10277436D02*
X11730691Y-10258389D01*
X11730691Y-10258389D02*
X11730691Y-10201246D01*
X11730691Y-10201246D02*
X11740215Y-10182198D01*
X11740215Y-10182198D02*
X11749739Y-10172674D01*
X11749739Y-10172674D02*
X11768787Y-10163150D01*
X11768787Y-10163150D02*
X11797358Y-10163150D01*
X11797358Y-10163150D02*
X11816406Y-10172674D01*
X11816406Y-10172674D02*
X11825930Y-10182198D01*
X11825930Y-10182198D02*
X11835453Y-10201246D01*
X11835453Y-10201246D02*
X11835453Y-10258389D01*
X11835453Y-10258389D02*
X11825930Y-10277436D01*
X11825930Y-10277436D02*
X11816406Y-10286960D01*
X11816406Y-10286960D02*
X11797358Y-10296484D01*
X11797358Y-10296484D02*
X11768787Y-10296484D01*
X11949739Y-10296484D02*
X11930691Y-10286960D01*
X11930691Y-10286960D02*
X11921168Y-10267912D01*
X11921168Y-10267912D02*
X11921168Y-10096484D01*
X12102120Y-10286960D02*
X12083072Y-10296484D01*
X12083072Y-10296484D02*
X12044977Y-10296484D01*
X12044977Y-10296484D02*
X12025930Y-10286960D01*
X12025930Y-10286960D02*
X12016406Y-10267912D01*
X12016406Y-10267912D02*
X12016406Y-10191722D01*
X12016406Y-10191722D02*
X12025930Y-10172674D01*
X12025930Y-10172674D02*
X12044977Y-10163150D01*
X12044977Y-10163150D02*
X12083072Y-10163150D01*
X12083072Y-10163150D02*
X12102120Y-10172674D01*
X12102120Y-10172674D02*
X12111644Y-10191722D01*
X12111644Y-10191722D02*
X12111644Y-10210770D01*
X12111644Y-10210770D02*
X12016406Y-10229817D01*
X12187834Y-10286960D02*
X12206882Y-10296484D01*
X12206882Y-10296484D02*
X12244977Y-10296484D01*
X12244977Y-10296484D02*
X12264025Y-10286960D01*
X12264025Y-10286960D02*
X12273549Y-10267912D01*
X12273549Y-10267912D02*
X12273549Y-10258389D01*
X12273549Y-10258389D02*
X12264025Y-10239341D01*
X12264025Y-10239341D02*
X12244977Y-10229817D01*
X12244977Y-10229817D02*
X12216406Y-10229817D01*
X12216406Y-10229817D02*
X12197358Y-10220293D01*
X12197358Y-10220293D02*
X12187834Y-10201246D01*
X12187834Y-10201246D02*
X12187834Y-10191722D01*
X12187834Y-10191722D02*
X12197358Y-10172674D01*
X12197358Y-10172674D02*
X12216406Y-10163150D01*
X12216406Y-10163150D02*
X12244977Y-10163150D01*
X12244977Y-10163150D02*
X12264025Y-10172674D01*
X12340215Y-10372674D02*
X12349739Y-10363150D01*
X12349739Y-10363150D02*
X12368787Y-10334579D01*
X12368787Y-10334579D02*
X12378311Y-10315531D01*
X12378311Y-10315531D02*
X12387834Y-10286960D01*
X12387834Y-10286960D02*
X12397358Y-10239341D01*
X12397358Y-10239341D02*
X12397358Y-10201246D01*
X12397358Y-10201246D02*
X12387834Y-10153627D01*
X12387834Y-10153627D02*
X12378311Y-10125055D01*
X12378311Y-10125055D02*
X12368787Y-10106008D01*
X12368787Y-10106008D02*
X12349739Y-10077436D01*
X12349739Y-10077436D02*
X12340215Y-10067912D01*
D10*
X7184200Y-10469000D02*
G75*
G02*
X7092200Y-10469000I-46000J0D01*
G01*
X7092200Y-10469000D02*
G75*
G02*
X7184200Y-10469000I46000J0D01*
G01*
D11*
X7483072Y-10360484D02*
X7502120Y-10360484D01*
X7502120Y-10360484D02*
X7521167Y-10370008D01*
X7521167Y-10370008D02*
X7530691Y-10379531D01*
X7530691Y-10379531D02*
X7540215Y-10398579D01*
X7540215Y-10398579D02*
X7549739Y-10436674D01*
X7549739Y-10436674D02*
X7549739Y-10484293D01*
X7549739Y-10484293D02*
X7540215Y-10522389D01*
X7540215Y-10522389D02*
X7530691Y-10541436D01*
X7530691Y-10541436D02*
X7521167Y-10550960D01*
X7521167Y-10550960D02*
X7502120Y-10560484D01*
X7502120Y-10560484D02*
X7483072Y-10560484D01*
X7483072Y-10560484D02*
X7464024Y-10550960D01*
X7464024Y-10550960D02*
X7454501Y-10541436D01*
X7454501Y-10541436D02*
X7444977Y-10522389D01*
X7444977Y-10522389D02*
X7435453Y-10484293D01*
X7435453Y-10484293D02*
X7435453Y-10436674D01*
X7435453Y-10436674D02*
X7444977Y-10398579D01*
X7444977Y-10398579D02*
X7454501Y-10379531D01*
X7454501Y-10379531D02*
X7464024Y-10370008D01*
X7464024Y-10370008D02*
X7483072Y-10360484D01*
X7635453Y-10541436D02*
X7644977Y-10550960D01*
X7644977Y-10550960D02*
X7635453Y-10560484D01*
X7635453Y-10560484D02*
X7625929Y-10550960D01*
X7625929Y-10550960D02*
X7635453Y-10541436D01*
X7635453Y-10541436D02*
X7635453Y-10560484D01*
X7740215Y-10560484D02*
X7778310Y-10560484D01*
X7778310Y-10560484D02*
X7797358Y-10550960D01*
X7797358Y-10550960D02*
X7806882Y-10541436D01*
X7806882Y-10541436D02*
X7825929Y-10512865D01*
X7825929Y-10512865D02*
X7835453Y-10474770D01*
X7835453Y-10474770D02*
X7835453Y-10398579D01*
X7835453Y-10398579D02*
X7825929Y-10379531D01*
X7825929Y-10379531D02*
X7816405Y-10370008D01*
X7816405Y-10370008D02*
X7797358Y-10360484D01*
X7797358Y-10360484D02*
X7759262Y-10360484D01*
X7759262Y-10360484D02*
X7740215Y-10370008D01*
X7740215Y-10370008D02*
X7730691Y-10379531D01*
X7730691Y-10379531D02*
X7721167Y-10398579D01*
X7721167Y-10398579D02*
X7721167Y-10446198D01*
X7721167Y-10446198D02*
X7730691Y-10465246D01*
X7730691Y-10465246D02*
X7740215Y-10474770D01*
X7740215Y-10474770D02*
X7759262Y-10484293D01*
X7759262Y-10484293D02*
X7797358Y-10484293D01*
X7797358Y-10484293D02*
X7816405Y-10474770D01*
X7816405Y-10474770D02*
X7825929Y-10465246D01*
X7825929Y-10465246D02*
X7835453Y-10446198D01*
X7911643Y-10379531D02*
X7921167Y-10370008D01*
X7921167Y-10370008D02*
X7940215Y-10360484D01*
X7940215Y-10360484D02*
X7987834Y-10360484D01*
X7987834Y-10360484D02*
X8006882Y-10370008D01*
X8006882Y-10370008D02*
X8016405Y-10379531D01*
X8016405Y-10379531D02*
X8025929Y-10398579D01*
X8025929Y-10398579D02*
X8025929Y-10417627D01*
X8025929Y-10417627D02*
X8016405Y-10446198D01*
X8016405Y-10446198D02*
X7902120Y-10560484D01*
X7902120Y-10560484D02*
X8025929Y-10560484D01*
X8149739Y-10360484D02*
X8168786Y-10360484D01*
X8168786Y-10360484D02*
X8187834Y-10370008D01*
X8187834Y-10370008D02*
X8197358Y-10379531D01*
X8197358Y-10379531D02*
X8206882Y-10398579D01*
X8206882Y-10398579D02*
X8216405Y-10436674D01*
X8216405Y-10436674D02*
X8216405Y-10484293D01*
X8216405Y-10484293D02*
X8206882Y-10522389D01*
X8206882Y-10522389D02*
X8197358Y-10541436D01*
X8197358Y-10541436D02*
X8187834Y-10550960D01*
X8187834Y-10550960D02*
X8168786Y-10560484D01*
X8168786Y-10560484D02*
X8149739Y-10560484D01*
X8149739Y-10560484D02*
X8130691Y-10550960D01*
X8130691Y-10550960D02*
X8121167Y-10541436D01*
X8121167Y-10541436D02*
X8111643Y-10522389D01*
X8111643Y-10522389D02*
X8102120Y-10484293D01*
X8102120Y-10484293D02*
X8102120Y-10436674D01*
X8102120Y-10436674D02*
X8111643Y-10398579D01*
X8111643Y-10398579D02*
X8121167Y-10379531D01*
X8121167Y-10379531D02*
X8130691Y-10370008D01*
X8130691Y-10370008D02*
X8149739Y-10360484D01*
X8302120Y-10560484D02*
X8302120Y-10427150D01*
X8302120Y-10446198D02*
X8311643Y-10436674D01*
X8311643Y-10436674D02*
X8330691Y-10427150D01*
X8330691Y-10427150D02*
X8359263Y-10427150D01*
X8359263Y-10427150D02*
X8378310Y-10436674D01*
X8378310Y-10436674D02*
X8387834Y-10455722D01*
X8387834Y-10455722D02*
X8387834Y-10560484D01*
X8387834Y-10455722D02*
X8397358Y-10436674D01*
X8397358Y-10436674D02*
X8416405Y-10427150D01*
X8416405Y-10427150D02*
X8444977Y-10427150D01*
X8444977Y-10427150D02*
X8464025Y-10436674D01*
X8464025Y-10436674D02*
X8473548Y-10455722D01*
X8473548Y-10455722D02*
X8473548Y-10560484D01*
X8568786Y-10560484D02*
X8568786Y-10427150D01*
X8568786Y-10446198D02*
X8578310Y-10436674D01*
X8578310Y-10436674D02*
X8597358Y-10427150D01*
X8597358Y-10427150D02*
X8625929Y-10427150D01*
X8625929Y-10427150D02*
X8644977Y-10436674D01*
X8644977Y-10436674D02*
X8654501Y-10455722D01*
X8654501Y-10455722D02*
X8654501Y-10560484D01*
X8654501Y-10455722D02*
X8664025Y-10436674D01*
X8664025Y-10436674D02*
X8683072Y-10427150D01*
X8683072Y-10427150D02*
X8711644Y-10427150D01*
X8711644Y-10427150D02*
X8730691Y-10436674D01*
X8730691Y-10436674D02*
X8740215Y-10455722D01*
X8740215Y-10455722D02*
X8740215Y-10560484D01*
X9130691Y-10350960D02*
X8959263Y-10608103D01*
X9387834Y-10360484D02*
X9406882Y-10360484D01*
X9406882Y-10360484D02*
X9425929Y-10370008D01*
X9425929Y-10370008D02*
X9435453Y-10379531D01*
X9435453Y-10379531D02*
X9444977Y-10398579D01*
X9444977Y-10398579D02*
X9454501Y-10436674D01*
X9454501Y-10436674D02*
X9454501Y-10484293D01*
X9454501Y-10484293D02*
X9444977Y-10522389D01*
X9444977Y-10522389D02*
X9435453Y-10541436D01*
X9435453Y-10541436D02*
X9425929Y-10550960D01*
X9425929Y-10550960D02*
X9406882Y-10560484D01*
X9406882Y-10560484D02*
X9387834Y-10560484D01*
X9387834Y-10560484D02*
X9368787Y-10550960D01*
X9368787Y-10550960D02*
X9359263Y-10541436D01*
X9359263Y-10541436D02*
X9349739Y-10522389D01*
X9349739Y-10522389D02*
X9340215Y-10484293D01*
X9340215Y-10484293D02*
X9340215Y-10436674D01*
X9340215Y-10436674D02*
X9349739Y-10398579D01*
X9349739Y-10398579D02*
X9359263Y-10379531D01*
X9359263Y-10379531D02*
X9368787Y-10370008D01*
X9368787Y-10370008D02*
X9387834Y-10360484D01*
X9540215Y-10541436D02*
X9549739Y-10550960D01*
X9549739Y-10550960D02*
X9540215Y-10560484D01*
X9540215Y-10560484D02*
X9530691Y-10550960D01*
X9530691Y-10550960D02*
X9540215Y-10541436D01*
X9540215Y-10541436D02*
X9540215Y-10560484D01*
X9673548Y-10360484D02*
X9692596Y-10360484D01*
X9692596Y-10360484D02*
X9711644Y-10370008D01*
X9711644Y-10370008D02*
X9721168Y-10379531D01*
X9721168Y-10379531D02*
X9730691Y-10398579D01*
X9730691Y-10398579D02*
X9740215Y-10436674D01*
X9740215Y-10436674D02*
X9740215Y-10484293D01*
X9740215Y-10484293D02*
X9730691Y-10522389D01*
X9730691Y-10522389D02*
X9721168Y-10541436D01*
X9721168Y-10541436D02*
X9711644Y-10550960D01*
X9711644Y-10550960D02*
X9692596Y-10560484D01*
X9692596Y-10560484D02*
X9673548Y-10560484D01*
X9673548Y-10560484D02*
X9654501Y-10550960D01*
X9654501Y-10550960D02*
X9644977Y-10541436D01*
X9644977Y-10541436D02*
X9635453Y-10522389D01*
X9635453Y-10522389D02*
X9625929Y-10484293D01*
X9625929Y-10484293D02*
X9625929Y-10436674D01*
X9625929Y-10436674D02*
X9635453Y-10398579D01*
X9635453Y-10398579D02*
X9644977Y-10379531D01*
X9644977Y-10379531D02*
X9654501Y-10370008D01*
X9654501Y-10370008D02*
X9673548Y-10360484D01*
X9806882Y-10360484D02*
X9930691Y-10360484D01*
X9930691Y-10360484D02*
X9864025Y-10436674D01*
X9864025Y-10436674D02*
X9892596Y-10436674D01*
X9892596Y-10436674D02*
X9911644Y-10446198D01*
X9911644Y-10446198D02*
X9921168Y-10455722D01*
X9921168Y-10455722D02*
X9930691Y-10474770D01*
X9930691Y-10474770D02*
X9930691Y-10522389D01*
X9930691Y-10522389D02*
X9921168Y-10541436D01*
X9921168Y-10541436D02*
X9911644Y-10550960D01*
X9911644Y-10550960D02*
X9892596Y-10560484D01*
X9892596Y-10560484D02*
X9835453Y-10560484D01*
X9835453Y-10560484D02*
X9816406Y-10550960D01*
X9816406Y-10550960D02*
X9806882Y-10541436D01*
X10102120Y-10360484D02*
X10064025Y-10360484D01*
X10064025Y-10360484D02*
X10044977Y-10370008D01*
X10044977Y-10370008D02*
X10035453Y-10379531D01*
X10035453Y-10379531D02*
X10016406Y-10408103D01*
X10016406Y-10408103D02*
X10006882Y-10446198D01*
X10006882Y-10446198D02*
X10006882Y-10522389D01*
X10006882Y-10522389D02*
X10016406Y-10541436D01*
X10016406Y-10541436D02*
X10025929Y-10550960D01*
X10025929Y-10550960D02*
X10044977Y-10560484D01*
X10044977Y-10560484D02*
X10083072Y-10560484D01*
X10083072Y-10560484D02*
X10102120Y-10550960D01*
X10102120Y-10550960D02*
X10111644Y-10541436D01*
X10111644Y-10541436D02*
X10121168Y-10522389D01*
X10121168Y-10522389D02*
X10121168Y-10474770D01*
X10121168Y-10474770D02*
X10111644Y-10455722D01*
X10111644Y-10455722D02*
X10102120Y-10446198D01*
X10102120Y-10446198D02*
X10083072Y-10436674D01*
X10083072Y-10436674D02*
X10044977Y-10436674D01*
X10044977Y-10436674D02*
X10025929Y-10446198D01*
X10025929Y-10446198D02*
X10016406Y-10455722D01*
X10016406Y-10455722D02*
X10006882Y-10474770D01*
X10197358Y-10379531D02*
X10206882Y-10370008D01*
X10206882Y-10370008D02*
X10225929Y-10360484D01*
X10225929Y-10360484D02*
X10273549Y-10360484D01*
X10273549Y-10360484D02*
X10292596Y-10370008D01*
X10292596Y-10370008D02*
X10302120Y-10379531D01*
X10302120Y-10379531D02*
X10311644Y-10398579D01*
X10311644Y-10398579D02*
X10311644Y-10417627D01*
X10311644Y-10417627D02*
X10302120Y-10446198D01*
X10302120Y-10446198D02*
X10187834Y-10560484D01*
X10187834Y-10560484D02*
X10311644Y-10560484D01*
X10387834Y-10360484D02*
X10387834Y-10398579D01*
X10464025Y-10360484D02*
X10464025Y-10398579D01*
X10759263Y-10636674D02*
X10749739Y-10627150D01*
X10749739Y-10627150D02*
X10730691Y-10598579D01*
X10730691Y-10598579D02*
X10721168Y-10579531D01*
X10721168Y-10579531D02*
X10711644Y-10550960D01*
X10711644Y-10550960D02*
X10702120Y-10503341D01*
X10702120Y-10503341D02*
X10702120Y-10465246D01*
X10702120Y-10465246D02*
X10711644Y-10417627D01*
X10711644Y-10417627D02*
X10721168Y-10389055D01*
X10721168Y-10389055D02*
X10730691Y-10370008D01*
X10730691Y-10370008D02*
X10749739Y-10341436D01*
X10749739Y-10341436D02*
X10759263Y-10331912D01*
X10940215Y-10560484D02*
X10825930Y-10560484D01*
X10883072Y-10560484D02*
X10883072Y-10360484D01*
X10883072Y-10360484D02*
X10864025Y-10389055D01*
X10864025Y-10389055D02*
X10844977Y-10408103D01*
X10844977Y-10408103D02*
X10825930Y-10417627D01*
X11111644Y-10360484D02*
X11073549Y-10360484D01*
X11073549Y-10360484D02*
X11054501Y-10370008D01*
X11054501Y-10370008D02*
X11044977Y-10379531D01*
X11044977Y-10379531D02*
X11025930Y-10408103D01*
X11025930Y-10408103D02*
X11016406Y-10446198D01*
X11016406Y-10446198D02*
X11016406Y-10522389D01*
X11016406Y-10522389D02*
X11025930Y-10541436D01*
X11025930Y-10541436D02*
X11035453Y-10550960D01*
X11035453Y-10550960D02*
X11054501Y-10560484D01*
X11054501Y-10560484D02*
X11092596Y-10560484D01*
X11092596Y-10560484D02*
X11111644Y-10550960D01*
X11111644Y-10550960D02*
X11121168Y-10541436D01*
X11121168Y-10541436D02*
X11130691Y-10522389D01*
X11130691Y-10522389D02*
X11130691Y-10474770D01*
X11130691Y-10474770D02*
X11121168Y-10455722D01*
X11121168Y-10455722D02*
X11111644Y-10446198D01*
X11111644Y-10446198D02*
X11092596Y-10436674D01*
X11092596Y-10436674D02*
X11054501Y-10436674D01*
X11054501Y-10436674D02*
X11035453Y-10446198D01*
X11035453Y-10446198D02*
X11025930Y-10455722D01*
X11025930Y-10455722D02*
X11016406Y-10474770D01*
X11368787Y-10560484D02*
X11368787Y-10360484D01*
X11454501Y-10560484D02*
X11454501Y-10455722D01*
X11454501Y-10455722D02*
X11444977Y-10436674D01*
X11444977Y-10436674D02*
X11425930Y-10427150D01*
X11425930Y-10427150D02*
X11397358Y-10427150D01*
X11397358Y-10427150D02*
X11378310Y-10436674D01*
X11378310Y-10436674D02*
X11368787Y-10446198D01*
X11578310Y-10560484D02*
X11559263Y-10550960D01*
X11559263Y-10550960D02*
X11549739Y-10541436D01*
X11549739Y-10541436D02*
X11540215Y-10522389D01*
X11540215Y-10522389D02*
X11540215Y-10465246D01*
X11540215Y-10465246D02*
X11549739Y-10446198D01*
X11549739Y-10446198D02*
X11559263Y-10436674D01*
X11559263Y-10436674D02*
X11578310Y-10427150D01*
X11578310Y-10427150D02*
X11606882Y-10427150D01*
X11606882Y-10427150D02*
X11625930Y-10436674D01*
X11625930Y-10436674D02*
X11635453Y-10446198D01*
X11635453Y-10446198D02*
X11644977Y-10465246D01*
X11644977Y-10465246D02*
X11644977Y-10522389D01*
X11644977Y-10522389D02*
X11635453Y-10541436D01*
X11635453Y-10541436D02*
X11625930Y-10550960D01*
X11625930Y-10550960D02*
X11606882Y-10560484D01*
X11606882Y-10560484D02*
X11578310Y-10560484D01*
X11759263Y-10560484D02*
X11740215Y-10550960D01*
X11740215Y-10550960D02*
X11730691Y-10531912D01*
X11730691Y-10531912D02*
X11730691Y-10360484D01*
X11911644Y-10550960D02*
X11892596Y-10560484D01*
X11892596Y-10560484D02*
X11854501Y-10560484D01*
X11854501Y-10560484D02*
X11835453Y-10550960D01*
X11835453Y-10550960D02*
X11825930Y-10531912D01*
X11825930Y-10531912D02*
X11825930Y-10455722D01*
X11825930Y-10455722D02*
X11835453Y-10436674D01*
X11835453Y-10436674D02*
X11854501Y-10427150D01*
X11854501Y-10427150D02*
X11892596Y-10427150D01*
X11892596Y-10427150D02*
X11911644Y-10436674D01*
X11911644Y-10436674D02*
X11921168Y-10455722D01*
X11921168Y-10455722D02*
X11921168Y-10474770D01*
X11921168Y-10474770D02*
X11825930Y-10493817D01*
X11997358Y-10550960D02*
X12016406Y-10560484D01*
X12016406Y-10560484D02*
X12054501Y-10560484D01*
X12054501Y-10560484D02*
X12073549Y-10550960D01*
X12073549Y-10550960D02*
X12083072Y-10531912D01*
X12083072Y-10531912D02*
X12083072Y-10522389D01*
X12083072Y-10522389D02*
X12073549Y-10503341D01*
X12073549Y-10503341D02*
X12054501Y-10493817D01*
X12054501Y-10493817D02*
X12025930Y-10493817D01*
X12025930Y-10493817D02*
X12006882Y-10484293D01*
X12006882Y-10484293D02*
X11997358Y-10465246D01*
X11997358Y-10465246D02*
X11997358Y-10455722D01*
X11997358Y-10455722D02*
X12006882Y-10436674D01*
X12006882Y-10436674D02*
X12025930Y-10427150D01*
X12025930Y-10427150D02*
X12054501Y-10427150D01*
X12054501Y-10427150D02*
X12073549Y-10436674D01*
X12149739Y-10636674D02*
X12159263Y-10627150D01*
X12159263Y-10627150D02*
X12178311Y-10598579D01*
X12178311Y-10598579D02*
X12187834Y-10579531D01*
X12187834Y-10579531D02*
X12197358Y-10550960D01*
X12197358Y-10550960D02*
X12206882Y-10503341D01*
X12206882Y-10503341D02*
X12206882Y-10465246D01*
X12206882Y-10465246D02*
X12197358Y-10417627D01*
X12197358Y-10417627D02*
X12187834Y-10389055D01*
X12187834Y-10389055D02*
X12178311Y-10370008D01*
X12178311Y-10370008D02*
X12159263Y-10341436D01*
X12159263Y-10341436D02*
X12149739Y-10331912D01*
D10*
X7134200Y-10683000D02*
X7134200Y-10783000D01*
X7084200Y-10733000D02*
X7184200Y-10733000D01*
D11*
X7549739Y-10824484D02*
X7435453Y-10824484D01*
X7492596Y-10824484D02*
X7492596Y-10624484D01*
X7492596Y-10624484D02*
X7473548Y-10653055D01*
X7473548Y-10653055D02*
X7454501Y-10672103D01*
X7454501Y-10672103D02*
X7435453Y-10681627D01*
X7635453Y-10805436D02*
X7644977Y-10814960D01*
X7644977Y-10814960D02*
X7635453Y-10824484D01*
X7635453Y-10824484D02*
X7625929Y-10814960D01*
X7625929Y-10814960D02*
X7635453Y-10805436D01*
X7635453Y-10805436D02*
X7635453Y-10824484D01*
X7768786Y-10624484D02*
X7787834Y-10624484D01*
X7787834Y-10624484D02*
X7806882Y-10634008D01*
X7806882Y-10634008D02*
X7816405Y-10643531D01*
X7816405Y-10643531D02*
X7825929Y-10662579D01*
X7825929Y-10662579D02*
X7835453Y-10700674D01*
X7835453Y-10700674D02*
X7835453Y-10748293D01*
X7835453Y-10748293D02*
X7825929Y-10786389D01*
X7825929Y-10786389D02*
X7816405Y-10805436D01*
X7816405Y-10805436D02*
X7806882Y-10814960D01*
X7806882Y-10814960D02*
X7787834Y-10824484D01*
X7787834Y-10824484D02*
X7768786Y-10824484D01*
X7768786Y-10824484D02*
X7749739Y-10814960D01*
X7749739Y-10814960D02*
X7740215Y-10805436D01*
X7740215Y-10805436D02*
X7730691Y-10786389D01*
X7730691Y-10786389D02*
X7721167Y-10748293D01*
X7721167Y-10748293D02*
X7721167Y-10700674D01*
X7721167Y-10700674D02*
X7730691Y-10662579D01*
X7730691Y-10662579D02*
X7740215Y-10643531D01*
X7740215Y-10643531D02*
X7749739Y-10634008D01*
X7749739Y-10634008D02*
X7768786Y-10624484D01*
X7959262Y-10624484D02*
X7978310Y-10624484D01*
X7978310Y-10624484D02*
X7997358Y-10634008D01*
X7997358Y-10634008D02*
X8006882Y-10643531D01*
X8006882Y-10643531D02*
X8016405Y-10662579D01*
X8016405Y-10662579D02*
X8025929Y-10700674D01*
X8025929Y-10700674D02*
X8025929Y-10748293D01*
X8025929Y-10748293D02*
X8016405Y-10786389D01*
X8016405Y-10786389D02*
X8006882Y-10805436D01*
X8006882Y-10805436D02*
X7997358Y-10814960D01*
X7997358Y-10814960D02*
X7978310Y-10824484D01*
X7978310Y-10824484D02*
X7959262Y-10824484D01*
X7959262Y-10824484D02*
X7940215Y-10814960D01*
X7940215Y-10814960D02*
X7930691Y-10805436D01*
X7930691Y-10805436D02*
X7921167Y-10786389D01*
X7921167Y-10786389D02*
X7911643Y-10748293D01*
X7911643Y-10748293D02*
X7911643Y-10700674D01*
X7911643Y-10700674D02*
X7921167Y-10662579D01*
X7921167Y-10662579D02*
X7930691Y-10643531D01*
X7930691Y-10643531D02*
X7940215Y-10634008D01*
X7940215Y-10634008D02*
X7959262Y-10624484D01*
X8149739Y-10624484D02*
X8168786Y-10624484D01*
X8168786Y-10624484D02*
X8187834Y-10634008D01*
X8187834Y-10634008D02*
X8197358Y-10643531D01*
X8197358Y-10643531D02*
X8206882Y-10662579D01*
X8206882Y-10662579D02*
X8216405Y-10700674D01*
X8216405Y-10700674D02*
X8216405Y-10748293D01*
X8216405Y-10748293D02*
X8206882Y-10786389D01*
X8206882Y-10786389D02*
X8197358Y-10805436D01*
X8197358Y-10805436D02*
X8187834Y-10814960D01*
X8187834Y-10814960D02*
X8168786Y-10824484D01*
X8168786Y-10824484D02*
X8149739Y-10824484D01*
X8149739Y-10824484D02*
X8130691Y-10814960D01*
X8130691Y-10814960D02*
X8121167Y-10805436D01*
X8121167Y-10805436D02*
X8111643Y-10786389D01*
X8111643Y-10786389D02*
X8102120Y-10748293D01*
X8102120Y-10748293D02*
X8102120Y-10700674D01*
X8102120Y-10700674D02*
X8111643Y-10662579D01*
X8111643Y-10662579D02*
X8121167Y-10643531D01*
X8121167Y-10643531D02*
X8130691Y-10634008D01*
X8130691Y-10634008D02*
X8149739Y-10624484D01*
X8302120Y-10824484D02*
X8302120Y-10691150D01*
X8302120Y-10710198D02*
X8311643Y-10700674D01*
X8311643Y-10700674D02*
X8330691Y-10691150D01*
X8330691Y-10691150D02*
X8359263Y-10691150D01*
X8359263Y-10691150D02*
X8378310Y-10700674D01*
X8378310Y-10700674D02*
X8387834Y-10719722D01*
X8387834Y-10719722D02*
X8387834Y-10824484D01*
X8387834Y-10719722D02*
X8397358Y-10700674D01*
X8397358Y-10700674D02*
X8416405Y-10691150D01*
X8416405Y-10691150D02*
X8444977Y-10691150D01*
X8444977Y-10691150D02*
X8464025Y-10700674D01*
X8464025Y-10700674D02*
X8473548Y-10719722D01*
X8473548Y-10719722D02*
X8473548Y-10824484D01*
X8568786Y-10824484D02*
X8568786Y-10691150D01*
X8568786Y-10710198D02*
X8578310Y-10700674D01*
X8578310Y-10700674D02*
X8597358Y-10691150D01*
X8597358Y-10691150D02*
X8625929Y-10691150D01*
X8625929Y-10691150D02*
X8644977Y-10700674D01*
X8644977Y-10700674D02*
X8654501Y-10719722D01*
X8654501Y-10719722D02*
X8654501Y-10824484D01*
X8654501Y-10719722D02*
X8664025Y-10700674D01*
X8664025Y-10700674D02*
X8683072Y-10691150D01*
X8683072Y-10691150D02*
X8711644Y-10691150D01*
X8711644Y-10691150D02*
X8730691Y-10700674D01*
X8730691Y-10700674D02*
X8740215Y-10719722D01*
X8740215Y-10719722D02*
X8740215Y-10824484D01*
X9130691Y-10614960D02*
X8959263Y-10872103D01*
X9387834Y-10624484D02*
X9406882Y-10624484D01*
X9406882Y-10624484D02*
X9425929Y-10634008D01*
X9425929Y-10634008D02*
X9435453Y-10643531D01*
X9435453Y-10643531D02*
X9444977Y-10662579D01*
X9444977Y-10662579D02*
X9454501Y-10700674D01*
X9454501Y-10700674D02*
X9454501Y-10748293D01*
X9454501Y-10748293D02*
X9444977Y-10786389D01*
X9444977Y-10786389D02*
X9435453Y-10805436D01*
X9435453Y-10805436D02*
X9425929Y-10814960D01*
X9425929Y-10814960D02*
X9406882Y-10824484D01*
X9406882Y-10824484D02*
X9387834Y-10824484D01*
X9387834Y-10824484D02*
X9368787Y-10814960D01*
X9368787Y-10814960D02*
X9359263Y-10805436D01*
X9359263Y-10805436D02*
X9349739Y-10786389D01*
X9349739Y-10786389D02*
X9340215Y-10748293D01*
X9340215Y-10748293D02*
X9340215Y-10700674D01*
X9340215Y-10700674D02*
X9349739Y-10662579D01*
X9349739Y-10662579D02*
X9359263Y-10643531D01*
X9359263Y-10643531D02*
X9368787Y-10634008D01*
X9368787Y-10634008D02*
X9387834Y-10624484D01*
X9540215Y-10805436D02*
X9549739Y-10814960D01*
X9549739Y-10814960D02*
X9540215Y-10824484D01*
X9540215Y-10824484D02*
X9530691Y-10814960D01*
X9530691Y-10814960D02*
X9540215Y-10805436D01*
X9540215Y-10805436D02*
X9540215Y-10824484D01*
X9673548Y-10624484D02*
X9692596Y-10624484D01*
X9692596Y-10624484D02*
X9711644Y-10634008D01*
X9711644Y-10634008D02*
X9721168Y-10643531D01*
X9721168Y-10643531D02*
X9730691Y-10662579D01*
X9730691Y-10662579D02*
X9740215Y-10700674D01*
X9740215Y-10700674D02*
X9740215Y-10748293D01*
X9740215Y-10748293D02*
X9730691Y-10786389D01*
X9730691Y-10786389D02*
X9721168Y-10805436D01*
X9721168Y-10805436D02*
X9711644Y-10814960D01*
X9711644Y-10814960D02*
X9692596Y-10824484D01*
X9692596Y-10824484D02*
X9673548Y-10824484D01*
X9673548Y-10824484D02*
X9654501Y-10814960D01*
X9654501Y-10814960D02*
X9644977Y-10805436D01*
X9644977Y-10805436D02*
X9635453Y-10786389D01*
X9635453Y-10786389D02*
X9625929Y-10748293D01*
X9625929Y-10748293D02*
X9625929Y-10700674D01*
X9625929Y-10700674D02*
X9635453Y-10662579D01*
X9635453Y-10662579D02*
X9644977Y-10643531D01*
X9644977Y-10643531D02*
X9654501Y-10634008D01*
X9654501Y-10634008D02*
X9673548Y-10624484D01*
X9806882Y-10624484D02*
X9930691Y-10624484D01*
X9930691Y-10624484D02*
X9864025Y-10700674D01*
X9864025Y-10700674D02*
X9892596Y-10700674D01*
X9892596Y-10700674D02*
X9911644Y-10710198D01*
X9911644Y-10710198D02*
X9921168Y-10719722D01*
X9921168Y-10719722D02*
X9930691Y-10738770D01*
X9930691Y-10738770D02*
X9930691Y-10786389D01*
X9930691Y-10786389D02*
X9921168Y-10805436D01*
X9921168Y-10805436D02*
X9911644Y-10814960D01*
X9911644Y-10814960D02*
X9892596Y-10824484D01*
X9892596Y-10824484D02*
X9835453Y-10824484D01*
X9835453Y-10824484D02*
X9816406Y-10814960D01*
X9816406Y-10814960D02*
X9806882Y-10805436D01*
X10025929Y-10824484D02*
X10064025Y-10824484D01*
X10064025Y-10824484D02*
X10083072Y-10814960D01*
X10083072Y-10814960D02*
X10092596Y-10805436D01*
X10092596Y-10805436D02*
X10111644Y-10776865D01*
X10111644Y-10776865D02*
X10121168Y-10738770D01*
X10121168Y-10738770D02*
X10121168Y-10662579D01*
X10121168Y-10662579D02*
X10111644Y-10643531D01*
X10111644Y-10643531D02*
X10102120Y-10634008D01*
X10102120Y-10634008D02*
X10083072Y-10624484D01*
X10083072Y-10624484D02*
X10044977Y-10624484D01*
X10044977Y-10624484D02*
X10025929Y-10634008D01*
X10025929Y-10634008D02*
X10016406Y-10643531D01*
X10016406Y-10643531D02*
X10006882Y-10662579D01*
X10006882Y-10662579D02*
X10006882Y-10710198D01*
X10006882Y-10710198D02*
X10016406Y-10729246D01*
X10016406Y-10729246D02*
X10025929Y-10738770D01*
X10025929Y-10738770D02*
X10044977Y-10748293D01*
X10044977Y-10748293D02*
X10083072Y-10748293D01*
X10083072Y-10748293D02*
X10102120Y-10738770D01*
X10102120Y-10738770D02*
X10111644Y-10729246D01*
X10111644Y-10729246D02*
X10121168Y-10710198D01*
X10292596Y-10691150D02*
X10292596Y-10824484D01*
X10244977Y-10614960D02*
X10197358Y-10757817D01*
X10197358Y-10757817D02*
X10321168Y-10757817D01*
X10387834Y-10624484D02*
X10387834Y-10662579D01*
X10464025Y-10624484D02*
X10464025Y-10662579D01*
X10759263Y-10900674D02*
X10749739Y-10891150D01*
X10749739Y-10891150D02*
X10730691Y-10862579D01*
X10730691Y-10862579D02*
X10721168Y-10843531D01*
X10721168Y-10843531D02*
X10711644Y-10814960D01*
X10711644Y-10814960D02*
X10702120Y-10767341D01*
X10702120Y-10767341D02*
X10702120Y-10729246D01*
X10702120Y-10729246D02*
X10711644Y-10681627D01*
X10711644Y-10681627D02*
X10721168Y-10653055D01*
X10721168Y-10653055D02*
X10730691Y-10634008D01*
X10730691Y-10634008D02*
X10749739Y-10605436D01*
X10749739Y-10605436D02*
X10759263Y-10595912D01*
X10940215Y-10824484D02*
X10825930Y-10824484D01*
X10883072Y-10824484D02*
X10883072Y-10624484D01*
X10883072Y-10624484D02*
X10864025Y-10653055D01*
X10864025Y-10653055D02*
X10844977Y-10672103D01*
X10844977Y-10672103D02*
X10825930Y-10681627D01*
X11064025Y-10624484D02*
X11083072Y-10624484D01*
X11083072Y-10624484D02*
X11102120Y-10634008D01*
X11102120Y-10634008D02*
X11111644Y-10643531D01*
X11111644Y-10643531D02*
X11121168Y-10662579D01*
X11121168Y-10662579D02*
X11130691Y-10700674D01*
X11130691Y-10700674D02*
X11130691Y-10748293D01*
X11130691Y-10748293D02*
X11121168Y-10786389D01*
X11121168Y-10786389D02*
X11111644Y-10805436D01*
X11111644Y-10805436D02*
X11102120Y-10814960D01*
X11102120Y-10814960D02*
X11083072Y-10824484D01*
X11083072Y-10824484D02*
X11064025Y-10824484D01*
X11064025Y-10824484D02*
X11044977Y-10814960D01*
X11044977Y-10814960D02*
X11035453Y-10805436D01*
X11035453Y-10805436D02*
X11025930Y-10786389D01*
X11025930Y-10786389D02*
X11016406Y-10748293D01*
X11016406Y-10748293D02*
X11016406Y-10700674D01*
X11016406Y-10700674D02*
X11025930Y-10662579D01*
X11025930Y-10662579D02*
X11035453Y-10643531D01*
X11035453Y-10643531D02*
X11044977Y-10634008D01*
X11044977Y-10634008D02*
X11064025Y-10624484D01*
X11311644Y-10624484D02*
X11216406Y-10624484D01*
X11216406Y-10624484D02*
X11206882Y-10719722D01*
X11206882Y-10719722D02*
X11216406Y-10710198D01*
X11216406Y-10710198D02*
X11235453Y-10700674D01*
X11235453Y-10700674D02*
X11283072Y-10700674D01*
X11283072Y-10700674D02*
X11302120Y-10710198D01*
X11302120Y-10710198D02*
X11311644Y-10719722D01*
X11311644Y-10719722D02*
X11321168Y-10738770D01*
X11321168Y-10738770D02*
X11321168Y-10786389D01*
X11321168Y-10786389D02*
X11311644Y-10805436D01*
X11311644Y-10805436D02*
X11302120Y-10814960D01*
X11302120Y-10814960D02*
X11283072Y-10824484D01*
X11283072Y-10824484D02*
X11235453Y-10824484D01*
X11235453Y-10824484D02*
X11216406Y-10814960D01*
X11216406Y-10814960D02*
X11206882Y-10805436D01*
X11559263Y-10824484D02*
X11559263Y-10624484D01*
X11644977Y-10824484D02*
X11644977Y-10719722D01*
X11644977Y-10719722D02*
X11635453Y-10700674D01*
X11635453Y-10700674D02*
X11616406Y-10691150D01*
X11616406Y-10691150D02*
X11587834Y-10691150D01*
X11587834Y-10691150D02*
X11568787Y-10700674D01*
X11568787Y-10700674D02*
X11559263Y-10710198D01*
X11768787Y-10824484D02*
X11749739Y-10814960D01*
X11749739Y-10814960D02*
X11740215Y-10805436D01*
X11740215Y-10805436D02*
X11730691Y-10786389D01*
X11730691Y-10786389D02*
X11730691Y-10729246D01*
X11730691Y-10729246D02*
X11740215Y-10710198D01*
X11740215Y-10710198D02*
X11749739Y-10700674D01*
X11749739Y-10700674D02*
X11768787Y-10691150D01*
X11768787Y-10691150D02*
X11797358Y-10691150D01*
X11797358Y-10691150D02*
X11816406Y-10700674D01*
X11816406Y-10700674D02*
X11825930Y-10710198D01*
X11825930Y-10710198D02*
X11835453Y-10729246D01*
X11835453Y-10729246D02*
X11835453Y-10786389D01*
X11835453Y-10786389D02*
X11825930Y-10805436D01*
X11825930Y-10805436D02*
X11816406Y-10814960D01*
X11816406Y-10814960D02*
X11797358Y-10824484D01*
X11797358Y-10824484D02*
X11768787Y-10824484D01*
X11949739Y-10824484D02*
X11930691Y-10814960D01*
X11930691Y-10814960D02*
X11921168Y-10795912D01*
X11921168Y-10795912D02*
X11921168Y-10624484D01*
X12102120Y-10814960D02*
X12083072Y-10824484D01*
X12083072Y-10824484D02*
X12044977Y-10824484D01*
X12044977Y-10824484D02*
X12025930Y-10814960D01*
X12025930Y-10814960D02*
X12016406Y-10795912D01*
X12016406Y-10795912D02*
X12016406Y-10719722D01*
X12016406Y-10719722D02*
X12025930Y-10700674D01*
X12025930Y-10700674D02*
X12044977Y-10691150D01*
X12044977Y-10691150D02*
X12083072Y-10691150D01*
X12083072Y-10691150D02*
X12102120Y-10700674D01*
X12102120Y-10700674D02*
X12111644Y-10719722D01*
X12111644Y-10719722D02*
X12111644Y-10738770D01*
X12111644Y-10738770D02*
X12016406Y-10757817D01*
X12187834Y-10814960D02*
X12206882Y-10824484D01*
X12206882Y-10824484D02*
X12244977Y-10824484D01*
X12244977Y-10824484D02*
X12264025Y-10814960D01*
X12264025Y-10814960D02*
X12273549Y-10795912D01*
X12273549Y-10795912D02*
X12273549Y-10786389D01*
X12273549Y-10786389D02*
X12264025Y-10767341D01*
X12264025Y-10767341D02*
X12244977Y-10757817D01*
X12244977Y-10757817D02*
X12216406Y-10757817D01*
X12216406Y-10757817D02*
X12197358Y-10748293D01*
X12197358Y-10748293D02*
X12187834Y-10729246D01*
X12187834Y-10729246D02*
X12187834Y-10719722D01*
X12187834Y-10719722D02*
X12197358Y-10700674D01*
X12197358Y-10700674D02*
X12216406Y-10691150D01*
X12216406Y-10691150D02*
X12244977Y-10691150D01*
X12244977Y-10691150D02*
X12264025Y-10700674D01*
X12340215Y-10900674D02*
X12349739Y-10891150D01*
X12349739Y-10891150D02*
X12368787Y-10862579D01*
X12368787Y-10862579D02*
X12378311Y-10843531D01*
X12378311Y-10843531D02*
X12387834Y-10814960D01*
X12387834Y-10814960D02*
X12397358Y-10767341D01*
X12397358Y-10767341D02*
X12397358Y-10729246D01*
X12397358Y-10729246D02*
X12387834Y-10681627D01*
X12387834Y-10681627D02*
X12378311Y-10653055D01*
X12378311Y-10653055D02*
X12368787Y-10634008D01*
X12368787Y-10634008D02*
X12349739Y-10605436D01*
X12349739Y-10605436D02*
X12340215Y-10595912D01*
D12*
X7163698Y-11046498D02*
X7163698Y-10947502D01*
X7064702Y-10947502D01*
X7064702Y-11046498D01*
X7163698Y-11046498D01*
D11*
X7549739Y-11088484D02*
X7435453Y-11088484D01*
X7492596Y-11088484D02*
X7492596Y-10888484D01*
X7492596Y-10888484D02*
X7473548Y-10917055D01*
X7473548Y-10917055D02*
X7454501Y-10936103D01*
X7454501Y-10936103D02*
X7435453Y-10945627D01*
X7635453Y-11069436D02*
X7644977Y-11078960D01*
X7644977Y-11078960D02*
X7635453Y-11088484D01*
X7635453Y-11088484D02*
X7625929Y-11078960D01*
X7625929Y-11078960D02*
X7635453Y-11069436D01*
X7635453Y-11069436D02*
X7635453Y-11088484D01*
X7816405Y-10955150D02*
X7816405Y-11088484D01*
X7768786Y-10878960D02*
X7721167Y-11021817D01*
X7721167Y-11021817D02*
X7844977Y-11021817D01*
X7959262Y-10888484D02*
X7978310Y-10888484D01*
X7978310Y-10888484D02*
X7997358Y-10898008D01*
X7997358Y-10898008D02*
X8006882Y-10907531D01*
X8006882Y-10907531D02*
X8016405Y-10926579D01*
X8016405Y-10926579D02*
X8025929Y-10964674D01*
X8025929Y-10964674D02*
X8025929Y-11012293D01*
X8025929Y-11012293D02*
X8016405Y-11050389D01*
X8016405Y-11050389D02*
X8006882Y-11069436D01*
X8006882Y-11069436D02*
X7997358Y-11078960D01*
X7997358Y-11078960D02*
X7978310Y-11088484D01*
X7978310Y-11088484D02*
X7959262Y-11088484D01*
X7959262Y-11088484D02*
X7940215Y-11078960D01*
X7940215Y-11078960D02*
X7930691Y-11069436D01*
X7930691Y-11069436D02*
X7921167Y-11050389D01*
X7921167Y-11050389D02*
X7911643Y-11012293D01*
X7911643Y-11012293D02*
X7911643Y-10964674D01*
X7911643Y-10964674D02*
X7921167Y-10926579D01*
X7921167Y-10926579D02*
X7930691Y-10907531D01*
X7930691Y-10907531D02*
X7940215Y-10898008D01*
X7940215Y-10898008D02*
X7959262Y-10888484D01*
X8149739Y-10888484D02*
X8168786Y-10888484D01*
X8168786Y-10888484D02*
X8187834Y-10898008D01*
X8187834Y-10898008D02*
X8197358Y-10907531D01*
X8197358Y-10907531D02*
X8206882Y-10926579D01*
X8206882Y-10926579D02*
X8216405Y-10964674D01*
X8216405Y-10964674D02*
X8216405Y-11012293D01*
X8216405Y-11012293D02*
X8206882Y-11050389D01*
X8206882Y-11050389D02*
X8197358Y-11069436D01*
X8197358Y-11069436D02*
X8187834Y-11078960D01*
X8187834Y-11078960D02*
X8168786Y-11088484D01*
X8168786Y-11088484D02*
X8149739Y-11088484D01*
X8149739Y-11088484D02*
X8130691Y-11078960D01*
X8130691Y-11078960D02*
X8121167Y-11069436D01*
X8121167Y-11069436D02*
X8111643Y-11050389D01*
X8111643Y-11050389D02*
X8102120Y-11012293D01*
X8102120Y-11012293D02*
X8102120Y-10964674D01*
X8102120Y-10964674D02*
X8111643Y-10926579D01*
X8111643Y-10926579D02*
X8121167Y-10907531D01*
X8121167Y-10907531D02*
X8130691Y-10898008D01*
X8130691Y-10898008D02*
X8149739Y-10888484D01*
X8302120Y-11088484D02*
X8302120Y-10955150D01*
X8302120Y-10974198D02*
X8311643Y-10964674D01*
X8311643Y-10964674D02*
X8330691Y-10955150D01*
X8330691Y-10955150D02*
X8359263Y-10955150D01*
X8359263Y-10955150D02*
X8378310Y-10964674D01*
X8378310Y-10964674D02*
X8387834Y-10983722D01*
X8387834Y-10983722D02*
X8387834Y-11088484D01*
X8387834Y-10983722D02*
X8397358Y-10964674D01*
X8397358Y-10964674D02*
X8416405Y-10955150D01*
X8416405Y-10955150D02*
X8444977Y-10955150D01*
X8444977Y-10955150D02*
X8464025Y-10964674D01*
X8464025Y-10964674D02*
X8473548Y-10983722D01*
X8473548Y-10983722D02*
X8473548Y-11088484D01*
X8568786Y-11088484D02*
X8568786Y-10955150D01*
X8568786Y-10974198D02*
X8578310Y-10964674D01*
X8578310Y-10964674D02*
X8597358Y-10955150D01*
X8597358Y-10955150D02*
X8625929Y-10955150D01*
X8625929Y-10955150D02*
X8644977Y-10964674D01*
X8644977Y-10964674D02*
X8654501Y-10983722D01*
X8654501Y-10983722D02*
X8654501Y-11088484D01*
X8654501Y-10983722D02*
X8664025Y-10964674D01*
X8664025Y-10964674D02*
X8683072Y-10955150D01*
X8683072Y-10955150D02*
X8711644Y-10955150D01*
X8711644Y-10955150D02*
X8730691Y-10964674D01*
X8730691Y-10964674D02*
X8740215Y-10983722D01*
X8740215Y-10983722D02*
X8740215Y-11088484D01*
X9130691Y-10878960D02*
X8959263Y-11136103D01*
X9387834Y-10888484D02*
X9406882Y-10888484D01*
X9406882Y-10888484D02*
X9425929Y-10898008D01*
X9425929Y-10898008D02*
X9435453Y-10907531D01*
X9435453Y-10907531D02*
X9444977Y-10926579D01*
X9444977Y-10926579D02*
X9454501Y-10964674D01*
X9454501Y-10964674D02*
X9454501Y-11012293D01*
X9454501Y-11012293D02*
X9444977Y-11050389D01*
X9444977Y-11050389D02*
X9435453Y-11069436D01*
X9435453Y-11069436D02*
X9425929Y-11078960D01*
X9425929Y-11078960D02*
X9406882Y-11088484D01*
X9406882Y-11088484D02*
X9387834Y-11088484D01*
X9387834Y-11088484D02*
X9368787Y-11078960D01*
X9368787Y-11078960D02*
X9359263Y-11069436D01*
X9359263Y-11069436D02*
X9349739Y-11050389D01*
X9349739Y-11050389D02*
X9340215Y-11012293D01*
X9340215Y-11012293D02*
X9340215Y-10964674D01*
X9340215Y-10964674D02*
X9349739Y-10926579D01*
X9349739Y-10926579D02*
X9359263Y-10907531D01*
X9359263Y-10907531D02*
X9368787Y-10898008D01*
X9368787Y-10898008D02*
X9387834Y-10888484D01*
X9540215Y-11069436D02*
X9549739Y-11078960D01*
X9549739Y-11078960D02*
X9540215Y-11088484D01*
X9540215Y-11088484D02*
X9530691Y-11078960D01*
X9530691Y-11078960D02*
X9540215Y-11069436D01*
X9540215Y-11069436D02*
X9540215Y-11088484D01*
X9673548Y-10888484D02*
X9692596Y-10888484D01*
X9692596Y-10888484D02*
X9711644Y-10898008D01*
X9711644Y-10898008D02*
X9721168Y-10907531D01*
X9721168Y-10907531D02*
X9730691Y-10926579D01*
X9730691Y-10926579D02*
X9740215Y-10964674D01*
X9740215Y-10964674D02*
X9740215Y-11012293D01*
X9740215Y-11012293D02*
X9730691Y-11050389D01*
X9730691Y-11050389D02*
X9721168Y-11069436D01*
X9721168Y-11069436D02*
X9711644Y-11078960D01*
X9711644Y-11078960D02*
X9692596Y-11088484D01*
X9692596Y-11088484D02*
X9673548Y-11088484D01*
X9673548Y-11088484D02*
X9654501Y-11078960D01*
X9654501Y-11078960D02*
X9644977Y-11069436D01*
X9644977Y-11069436D02*
X9635453Y-11050389D01*
X9635453Y-11050389D02*
X9625929Y-11012293D01*
X9625929Y-11012293D02*
X9625929Y-10964674D01*
X9625929Y-10964674D02*
X9635453Y-10926579D01*
X9635453Y-10926579D02*
X9644977Y-10907531D01*
X9644977Y-10907531D02*
X9654501Y-10898008D01*
X9654501Y-10898008D02*
X9673548Y-10888484D01*
X9921168Y-10888484D02*
X9825929Y-10888484D01*
X9825929Y-10888484D02*
X9816406Y-10983722D01*
X9816406Y-10983722D02*
X9825929Y-10974198D01*
X9825929Y-10974198D02*
X9844977Y-10964674D01*
X9844977Y-10964674D02*
X9892596Y-10964674D01*
X9892596Y-10964674D02*
X9911644Y-10974198D01*
X9911644Y-10974198D02*
X9921168Y-10983722D01*
X9921168Y-10983722D02*
X9930691Y-11002770D01*
X9930691Y-11002770D02*
X9930691Y-11050389D01*
X9930691Y-11050389D02*
X9921168Y-11069436D01*
X9921168Y-11069436D02*
X9911644Y-11078960D01*
X9911644Y-11078960D02*
X9892596Y-11088484D01*
X9892596Y-11088484D02*
X9844977Y-11088484D01*
X9844977Y-11088484D02*
X9825929Y-11078960D01*
X9825929Y-11078960D02*
X9816406Y-11069436D01*
X10111644Y-10888484D02*
X10016406Y-10888484D01*
X10016406Y-10888484D02*
X10006882Y-10983722D01*
X10006882Y-10983722D02*
X10016406Y-10974198D01*
X10016406Y-10974198D02*
X10035453Y-10964674D01*
X10035453Y-10964674D02*
X10083072Y-10964674D01*
X10083072Y-10964674D02*
X10102120Y-10974198D01*
X10102120Y-10974198D02*
X10111644Y-10983722D01*
X10111644Y-10983722D02*
X10121168Y-11002770D01*
X10121168Y-11002770D02*
X10121168Y-11050389D01*
X10121168Y-11050389D02*
X10111644Y-11069436D01*
X10111644Y-11069436D02*
X10102120Y-11078960D01*
X10102120Y-11078960D02*
X10083072Y-11088484D01*
X10083072Y-11088484D02*
X10035453Y-11088484D01*
X10035453Y-11088484D02*
X10016406Y-11078960D01*
X10016406Y-11078960D02*
X10006882Y-11069436D01*
X10311644Y-11088484D02*
X10197358Y-11088484D01*
X10254501Y-11088484D02*
X10254501Y-10888484D01*
X10254501Y-10888484D02*
X10235453Y-10917055D01*
X10235453Y-10917055D02*
X10216406Y-10936103D01*
X10216406Y-10936103D02*
X10197358Y-10945627D01*
X10387834Y-10888484D02*
X10387834Y-10926579D01*
X10464025Y-10888484D02*
X10464025Y-10926579D01*
X10759263Y-11164674D02*
X10749739Y-11155150D01*
X10749739Y-11155150D02*
X10730691Y-11126579D01*
X10730691Y-11126579D02*
X10721168Y-11107531D01*
X10721168Y-11107531D02*
X10711644Y-11078960D01*
X10711644Y-11078960D02*
X10702120Y-11031341D01*
X10702120Y-11031341D02*
X10702120Y-10993246D01*
X10702120Y-10993246D02*
X10711644Y-10945627D01*
X10711644Y-10945627D02*
X10721168Y-10917055D01*
X10721168Y-10917055D02*
X10730691Y-10898008D01*
X10730691Y-10898008D02*
X10749739Y-10869436D01*
X10749739Y-10869436D02*
X10759263Y-10859912D01*
X10940215Y-11088484D02*
X10825930Y-11088484D01*
X10883072Y-11088484D02*
X10883072Y-10888484D01*
X10883072Y-10888484D02*
X10864025Y-10917055D01*
X10864025Y-10917055D02*
X10844977Y-10936103D01*
X10844977Y-10936103D02*
X10825930Y-10945627D01*
X11111644Y-10955150D02*
X11111644Y-11088484D01*
X11064025Y-10878960D02*
X11016406Y-11021817D01*
X11016406Y-11021817D02*
X11140215Y-11021817D01*
X11368787Y-11088484D02*
X11368787Y-10888484D01*
X11454501Y-11088484D02*
X11454501Y-10983722D01*
X11454501Y-10983722D02*
X11444977Y-10964674D01*
X11444977Y-10964674D02*
X11425930Y-10955150D01*
X11425930Y-10955150D02*
X11397358Y-10955150D01*
X11397358Y-10955150D02*
X11378310Y-10964674D01*
X11378310Y-10964674D02*
X11368787Y-10974198D01*
X11578310Y-11088484D02*
X11559263Y-11078960D01*
X11559263Y-11078960D02*
X11549739Y-11069436D01*
X11549739Y-11069436D02*
X11540215Y-11050389D01*
X11540215Y-11050389D02*
X11540215Y-10993246D01*
X11540215Y-10993246D02*
X11549739Y-10974198D01*
X11549739Y-10974198D02*
X11559263Y-10964674D01*
X11559263Y-10964674D02*
X11578310Y-10955150D01*
X11578310Y-10955150D02*
X11606882Y-10955150D01*
X11606882Y-10955150D02*
X11625930Y-10964674D01*
X11625930Y-10964674D02*
X11635453Y-10974198D01*
X11635453Y-10974198D02*
X11644977Y-10993246D01*
X11644977Y-10993246D02*
X11644977Y-11050389D01*
X11644977Y-11050389D02*
X11635453Y-11069436D01*
X11635453Y-11069436D02*
X11625930Y-11078960D01*
X11625930Y-11078960D02*
X11606882Y-11088484D01*
X11606882Y-11088484D02*
X11578310Y-11088484D01*
X11759263Y-11088484D02*
X11740215Y-11078960D01*
X11740215Y-11078960D02*
X11730691Y-11059912D01*
X11730691Y-11059912D02*
X11730691Y-10888484D01*
X11911644Y-11078960D02*
X11892596Y-11088484D01*
X11892596Y-11088484D02*
X11854501Y-11088484D01*
X11854501Y-11088484D02*
X11835453Y-11078960D01*
X11835453Y-11078960D02*
X11825930Y-11059912D01*
X11825930Y-11059912D02*
X11825930Y-10983722D01*
X11825930Y-10983722D02*
X11835453Y-10964674D01*
X11835453Y-10964674D02*
X11854501Y-10955150D01*
X11854501Y-10955150D02*
X11892596Y-10955150D01*
X11892596Y-10955150D02*
X11911644Y-10964674D01*
X11911644Y-10964674D02*
X11921168Y-10983722D01*
X11921168Y-10983722D02*
X11921168Y-11002770D01*
X11921168Y-11002770D02*
X11825930Y-11021817D01*
X11997358Y-11078960D02*
X12016406Y-11088484D01*
X12016406Y-11088484D02*
X12054501Y-11088484D01*
X12054501Y-11088484D02*
X12073549Y-11078960D01*
X12073549Y-11078960D02*
X12083072Y-11059912D01*
X12083072Y-11059912D02*
X12083072Y-11050389D01*
X12083072Y-11050389D02*
X12073549Y-11031341D01*
X12073549Y-11031341D02*
X12054501Y-11021817D01*
X12054501Y-11021817D02*
X12025930Y-11021817D01*
X12025930Y-11021817D02*
X12006882Y-11012293D01*
X12006882Y-11012293D02*
X11997358Y-10993246D01*
X11997358Y-10993246D02*
X11997358Y-10983722D01*
X11997358Y-10983722D02*
X12006882Y-10964674D01*
X12006882Y-10964674D02*
X12025930Y-10955150D01*
X12025930Y-10955150D02*
X12054501Y-10955150D01*
X12054501Y-10955150D02*
X12073549Y-10964674D01*
X12149739Y-11164674D02*
X12159263Y-11155150D01*
X12159263Y-11155150D02*
X12178311Y-11126579D01*
X12178311Y-11126579D02*
X12187834Y-11107531D01*
X12187834Y-11107531D02*
X12197358Y-11078960D01*
X12197358Y-11078960D02*
X12206882Y-11031341D01*
X12206882Y-11031341D02*
X12206882Y-10993246D01*
X12206882Y-10993246D02*
X12197358Y-10945627D01*
X12197358Y-10945627D02*
X12187834Y-10917055D01*
X12187834Y-10917055D02*
X12178311Y-10898008D01*
X12178311Y-10898008D02*
X12159263Y-10869436D01*
X12159263Y-10869436D02*
X12149739Y-10859912D01*
X7084200Y-11361000D02*
X7184200Y-11261000D01*
X7084200Y-11161000D01*
X6984200Y-11261000D01*
X7084200Y-11361000D01*
X7435453Y-11171531D02*
X7444977Y-11162008D01*
X7444977Y-11162008D02*
X7464024Y-11152484D01*
X7464024Y-11152484D02*
X7511643Y-11152484D01*
X7511643Y-11152484D02*
X7530691Y-11162008D01*
X7530691Y-11162008D02*
X7540215Y-11171531D01*
X7540215Y-11171531D02*
X7549739Y-11190579D01*
X7549739Y-11190579D02*
X7549739Y-11209627D01*
X7549739Y-11209627D02*
X7540215Y-11238198D01*
X7540215Y-11238198D02*
X7425929Y-11352484D01*
X7425929Y-11352484D02*
X7549739Y-11352484D01*
X7635453Y-11333436D02*
X7644977Y-11342960D01*
X7644977Y-11342960D02*
X7635453Y-11352484D01*
X7635453Y-11352484D02*
X7625929Y-11342960D01*
X7625929Y-11342960D02*
X7635453Y-11333436D01*
X7635453Y-11333436D02*
X7635453Y-11352484D01*
X7711643Y-11152484D02*
X7835453Y-11152484D01*
X7835453Y-11152484D02*
X7768786Y-11228674D01*
X7768786Y-11228674D02*
X7797358Y-11228674D01*
X7797358Y-11228674D02*
X7816405Y-11238198D01*
X7816405Y-11238198D02*
X7825929Y-11247722D01*
X7825929Y-11247722D02*
X7835453Y-11266769D01*
X7835453Y-11266769D02*
X7835453Y-11314388D01*
X7835453Y-11314388D02*
X7825929Y-11333436D01*
X7825929Y-11333436D02*
X7816405Y-11342960D01*
X7816405Y-11342960D02*
X7797358Y-11352484D01*
X7797358Y-11352484D02*
X7740215Y-11352484D01*
X7740215Y-11352484D02*
X7721167Y-11342960D01*
X7721167Y-11342960D02*
X7711643Y-11333436D01*
X7959262Y-11152484D02*
X7978310Y-11152484D01*
X7978310Y-11152484D02*
X7997358Y-11162008D01*
X7997358Y-11162008D02*
X8006882Y-11171531D01*
X8006882Y-11171531D02*
X8016405Y-11190579D01*
X8016405Y-11190579D02*
X8025929Y-11228674D01*
X8025929Y-11228674D02*
X8025929Y-11276293D01*
X8025929Y-11276293D02*
X8016405Y-11314388D01*
X8016405Y-11314388D02*
X8006882Y-11333436D01*
X8006882Y-11333436D02*
X7997358Y-11342960D01*
X7997358Y-11342960D02*
X7978310Y-11352484D01*
X7978310Y-11352484D02*
X7959262Y-11352484D01*
X7959262Y-11352484D02*
X7940215Y-11342960D01*
X7940215Y-11342960D02*
X7930691Y-11333436D01*
X7930691Y-11333436D02*
X7921167Y-11314388D01*
X7921167Y-11314388D02*
X7911643Y-11276293D01*
X7911643Y-11276293D02*
X7911643Y-11228674D01*
X7911643Y-11228674D02*
X7921167Y-11190579D01*
X7921167Y-11190579D02*
X7930691Y-11171531D01*
X7930691Y-11171531D02*
X7940215Y-11162008D01*
X7940215Y-11162008D02*
X7959262Y-11152484D01*
X8149739Y-11152484D02*
X8168786Y-11152484D01*
X8168786Y-11152484D02*
X8187834Y-11162008D01*
X8187834Y-11162008D02*
X8197358Y-11171531D01*
X8197358Y-11171531D02*
X8206882Y-11190579D01*
X8206882Y-11190579D02*
X8216405Y-11228674D01*
X8216405Y-11228674D02*
X8216405Y-11276293D01*
X8216405Y-11276293D02*
X8206882Y-11314388D01*
X8206882Y-11314388D02*
X8197358Y-11333436D01*
X8197358Y-11333436D02*
X8187834Y-11342960D01*
X8187834Y-11342960D02*
X8168786Y-11352484D01*
X8168786Y-11352484D02*
X8149739Y-11352484D01*
X8149739Y-11352484D02*
X8130691Y-11342960D01*
X8130691Y-11342960D02*
X8121167Y-11333436D01*
X8121167Y-11333436D02*
X8111643Y-11314388D01*
X8111643Y-11314388D02*
X8102120Y-11276293D01*
X8102120Y-11276293D02*
X8102120Y-11228674D01*
X8102120Y-11228674D02*
X8111643Y-11190579D01*
X8111643Y-11190579D02*
X8121167Y-11171531D01*
X8121167Y-11171531D02*
X8130691Y-11162008D01*
X8130691Y-11162008D02*
X8149739Y-11152484D01*
X8302120Y-11352484D02*
X8302120Y-11219150D01*
X8302120Y-11238198D02*
X8311643Y-11228674D01*
X8311643Y-11228674D02*
X8330691Y-11219150D01*
X8330691Y-11219150D02*
X8359263Y-11219150D01*
X8359263Y-11219150D02*
X8378310Y-11228674D01*
X8378310Y-11228674D02*
X8387834Y-11247722D01*
X8387834Y-11247722D02*
X8387834Y-11352484D01*
X8387834Y-11247722D02*
X8397358Y-11228674D01*
X8397358Y-11228674D02*
X8416405Y-11219150D01*
X8416405Y-11219150D02*
X8444977Y-11219150D01*
X8444977Y-11219150D02*
X8464025Y-11228674D01*
X8464025Y-11228674D02*
X8473548Y-11247722D01*
X8473548Y-11247722D02*
X8473548Y-11352484D01*
X8568786Y-11352484D02*
X8568786Y-11219150D01*
X8568786Y-11238198D02*
X8578310Y-11228674D01*
X8578310Y-11228674D02*
X8597358Y-11219150D01*
X8597358Y-11219150D02*
X8625929Y-11219150D01*
X8625929Y-11219150D02*
X8644977Y-11228674D01*
X8644977Y-11228674D02*
X8654501Y-11247722D01*
X8654501Y-11247722D02*
X8654501Y-11352484D01*
X8654501Y-11247722D02*
X8664025Y-11228674D01*
X8664025Y-11228674D02*
X8683072Y-11219150D01*
X8683072Y-11219150D02*
X8711644Y-11219150D01*
X8711644Y-11219150D02*
X8730691Y-11228674D01*
X8730691Y-11228674D02*
X8740215Y-11247722D01*
X8740215Y-11247722D02*
X8740215Y-11352484D01*
X9130691Y-11142960D02*
X8959263Y-11400103D01*
X9387834Y-11152484D02*
X9406882Y-11152484D01*
X9406882Y-11152484D02*
X9425929Y-11162008D01*
X9425929Y-11162008D02*
X9435453Y-11171531D01*
X9435453Y-11171531D02*
X9444977Y-11190579D01*
X9444977Y-11190579D02*
X9454501Y-11228674D01*
X9454501Y-11228674D02*
X9454501Y-11276293D01*
X9454501Y-11276293D02*
X9444977Y-11314388D01*
X9444977Y-11314388D02*
X9435453Y-11333436D01*
X9435453Y-11333436D02*
X9425929Y-11342960D01*
X9425929Y-11342960D02*
X9406882Y-11352484D01*
X9406882Y-11352484D02*
X9387834Y-11352484D01*
X9387834Y-11352484D02*
X9368787Y-11342960D01*
X9368787Y-11342960D02*
X9359263Y-11333436D01*
X9359263Y-11333436D02*
X9349739Y-11314388D01*
X9349739Y-11314388D02*
X9340215Y-11276293D01*
X9340215Y-11276293D02*
X9340215Y-11228674D01*
X9340215Y-11228674D02*
X9349739Y-11190579D01*
X9349739Y-11190579D02*
X9359263Y-11171531D01*
X9359263Y-11171531D02*
X9368787Y-11162008D01*
X9368787Y-11162008D02*
X9387834Y-11152484D01*
X9540215Y-11333436D02*
X9549739Y-11342960D01*
X9549739Y-11342960D02*
X9540215Y-11352484D01*
X9540215Y-11352484D02*
X9530691Y-11342960D01*
X9530691Y-11342960D02*
X9540215Y-11333436D01*
X9540215Y-11333436D02*
X9540215Y-11352484D01*
X9673548Y-11152484D02*
X9692596Y-11152484D01*
X9692596Y-11152484D02*
X9711644Y-11162008D01*
X9711644Y-11162008D02*
X9721168Y-11171531D01*
X9721168Y-11171531D02*
X9730691Y-11190579D01*
X9730691Y-11190579D02*
X9740215Y-11228674D01*
X9740215Y-11228674D02*
X9740215Y-11276293D01*
X9740215Y-11276293D02*
X9730691Y-11314388D01*
X9730691Y-11314388D02*
X9721168Y-11333436D01*
X9721168Y-11333436D02*
X9711644Y-11342960D01*
X9711644Y-11342960D02*
X9692596Y-11352484D01*
X9692596Y-11352484D02*
X9673548Y-11352484D01*
X9673548Y-11352484D02*
X9654501Y-11342960D01*
X9654501Y-11342960D02*
X9644977Y-11333436D01*
X9644977Y-11333436D02*
X9635453Y-11314388D01*
X9635453Y-11314388D02*
X9625929Y-11276293D01*
X9625929Y-11276293D02*
X9625929Y-11228674D01*
X9625929Y-11228674D02*
X9635453Y-11190579D01*
X9635453Y-11190579D02*
X9644977Y-11171531D01*
X9644977Y-11171531D02*
X9654501Y-11162008D01*
X9654501Y-11162008D02*
X9673548Y-11152484D01*
X9835453Y-11352484D02*
X9873548Y-11352484D01*
X9873548Y-11352484D02*
X9892596Y-11342960D01*
X9892596Y-11342960D02*
X9902120Y-11333436D01*
X9902120Y-11333436D02*
X9921168Y-11304865D01*
X9921168Y-11304865D02*
X9930691Y-11266769D01*
X9930691Y-11266769D02*
X9930691Y-11190579D01*
X9930691Y-11190579D02*
X9921168Y-11171531D01*
X9921168Y-11171531D02*
X9911644Y-11162008D01*
X9911644Y-11162008D02*
X9892596Y-11152484D01*
X9892596Y-11152484D02*
X9854501Y-11152484D01*
X9854501Y-11152484D02*
X9835453Y-11162008D01*
X9835453Y-11162008D02*
X9825929Y-11171531D01*
X9825929Y-11171531D02*
X9816406Y-11190579D01*
X9816406Y-11190579D02*
X9816406Y-11238198D01*
X9816406Y-11238198D02*
X9825929Y-11257246D01*
X9825929Y-11257246D02*
X9835453Y-11266769D01*
X9835453Y-11266769D02*
X9854501Y-11276293D01*
X9854501Y-11276293D02*
X9892596Y-11276293D01*
X9892596Y-11276293D02*
X9911644Y-11266769D01*
X9911644Y-11266769D02*
X9921168Y-11257246D01*
X9921168Y-11257246D02*
X9930691Y-11238198D01*
X10054501Y-11152484D02*
X10073549Y-11152484D01*
X10073549Y-11152484D02*
X10092596Y-11162008D01*
X10092596Y-11162008D02*
X10102120Y-11171531D01*
X10102120Y-11171531D02*
X10111644Y-11190579D01*
X10111644Y-11190579D02*
X10121168Y-11228674D01*
X10121168Y-11228674D02*
X10121168Y-11276293D01*
X10121168Y-11276293D02*
X10111644Y-11314388D01*
X10111644Y-11314388D02*
X10102120Y-11333436D01*
X10102120Y-11333436D02*
X10092596Y-11342960D01*
X10092596Y-11342960D02*
X10073549Y-11352484D01*
X10073549Y-11352484D02*
X10054501Y-11352484D01*
X10054501Y-11352484D02*
X10035453Y-11342960D01*
X10035453Y-11342960D02*
X10025929Y-11333436D01*
X10025929Y-11333436D02*
X10016406Y-11314388D01*
X10016406Y-11314388D02*
X10006882Y-11276293D01*
X10006882Y-11276293D02*
X10006882Y-11228674D01*
X10006882Y-11228674D02*
X10016406Y-11190579D01*
X10016406Y-11190579D02*
X10025929Y-11171531D01*
X10025929Y-11171531D02*
X10035453Y-11162008D01*
X10035453Y-11162008D02*
X10054501Y-11152484D01*
X10292596Y-11152484D02*
X10254501Y-11152484D01*
X10254501Y-11152484D02*
X10235453Y-11162008D01*
X10235453Y-11162008D02*
X10225929Y-11171531D01*
X10225929Y-11171531D02*
X10206882Y-11200103D01*
X10206882Y-11200103D02*
X10197358Y-11238198D01*
X10197358Y-11238198D02*
X10197358Y-11314388D01*
X10197358Y-11314388D02*
X10206882Y-11333436D01*
X10206882Y-11333436D02*
X10216406Y-11342960D01*
X10216406Y-11342960D02*
X10235453Y-11352484D01*
X10235453Y-11352484D02*
X10273549Y-11352484D01*
X10273549Y-11352484D02*
X10292596Y-11342960D01*
X10292596Y-11342960D02*
X10302120Y-11333436D01*
X10302120Y-11333436D02*
X10311644Y-11314388D01*
X10311644Y-11314388D02*
X10311644Y-11266769D01*
X10311644Y-11266769D02*
X10302120Y-11247722D01*
X10302120Y-11247722D02*
X10292596Y-11238198D01*
X10292596Y-11238198D02*
X10273549Y-11228674D01*
X10273549Y-11228674D02*
X10235453Y-11228674D01*
X10235453Y-11228674D02*
X10216406Y-11238198D01*
X10216406Y-11238198D02*
X10206882Y-11247722D01*
X10206882Y-11247722D02*
X10197358Y-11266769D01*
X10387834Y-11152484D02*
X10387834Y-11190579D01*
X10464025Y-11152484D02*
X10464025Y-11190579D01*
X10759263Y-11428674D02*
X10749739Y-11419150D01*
X10749739Y-11419150D02*
X10730691Y-11390579D01*
X10730691Y-11390579D02*
X10721168Y-11371531D01*
X10721168Y-11371531D02*
X10711644Y-11342960D01*
X10711644Y-11342960D02*
X10702120Y-11295341D01*
X10702120Y-11295341D02*
X10702120Y-11257246D01*
X10702120Y-11257246D02*
X10711644Y-11209627D01*
X10711644Y-11209627D02*
X10721168Y-11181055D01*
X10721168Y-11181055D02*
X10730691Y-11162008D01*
X10730691Y-11162008D02*
X10749739Y-11133436D01*
X10749739Y-11133436D02*
X10759263Y-11123912D01*
X10864025Y-11238198D02*
X10844977Y-11228674D01*
X10844977Y-11228674D02*
X10835453Y-11219150D01*
X10835453Y-11219150D02*
X10825930Y-11200103D01*
X10825930Y-11200103D02*
X10825930Y-11190579D01*
X10825930Y-11190579D02*
X10835453Y-11171531D01*
X10835453Y-11171531D02*
X10844977Y-11162008D01*
X10844977Y-11162008D02*
X10864025Y-11152484D01*
X10864025Y-11152484D02*
X10902120Y-11152484D01*
X10902120Y-11152484D02*
X10921168Y-11162008D01*
X10921168Y-11162008D02*
X10930691Y-11171531D01*
X10930691Y-11171531D02*
X10940215Y-11190579D01*
X10940215Y-11190579D02*
X10940215Y-11200103D01*
X10940215Y-11200103D02*
X10930691Y-11219150D01*
X10930691Y-11219150D02*
X10921168Y-11228674D01*
X10921168Y-11228674D02*
X10902120Y-11238198D01*
X10902120Y-11238198D02*
X10864025Y-11238198D01*
X10864025Y-11238198D02*
X10844977Y-11247722D01*
X10844977Y-11247722D02*
X10835453Y-11257246D01*
X10835453Y-11257246D02*
X10825930Y-11276293D01*
X10825930Y-11276293D02*
X10825930Y-11314388D01*
X10825930Y-11314388D02*
X10835453Y-11333436D01*
X10835453Y-11333436D02*
X10844977Y-11342960D01*
X10844977Y-11342960D02*
X10864025Y-11352484D01*
X10864025Y-11352484D02*
X10902120Y-11352484D01*
X10902120Y-11352484D02*
X10921168Y-11342960D01*
X10921168Y-11342960D02*
X10930691Y-11333436D01*
X10930691Y-11333436D02*
X10940215Y-11314388D01*
X10940215Y-11314388D02*
X10940215Y-11276293D01*
X10940215Y-11276293D02*
X10930691Y-11257246D01*
X10930691Y-11257246D02*
X10921168Y-11247722D01*
X10921168Y-11247722D02*
X10902120Y-11238198D01*
X11178311Y-11352484D02*
X11178311Y-11152484D01*
X11264025Y-11352484D02*
X11264025Y-11247722D01*
X11264025Y-11247722D02*
X11254501Y-11228674D01*
X11254501Y-11228674D02*
X11235453Y-11219150D01*
X11235453Y-11219150D02*
X11206882Y-11219150D01*
X11206882Y-11219150D02*
X11187834Y-11228674D01*
X11187834Y-11228674D02*
X11178311Y-11238198D01*
X11387834Y-11352484D02*
X11368787Y-11342960D01*
X11368787Y-11342960D02*
X11359263Y-11333436D01*
X11359263Y-11333436D02*
X11349739Y-11314388D01*
X11349739Y-11314388D02*
X11349739Y-11257246D01*
X11349739Y-11257246D02*
X11359263Y-11238198D01*
X11359263Y-11238198D02*
X11368787Y-11228674D01*
X11368787Y-11228674D02*
X11387834Y-11219150D01*
X11387834Y-11219150D02*
X11416406Y-11219150D01*
X11416406Y-11219150D02*
X11435453Y-11228674D01*
X11435453Y-11228674D02*
X11444977Y-11238198D01*
X11444977Y-11238198D02*
X11454501Y-11257246D01*
X11454501Y-11257246D02*
X11454501Y-11314388D01*
X11454501Y-11314388D02*
X11444977Y-11333436D01*
X11444977Y-11333436D02*
X11435453Y-11342960D01*
X11435453Y-11342960D02*
X11416406Y-11352484D01*
X11416406Y-11352484D02*
X11387834Y-11352484D01*
X11568787Y-11352484D02*
X11549739Y-11342960D01*
X11549739Y-11342960D02*
X11540215Y-11323912D01*
X11540215Y-11323912D02*
X11540215Y-11152484D01*
X11721168Y-11342960D02*
X11702120Y-11352484D01*
X11702120Y-11352484D02*
X11664025Y-11352484D01*
X11664025Y-11352484D02*
X11644977Y-11342960D01*
X11644977Y-11342960D02*
X11635453Y-11323912D01*
X11635453Y-11323912D02*
X11635453Y-11247722D01*
X11635453Y-11247722D02*
X11644977Y-11228674D01*
X11644977Y-11228674D02*
X11664025Y-11219150D01*
X11664025Y-11219150D02*
X11702120Y-11219150D01*
X11702120Y-11219150D02*
X11721168Y-11228674D01*
X11721168Y-11228674D02*
X11730691Y-11247722D01*
X11730691Y-11247722D02*
X11730691Y-11266769D01*
X11730691Y-11266769D02*
X11635453Y-11285817D01*
X11806882Y-11342960D02*
X11825930Y-11352484D01*
X11825930Y-11352484D02*
X11864025Y-11352484D01*
X11864025Y-11352484D02*
X11883072Y-11342960D01*
X11883072Y-11342960D02*
X11892596Y-11323912D01*
X11892596Y-11323912D02*
X11892596Y-11314388D01*
X11892596Y-11314388D02*
X11883072Y-11295341D01*
X11883072Y-11295341D02*
X11864025Y-11285817D01*
X11864025Y-11285817D02*
X11835453Y-11285817D01*
X11835453Y-11285817D02*
X11816406Y-11276293D01*
X11816406Y-11276293D02*
X11806882Y-11257246D01*
X11806882Y-11257246D02*
X11806882Y-11247722D01*
X11806882Y-11247722D02*
X11816406Y-11228674D01*
X11816406Y-11228674D02*
X11835453Y-11219150D01*
X11835453Y-11219150D02*
X11864025Y-11219150D01*
X11864025Y-11219150D02*
X11883072Y-11228674D01*
X11959263Y-11428674D02*
X11968787Y-11419150D01*
X11968787Y-11419150D02*
X11987834Y-11390579D01*
X11987834Y-11390579D02*
X11997358Y-11371531D01*
X11997358Y-11371531D02*
X12006882Y-11342960D01*
X12006882Y-11342960D02*
X12016406Y-11295341D01*
X12016406Y-11295341D02*
X12016406Y-11257246D01*
X12016406Y-11257246D02*
X12006882Y-11209627D01*
X12006882Y-11209627D02*
X11997358Y-11181055D01*
X11997358Y-11181055D02*
X11987834Y-11162008D01*
X11987834Y-11162008D02*
X11968787Y-11133436D01*
X11968787Y-11133436D02*
X11959263Y-11123912D01*
X6984200Y-11481000D02*
X7184200Y-11681000D01*
X7184200Y-11481000D02*
X6984200Y-11681000D01*
X7184200Y-11581000D02*
G75*
G02*
X6984200Y-11581000I-100000J0D01*
G01*
X6984200Y-11581000D02*
G75*
G02*
X7184200Y-11581000I100000J0D01*
G01*
X7425929Y-11472484D02*
X7549739Y-11472484D01*
X7549739Y-11472484D02*
X7483072Y-11548674D01*
X7483072Y-11548674D02*
X7511643Y-11548674D01*
X7511643Y-11548674D02*
X7530691Y-11558198D01*
X7530691Y-11558198D02*
X7540215Y-11567722D01*
X7540215Y-11567722D02*
X7549739Y-11586769D01*
X7549739Y-11586769D02*
X7549739Y-11634388D01*
X7549739Y-11634388D02*
X7540215Y-11653436D01*
X7540215Y-11653436D02*
X7530691Y-11662960D01*
X7530691Y-11662960D02*
X7511643Y-11672484D01*
X7511643Y-11672484D02*
X7454501Y-11672484D01*
X7454501Y-11672484D02*
X7435453Y-11662960D01*
X7435453Y-11662960D02*
X7425929Y-11653436D01*
X7635453Y-11653436D02*
X7644977Y-11662960D01*
X7644977Y-11662960D02*
X7635453Y-11672484D01*
X7635453Y-11672484D02*
X7625929Y-11662960D01*
X7625929Y-11662960D02*
X7635453Y-11653436D01*
X7635453Y-11653436D02*
X7635453Y-11672484D01*
X7721167Y-11491531D02*
X7730691Y-11482008D01*
X7730691Y-11482008D02*
X7749739Y-11472484D01*
X7749739Y-11472484D02*
X7797358Y-11472484D01*
X7797358Y-11472484D02*
X7816405Y-11482008D01*
X7816405Y-11482008D02*
X7825929Y-11491531D01*
X7825929Y-11491531D02*
X7835453Y-11510579D01*
X7835453Y-11510579D02*
X7835453Y-11529627D01*
X7835453Y-11529627D02*
X7825929Y-11558198D01*
X7825929Y-11558198D02*
X7711643Y-11672484D01*
X7711643Y-11672484D02*
X7835453Y-11672484D01*
X7959262Y-11472484D02*
X7978310Y-11472484D01*
X7978310Y-11472484D02*
X7997358Y-11482008D01*
X7997358Y-11482008D02*
X8006882Y-11491531D01*
X8006882Y-11491531D02*
X8016405Y-11510579D01*
X8016405Y-11510579D02*
X8025929Y-11548674D01*
X8025929Y-11548674D02*
X8025929Y-11596293D01*
X8025929Y-11596293D02*
X8016405Y-11634388D01*
X8016405Y-11634388D02*
X8006882Y-11653436D01*
X8006882Y-11653436D02*
X7997358Y-11662960D01*
X7997358Y-11662960D02*
X7978310Y-11672484D01*
X7978310Y-11672484D02*
X7959262Y-11672484D01*
X7959262Y-11672484D02*
X7940215Y-11662960D01*
X7940215Y-11662960D02*
X7930691Y-11653436D01*
X7930691Y-11653436D02*
X7921167Y-11634388D01*
X7921167Y-11634388D02*
X7911643Y-11596293D01*
X7911643Y-11596293D02*
X7911643Y-11548674D01*
X7911643Y-11548674D02*
X7921167Y-11510579D01*
X7921167Y-11510579D02*
X7930691Y-11491531D01*
X7930691Y-11491531D02*
X7940215Y-11482008D01*
X7940215Y-11482008D02*
X7959262Y-11472484D01*
X8149739Y-11472484D02*
X8168786Y-11472484D01*
X8168786Y-11472484D02*
X8187834Y-11482008D01*
X8187834Y-11482008D02*
X8197358Y-11491531D01*
X8197358Y-11491531D02*
X8206882Y-11510579D01*
X8206882Y-11510579D02*
X8216405Y-11548674D01*
X8216405Y-11548674D02*
X8216405Y-11596293D01*
X8216405Y-11596293D02*
X8206882Y-11634388D01*
X8206882Y-11634388D02*
X8197358Y-11653436D01*
X8197358Y-11653436D02*
X8187834Y-11662960D01*
X8187834Y-11662960D02*
X8168786Y-11672484D01*
X8168786Y-11672484D02*
X8149739Y-11672484D01*
X8149739Y-11672484D02*
X8130691Y-11662960D01*
X8130691Y-11662960D02*
X8121167Y-11653436D01*
X8121167Y-11653436D02*
X8111643Y-11634388D01*
X8111643Y-11634388D02*
X8102120Y-11596293D01*
X8102120Y-11596293D02*
X8102120Y-11548674D01*
X8102120Y-11548674D02*
X8111643Y-11510579D01*
X8111643Y-11510579D02*
X8121167Y-11491531D01*
X8121167Y-11491531D02*
X8130691Y-11482008D01*
X8130691Y-11482008D02*
X8149739Y-11472484D01*
X8302120Y-11672484D02*
X8302120Y-11539150D01*
X8302120Y-11558198D02*
X8311643Y-11548674D01*
X8311643Y-11548674D02*
X8330691Y-11539150D01*
X8330691Y-11539150D02*
X8359263Y-11539150D01*
X8359263Y-11539150D02*
X8378310Y-11548674D01*
X8378310Y-11548674D02*
X8387834Y-11567722D01*
X8387834Y-11567722D02*
X8387834Y-11672484D01*
X8387834Y-11567722D02*
X8397358Y-11548674D01*
X8397358Y-11548674D02*
X8416405Y-11539150D01*
X8416405Y-11539150D02*
X8444977Y-11539150D01*
X8444977Y-11539150D02*
X8464025Y-11548674D01*
X8464025Y-11548674D02*
X8473548Y-11567722D01*
X8473548Y-11567722D02*
X8473548Y-11672484D01*
X8568786Y-11672484D02*
X8568786Y-11539150D01*
X8568786Y-11558198D02*
X8578310Y-11548674D01*
X8578310Y-11548674D02*
X8597358Y-11539150D01*
X8597358Y-11539150D02*
X8625929Y-11539150D01*
X8625929Y-11539150D02*
X8644977Y-11548674D01*
X8644977Y-11548674D02*
X8654501Y-11567722D01*
X8654501Y-11567722D02*
X8654501Y-11672484D01*
X8654501Y-11567722D02*
X8664025Y-11548674D01*
X8664025Y-11548674D02*
X8683072Y-11539150D01*
X8683072Y-11539150D02*
X8711644Y-11539150D01*
X8711644Y-11539150D02*
X8730691Y-11548674D01*
X8730691Y-11548674D02*
X8740215Y-11567722D01*
X8740215Y-11567722D02*
X8740215Y-11672484D01*
X9130691Y-11462960D02*
X8959263Y-11720103D01*
X9387834Y-11472484D02*
X9406882Y-11472484D01*
X9406882Y-11472484D02*
X9425929Y-11482008D01*
X9425929Y-11482008D02*
X9435453Y-11491531D01*
X9435453Y-11491531D02*
X9444977Y-11510579D01*
X9444977Y-11510579D02*
X9454501Y-11548674D01*
X9454501Y-11548674D02*
X9454501Y-11596293D01*
X9454501Y-11596293D02*
X9444977Y-11634388D01*
X9444977Y-11634388D02*
X9435453Y-11653436D01*
X9435453Y-11653436D02*
X9425929Y-11662960D01*
X9425929Y-11662960D02*
X9406882Y-11672484D01*
X9406882Y-11672484D02*
X9387834Y-11672484D01*
X9387834Y-11672484D02*
X9368787Y-11662960D01*
X9368787Y-11662960D02*
X9359263Y-11653436D01*
X9359263Y-11653436D02*
X9349739Y-11634388D01*
X9349739Y-11634388D02*
X9340215Y-11596293D01*
X9340215Y-11596293D02*
X9340215Y-11548674D01*
X9340215Y-11548674D02*
X9349739Y-11510579D01*
X9349739Y-11510579D02*
X9359263Y-11491531D01*
X9359263Y-11491531D02*
X9368787Y-11482008D01*
X9368787Y-11482008D02*
X9387834Y-11472484D01*
X9540215Y-11653436D02*
X9549739Y-11662960D01*
X9549739Y-11662960D02*
X9540215Y-11672484D01*
X9540215Y-11672484D02*
X9530691Y-11662960D01*
X9530691Y-11662960D02*
X9540215Y-11653436D01*
X9540215Y-11653436D02*
X9540215Y-11672484D01*
X9740215Y-11672484D02*
X9625929Y-11672484D01*
X9683072Y-11672484D02*
X9683072Y-11472484D01*
X9683072Y-11472484D02*
X9664025Y-11501055D01*
X9664025Y-11501055D02*
X9644977Y-11520103D01*
X9644977Y-11520103D02*
X9625929Y-11529627D01*
X9816406Y-11491531D02*
X9825929Y-11482008D01*
X9825929Y-11482008D02*
X9844977Y-11472484D01*
X9844977Y-11472484D02*
X9892596Y-11472484D01*
X9892596Y-11472484D02*
X9911644Y-11482008D01*
X9911644Y-11482008D02*
X9921168Y-11491531D01*
X9921168Y-11491531D02*
X9930691Y-11510579D01*
X9930691Y-11510579D02*
X9930691Y-11529627D01*
X9930691Y-11529627D02*
X9921168Y-11558198D01*
X9921168Y-11558198D02*
X9806882Y-11672484D01*
X9806882Y-11672484D02*
X9930691Y-11672484D01*
X10102120Y-11472484D02*
X10064025Y-11472484D01*
X10064025Y-11472484D02*
X10044977Y-11482008D01*
X10044977Y-11482008D02*
X10035453Y-11491531D01*
X10035453Y-11491531D02*
X10016406Y-11520103D01*
X10016406Y-11520103D02*
X10006882Y-11558198D01*
X10006882Y-11558198D02*
X10006882Y-11634388D01*
X10006882Y-11634388D02*
X10016406Y-11653436D01*
X10016406Y-11653436D02*
X10025929Y-11662960D01*
X10025929Y-11662960D02*
X10044977Y-11672484D01*
X10044977Y-11672484D02*
X10083072Y-11672484D01*
X10083072Y-11672484D02*
X10102120Y-11662960D01*
X10102120Y-11662960D02*
X10111644Y-11653436D01*
X10111644Y-11653436D02*
X10121168Y-11634388D01*
X10121168Y-11634388D02*
X10121168Y-11586769D01*
X10121168Y-11586769D02*
X10111644Y-11567722D01*
X10111644Y-11567722D02*
X10102120Y-11558198D01*
X10102120Y-11558198D02*
X10083072Y-11548674D01*
X10083072Y-11548674D02*
X10044977Y-11548674D01*
X10044977Y-11548674D02*
X10025929Y-11558198D01*
X10025929Y-11558198D02*
X10016406Y-11567722D01*
X10016406Y-11567722D02*
X10006882Y-11586769D01*
X10244977Y-11472484D02*
X10264025Y-11472484D01*
X10264025Y-11472484D02*
X10283072Y-11482008D01*
X10283072Y-11482008D02*
X10292596Y-11491531D01*
X10292596Y-11491531D02*
X10302120Y-11510579D01*
X10302120Y-11510579D02*
X10311644Y-11548674D01*
X10311644Y-11548674D02*
X10311644Y-11596293D01*
X10311644Y-11596293D02*
X10302120Y-11634388D01*
X10302120Y-11634388D02*
X10292596Y-11653436D01*
X10292596Y-11653436D02*
X10283072Y-11662960D01*
X10283072Y-11662960D02*
X10264025Y-11672484D01*
X10264025Y-11672484D02*
X10244977Y-11672484D01*
X10244977Y-11672484D02*
X10225929Y-11662960D01*
X10225929Y-11662960D02*
X10216406Y-11653436D01*
X10216406Y-11653436D02*
X10206882Y-11634388D01*
X10206882Y-11634388D02*
X10197358Y-11596293D01*
X10197358Y-11596293D02*
X10197358Y-11548674D01*
X10197358Y-11548674D02*
X10206882Y-11510579D01*
X10206882Y-11510579D02*
X10216406Y-11491531D01*
X10216406Y-11491531D02*
X10225929Y-11482008D01*
X10225929Y-11482008D02*
X10244977Y-11472484D01*
X10387834Y-11472484D02*
X10387834Y-11510579D01*
X10464025Y-11472484D02*
X10464025Y-11510579D01*
X10759263Y-11748674D02*
X10749739Y-11739150D01*
X10749739Y-11739150D02*
X10730691Y-11710579D01*
X10730691Y-11710579D02*
X10721168Y-11691531D01*
X10721168Y-11691531D02*
X10711644Y-11662960D01*
X10711644Y-11662960D02*
X10702120Y-11615341D01*
X10702120Y-11615341D02*
X10702120Y-11577246D01*
X10702120Y-11577246D02*
X10711644Y-11529627D01*
X10711644Y-11529627D02*
X10721168Y-11501055D01*
X10721168Y-11501055D02*
X10730691Y-11482008D01*
X10730691Y-11482008D02*
X10749739Y-11453436D01*
X10749739Y-11453436D02*
X10759263Y-11443912D01*
X10825930Y-11491531D02*
X10835453Y-11482008D01*
X10835453Y-11482008D02*
X10854501Y-11472484D01*
X10854501Y-11472484D02*
X10902120Y-11472484D01*
X10902120Y-11472484D02*
X10921168Y-11482008D01*
X10921168Y-11482008D02*
X10930691Y-11491531D01*
X10930691Y-11491531D02*
X10940215Y-11510579D01*
X10940215Y-11510579D02*
X10940215Y-11529627D01*
X10940215Y-11529627D02*
X10930691Y-11558198D01*
X10930691Y-11558198D02*
X10816406Y-11672484D01*
X10816406Y-11672484D02*
X10940215Y-11672484D01*
X11178311Y-11672484D02*
X11178311Y-11472484D01*
X11264025Y-11672484D02*
X11264025Y-11567722D01*
X11264025Y-11567722D02*
X11254501Y-11548674D01*
X11254501Y-11548674D02*
X11235453Y-11539150D01*
X11235453Y-11539150D02*
X11206882Y-11539150D01*
X11206882Y-11539150D02*
X11187834Y-11548674D01*
X11187834Y-11548674D02*
X11178311Y-11558198D01*
X11387834Y-11672484D02*
X11368787Y-11662960D01*
X11368787Y-11662960D02*
X11359263Y-11653436D01*
X11359263Y-11653436D02*
X11349739Y-11634388D01*
X11349739Y-11634388D02*
X11349739Y-11577246D01*
X11349739Y-11577246D02*
X11359263Y-11558198D01*
X11359263Y-11558198D02*
X11368787Y-11548674D01*
X11368787Y-11548674D02*
X11387834Y-11539150D01*
X11387834Y-11539150D02*
X11416406Y-11539150D01*
X11416406Y-11539150D02*
X11435453Y-11548674D01*
X11435453Y-11548674D02*
X11444977Y-11558198D01*
X11444977Y-11558198D02*
X11454501Y-11577246D01*
X11454501Y-11577246D02*
X11454501Y-11634388D01*
X11454501Y-11634388D02*
X11444977Y-11653436D01*
X11444977Y-11653436D02*
X11435453Y-11662960D01*
X11435453Y-11662960D02*
X11416406Y-11672484D01*
X11416406Y-11672484D02*
X11387834Y-11672484D01*
X11568787Y-11672484D02*
X11549739Y-11662960D01*
X11549739Y-11662960D02*
X11540215Y-11643912D01*
X11540215Y-11643912D02*
X11540215Y-11472484D01*
X11721168Y-11662960D02*
X11702120Y-11672484D01*
X11702120Y-11672484D02*
X11664025Y-11672484D01*
X11664025Y-11672484D02*
X11644977Y-11662960D01*
X11644977Y-11662960D02*
X11635453Y-11643912D01*
X11635453Y-11643912D02*
X11635453Y-11567722D01*
X11635453Y-11567722D02*
X11644977Y-11548674D01*
X11644977Y-11548674D02*
X11664025Y-11539150D01*
X11664025Y-11539150D02*
X11702120Y-11539150D01*
X11702120Y-11539150D02*
X11721168Y-11548674D01*
X11721168Y-11548674D02*
X11730691Y-11567722D01*
X11730691Y-11567722D02*
X11730691Y-11586769D01*
X11730691Y-11586769D02*
X11635453Y-11605817D01*
X11806882Y-11662960D02*
X11825930Y-11672484D01*
X11825930Y-11672484D02*
X11864025Y-11672484D01*
X11864025Y-11672484D02*
X11883072Y-11662960D01*
X11883072Y-11662960D02*
X11892596Y-11643912D01*
X11892596Y-11643912D02*
X11892596Y-11634388D01*
X11892596Y-11634388D02*
X11883072Y-11615341D01*
X11883072Y-11615341D02*
X11864025Y-11605817D01*
X11864025Y-11605817D02*
X11835453Y-11605817D01*
X11835453Y-11605817D02*
X11816406Y-11596293D01*
X11816406Y-11596293D02*
X11806882Y-11577246D01*
X11806882Y-11577246D02*
X11806882Y-11567722D01*
X11806882Y-11567722D02*
X11816406Y-11548674D01*
X11816406Y-11548674D02*
X11835453Y-11539150D01*
X11835453Y-11539150D02*
X11864025Y-11539150D01*
X11864025Y-11539150D02*
X11883072Y-11548674D01*
X11959263Y-11748674D02*
X11968787Y-11739150D01*
X11968787Y-11739150D02*
X11987834Y-11710579D01*
X11987834Y-11710579D02*
X11997358Y-11691531D01*
X11997358Y-11691531D02*
X12006882Y-11662960D01*
X12006882Y-11662960D02*
X12016406Y-11615341D01*
X12016406Y-11615341D02*
X12016406Y-11577246D01*
X12016406Y-11577246D02*
X12006882Y-11529627D01*
X12006882Y-11529627D02*
X11997358Y-11501055D01*
X11997358Y-11501055D02*
X11987834Y-11482008D01*
X11987834Y-11482008D02*
X11968787Y-11453436D01*
X11968787Y-11453436D02*
X11959263Y-11443912D01*
M02*
