G04 #@! TF.GenerationSoftware,KiCad,Pcbnew,8.0.8*
G04 #@! TF.CreationDate,2025-02-03T03:21:26+01:00*
G04 #@! TF.ProjectId,MiSTeryShield20kRPiPico,4d695354-6572-4795-9368-69656c643230,V1*
G04 #@! TF.SameCoordinates,Original*
G04 #@! TF.FileFunction,Legend,Bot*
G04 #@! TF.FilePolarity,Positive*
%FSLAX46Y46*%
G04 Gerber Fmt 4.6, Leading zero omitted, Abs format (unit mm)*
G04 Created by KiCad (PCBNEW 8.0.8) date 2025-02-03 03:21:26*
%MOMM*%
%LPD*%
G01*
G04 APERTURE LIST*
G04 Aperture macros list*
%AMRoundRect*
0 Rectangle with rounded corners*
0 $1 Rounding radius*
0 $2 $3 $4 $5 $6 $7 $8 $9 X,Y pos of 4 corners*
0 Add a 4 corners polygon primitive as box body*
4,1,4,$2,$3,$4,$5,$6,$7,$8,$9,$2,$3,0*
0 Add four circle primitives for the rounded corners*
1,1,$1+$1,$2,$3*
1,1,$1+$1,$4,$5*
1,1,$1+$1,$6,$7*
1,1,$1+$1,$8,$9*
0 Add four rect primitives between the rounded corners*
20,1,$1+$1,$2,$3,$4,$5,0*
20,1,$1+$1,$4,$5,$6,$7,0*
20,1,$1+$1,$6,$7,$8,$9,0*
20,1,$1+$1,$8,$9,$2,$3,0*%
G04 Aperture macros list end*
%ADD10C,0.300000*%
%ADD11R,1.700000X1.700000*%
%ADD12O,1.700000X1.700000*%
%ADD13RoundRect,0.063500X1.270000X1.270000X-1.270000X1.270000X-1.270000X-1.270000X1.270000X-1.270000X0*%
%ADD14C,2.667000*%
%ADD15C,3.200000*%
%ADD16C,4.000000*%
%ADD17R,1.600000X1.600000*%
%ADD18C,1.600000*%
%ADD19C,2.500000*%
%ADD20R,1.500000X1.500000*%
%ADD21C,1.500000*%
%ADD22C,3.000000*%
G04 APERTURE END LIST*
D10*
X75042828Y-53492857D02*
X73542828Y-53492857D01*
X73542828Y-53492857D02*
X74614257Y-53992857D01*
X74614257Y-53992857D02*
X73542828Y-54492857D01*
X73542828Y-54492857D02*
X75042828Y-54492857D01*
X75042828Y-55207143D02*
X74042828Y-55207143D01*
X73542828Y-55207143D02*
X73614257Y-55135715D01*
X73614257Y-55135715D02*
X73685685Y-55207143D01*
X73685685Y-55207143D02*
X73614257Y-55278572D01*
X73614257Y-55278572D02*
X73542828Y-55207143D01*
X73542828Y-55207143D02*
X73685685Y-55207143D01*
X74971400Y-55850001D02*
X75042828Y-56064287D01*
X75042828Y-56064287D02*
X75042828Y-56421429D01*
X75042828Y-56421429D02*
X74971400Y-56564287D01*
X74971400Y-56564287D02*
X74899971Y-56635715D01*
X74899971Y-56635715D02*
X74757114Y-56707144D01*
X74757114Y-56707144D02*
X74614257Y-56707144D01*
X74614257Y-56707144D02*
X74471400Y-56635715D01*
X74471400Y-56635715D02*
X74399971Y-56564287D01*
X74399971Y-56564287D02*
X74328542Y-56421429D01*
X74328542Y-56421429D02*
X74257114Y-56135715D01*
X74257114Y-56135715D02*
X74185685Y-55992858D01*
X74185685Y-55992858D02*
X74114257Y-55921429D01*
X74114257Y-55921429D02*
X73971400Y-55850001D01*
X73971400Y-55850001D02*
X73828542Y-55850001D01*
X73828542Y-55850001D02*
X73685685Y-55921429D01*
X73685685Y-55921429D02*
X73614257Y-55992858D01*
X73614257Y-55992858D02*
X73542828Y-56135715D01*
X73542828Y-56135715D02*
X73542828Y-56492858D01*
X73542828Y-56492858D02*
X73614257Y-56707144D01*
X73542828Y-57135715D02*
X73542828Y-57992858D01*
X75042828Y-57564286D02*
X73542828Y-57564286D01*
X74971400Y-59064286D02*
X75042828Y-58921429D01*
X75042828Y-58921429D02*
X75042828Y-58635715D01*
X75042828Y-58635715D02*
X74971400Y-58492857D01*
X74971400Y-58492857D02*
X74828542Y-58421429D01*
X74828542Y-58421429D02*
X74257114Y-58421429D01*
X74257114Y-58421429D02*
X74114257Y-58492857D01*
X74114257Y-58492857D02*
X74042828Y-58635715D01*
X74042828Y-58635715D02*
X74042828Y-58921429D01*
X74042828Y-58921429D02*
X74114257Y-59064286D01*
X74114257Y-59064286D02*
X74257114Y-59135715D01*
X74257114Y-59135715D02*
X74399971Y-59135715D01*
X74399971Y-59135715D02*
X74542828Y-58421429D01*
X75042828Y-59778571D02*
X74042828Y-59778571D01*
X74328542Y-59778571D02*
X74185685Y-59850000D01*
X74185685Y-59850000D02*
X74114257Y-59921429D01*
X74114257Y-59921429D02*
X74042828Y-60064286D01*
X74042828Y-60064286D02*
X74042828Y-60207143D01*
X74042828Y-60564285D02*
X75042828Y-60921428D01*
X74042828Y-61278571D02*
X75042828Y-60921428D01*
X75042828Y-60921428D02*
X75399971Y-60778571D01*
X75399971Y-60778571D02*
X75471400Y-60707142D01*
X75471400Y-60707142D02*
X75542828Y-60564285D01*
X74971400Y-61778571D02*
X75042828Y-61992857D01*
X75042828Y-61992857D02*
X75042828Y-62349999D01*
X75042828Y-62349999D02*
X74971400Y-62492857D01*
X74971400Y-62492857D02*
X74899971Y-62564285D01*
X74899971Y-62564285D02*
X74757114Y-62635714D01*
X74757114Y-62635714D02*
X74614257Y-62635714D01*
X74614257Y-62635714D02*
X74471400Y-62564285D01*
X74471400Y-62564285D02*
X74399971Y-62492857D01*
X74399971Y-62492857D02*
X74328542Y-62349999D01*
X74328542Y-62349999D02*
X74257114Y-62064285D01*
X74257114Y-62064285D02*
X74185685Y-61921428D01*
X74185685Y-61921428D02*
X74114257Y-61849999D01*
X74114257Y-61849999D02*
X73971400Y-61778571D01*
X73971400Y-61778571D02*
X73828542Y-61778571D01*
X73828542Y-61778571D02*
X73685685Y-61849999D01*
X73685685Y-61849999D02*
X73614257Y-61921428D01*
X73614257Y-61921428D02*
X73542828Y-62064285D01*
X73542828Y-62064285D02*
X73542828Y-62421428D01*
X73542828Y-62421428D02*
X73614257Y-62635714D01*
X75042828Y-63278570D02*
X73542828Y-63278570D01*
X75042828Y-63921428D02*
X74257114Y-63921428D01*
X74257114Y-63921428D02*
X74114257Y-63849999D01*
X74114257Y-63849999D02*
X74042828Y-63707142D01*
X74042828Y-63707142D02*
X74042828Y-63492856D01*
X74042828Y-63492856D02*
X74114257Y-63349999D01*
X74114257Y-63349999D02*
X74185685Y-63278570D01*
X75042828Y-64635713D02*
X74042828Y-64635713D01*
X73542828Y-64635713D02*
X73614257Y-64564285D01*
X73614257Y-64564285D02*
X73685685Y-64635713D01*
X73685685Y-64635713D02*
X73614257Y-64707142D01*
X73614257Y-64707142D02*
X73542828Y-64635713D01*
X73542828Y-64635713D02*
X73685685Y-64635713D01*
X74971400Y-65921428D02*
X75042828Y-65778571D01*
X75042828Y-65778571D02*
X75042828Y-65492857D01*
X75042828Y-65492857D02*
X74971400Y-65349999D01*
X74971400Y-65349999D02*
X74828542Y-65278571D01*
X74828542Y-65278571D02*
X74257114Y-65278571D01*
X74257114Y-65278571D02*
X74114257Y-65349999D01*
X74114257Y-65349999D02*
X74042828Y-65492857D01*
X74042828Y-65492857D02*
X74042828Y-65778571D01*
X74042828Y-65778571D02*
X74114257Y-65921428D01*
X74114257Y-65921428D02*
X74257114Y-65992857D01*
X74257114Y-65992857D02*
X74399971Y-65992857D01*
X74399971Y-65992857D02*
X74542828Y-65278571D01*
X75042828Y-66849999D02*
X74971400Y-66707142D01*
X74971400Y-66707142D02*
X74828542Y-66635713D01*
X74828542Y-66635713D02*
X73542828Y-66635713D01*
X75042828Y-68064285D02*
X73542828Y-68064285D01*
X74971400Y-68064285D02*
X75042828Y-67921427D01*
X75042828Y-67921427D02*
X75042828Y-67635713D01*
X75042828Y-67635713D02*
X74971400Y-67492856D01*
X74971400Y-67492856D02*
X74899971Y-67421427D01*
X74899971Y-67421427D02*
X74757114Y-67349999D01*
X74757114Y-67349999D02*
X74328542Y-67349999D01*
X74328542Y-67349999D02*
X74185685Y-67421427D01*
X74185685Y-67421427D02*
X74114257Y-67492856D01*
X74114257Y-67492856D02*
X74042828Y-67635713D01*
X74042828Y-67635713D02*
X74042828Y-67921427D01*
X74042828Y-67921427D02*
X74114257Y-68064285D01*
X73685685Y-68707142D02*
X73614257Y-68778570D01*
X73614257Y-68778570D02*
X73542828Y-68921428D01*
X73542828Y-68921428D02*
X73542828Y-69278570D01*
X73542828Y-69278570D02*
X73614257Y-69421428D01*
X73614257Y-69421428D02*
X73685685Y-69492856D01*
X73685685Y-69492856D02*
X73828542Y-69564285D01*
X73828542Y-69564285D02*
X73971400Y-69564285D01*
X73971400Y-69564285D02*
X74185685Y-69492856D01*
X74185685Y-69492856D02*
X75042828Y-68635713D01*
X75042828Y-68635713D02*
X75042828Y-69564285D01*
X73542828Y-70492856D02*
X73542828Y-70635713D01*
X73542828Y-70635713D02*
X73614257Y-70778570D01*
X73614257Y-70778570D02*
X73685685Y-70849999D01*
X73685685Y-70849999D02*
X73828542Y-70921427D01*
X73828542Y-70921427D02*
X74114257Y-70992856D01*
X74114257Y-70992856D02*
X74471400Y-70992856D01*
X74471400Y-70992856D02*
X74757114Y-70921427D01*
X74757114Y-70921427D02*
X74899971Y-70849999D01*
X74899971Y-70849999D02*
X74971400Y-70778570D01*
X74971400Y-70778570D02*
X75042828Y-70635713D01*
X75042828Y-70635713D02*
X75042828Y-70492856D01*
X75042828Y-70492856D02*
X74971400Y-70349999D01*
X74971400Y-70349999D02*
X74899971Y-70278570D01*
X74899971Y-70278570D02*
X74757114Y-70207141D01*
X74757114Y-70207141D02*
X74471400Y-70135713D01*
X74471400Y-70135713D02*
X74114257Y-70135713D01*
X74114257Y-70135713D02*
X73828542Y-70207141D01*
X73828542Y-70207141D02*
X73685685Y-70278570D01*
X73685685Y-70278570D02*
X73614257Y-70349999D01*
X73614257Y-70349999D02*
X73542828Y-70492856D01*
X75042828Y-71635712D02*
X73542828Y-71635712D01*
X74471400Y-71778570D02*
X75042828Y-72207141D01*
X74042828Y-72207141D02*
X74614257Y-71635712D01*
X75042828Y-73707141D02*
X74328542Y-73207141D01*
X75042828Y-72849998D02*
X73542828Y-72849998D01*
X73542828Y-72849998D02*
X73542828Y-73421427D01*
X73542828Y-73421427D02*
X73614257Y-73564284D01*
X73614257Y-73564284D02*
X73685685Y-73635713D01*
X73685685Y-73635713D02*
X73828542Y-73707141D01*
X73828542Y-73707141D02*
X74042828Y-73707141D01*
X74042828Y-73707141D02*
X74185685Y-73635713D01*
X74185685Y-73635713D02*
X74257114Y-73564284D01*
X74257114Y-73564284D02*
X74328542Y-73421427D01*
X74328542Y-73421427D02*
X74328542Y-72849998D01*
X75042828Y-74349998D02*
X73542828Y-74349998D01*
X73542828Y-74349998D02*
X73542828Y-74921427D01*
X73542828Y-74921427D02*
X73614257Y-75064284D01*
X73614257Y-75064284D02*
X73685685Y-75135713D01*
X73685685Y-75135713D02*
X73828542Y-75207141D01*
X73828542Y-75207141D02*
X74042828Y-75207141D01*
X74042828Y-75207141D02*
X74185685Y-75135713D01*
X74185685Y-75135713D02*
X74257114Y-75064284D01*
X74257114Y-75064284D02*
X74328542Y-74921427D01*
X74328542Y-74921427D02*
X74328542Y-74349998D01*
X75042828Y-75849998D02*
X74042828Y-75849998D01*
X73542828Y-75849998D02*
X73614257Y-75778570D01*
X73614257Y-75778570D02*
X73685685Y-75849998D01*
X73685685Y-75849998D02*
X73614257Y-75921427D01*
X73614257Y-75921427D02*
X73542828Y-75849998D01*
X73542828Y-75849998D02*
X73685685Y-75849998D01*
X75042828Y-76564284D02*
X73542828Y-76564284D01*
X73542828Y-76564284D02*
X73542828Y-77135713D01*
X73542828Y-77135713D02*
X73614257Y-77278570D01*
X73614257Y-77278570D02*
X73685685Y-77349999D01*
X73685685Y-77349999D02*
X73828542Y-77421427D01*
X73828542Y-77421427D02*
X74042828Y-77421427D01*
X74042828Y-77421427D02*
X74185685Y-77349999D01*
X74185685Y-77349999D02*
X74257114Y-77278570D01*
X74257114Y-77278570D02*
X74328542Y-77135713D01*
X74328542Y-77135713D02*
X74328542Y-76564284D01*
X75042828Y-78064284D02*
X74042828Y-78064284D01*
X73542828Y-78064284D02*
X73614257Y-77992856D01*
X73614257Y-77992856D02*
X73685685Y-78064284D01*
X73685685Y-78064284D02*
X73614257Y-78135713D01*
X73614257Y-78135713D02*
X73542828Y-78064284D01*
X73542828Y-78064284D02*
X73685685Y-78064284D01*
X74971400Y-79421428D02*
X75042828Y-79278570D01*
X75042828Y-79278570D02*
X75042828Y-78992856D01*
X75042828Y-78992856D02*
X74971400Y-78849999D01*
X74971400Y-78849999D02*
X74899971Y-78778570D01*
X74899971Y-78778570D02*
X74757114Y-78707142D01*
X74757114Y-78707142D02*
X74328542Y-78707142D01*
X74328542Y-78707142D02*
X74185685Y-78778570D01*
X74185685Y-78778570D02*
X74114257Y-78849999D01*
X74114257Y-78849999D02*
X74042828Y-78992856D01*
X74042828Y-78992856D02*
X74042828Y-79278570D01*
X74042828Y-79278570D02*
X74114257Y-79421428D01*
X75042828Y-80278570D02*
X74971400Y-80135713D01*
X74971400Y-80135713D02*
X74899971Y-80064284D01*
X74899971Y-80064284D02*
X74757114Y-79992856D01*
X74757114Y-79992856D02*
X74328542Y-79992856D01*
X74328542Y-79992856D02*
X74185685Y-80064284D01*
X74185685Y-80064284D02*
X74114257Y-80135713D01*
X74114257Y-80135713D02*
X74042828Y-80278570D01*
X74042828Y-80278570D02*
X74042828Y-80492856D01*
X74042828Y-80492856D02*
X74114257Y-80635713D01*
X74114257Y-80635713D02*
X74185685Y-80707142D01*
X74185685Y-80707142D02*
X74328542Y-80778570D01*
X74328542Y-80778570D02*
X74757114Y-80778570D01*
X74757114Y-80778570D02*
X74899971Y-80707142D01*
X74899971Y-80707142D02*
X74971400Y-80635713D01*
X74971400Y-80635713D02*
X75042828Y-80492856D01*
X75042828Y-80492856D02*
X75042828Y-80278570D01*
%LPC*%
D11*
X132122000Y-40390000D03*
D12*
X132122000Y-42930000D03*
X132122000Y-45470000D03*
X132122000Y-48010000D03*
X132122000Y-50550000D03*
X132122000Y-53090000D03*
X132122000Y-55630000D03*
X132122000Y-58170000D03*
X132122000Y-60710000D03*
X132122000Y-63250000D03*
X132122000Y-65790000D03*
X132122000Y-68330000D03*
X132122000Y-70870000D03*
X132122000Y-73410000D03*
X132122000Y-75950000D03*
X132122000Y-78490000D03*
X132122000Y-81030000D03*
X132122000Y-83570000D03*
X132122000Y-86110000D03*
X132122000Y-88650000D03*
D11*
X114341000Y-40400000D03*
D12*
X114341000Y-42940000D03*
X114341000Y-45480000D03*
X114341000Y-48020000D03*
X114341000Y-50560000D03*
X114341000Y-53100000D03*
X114341000Y-55640000D03*
X114341000Y-58180000D03*
X114341000Y-60720000D03*
X114341000Y-63260000D03*
X114341000Y-65800000D03*
X114341000Y-68340000D03*
X114341000Y-70880000D03*
X114341000Y-73420000D03*
X114341000Y-75960000D03*
X114341000Y-78500000D03*
X114341000Y-81040000D03*
X114341000Y-83580000D03*
X114341000Y-86120000D03*
X114341000Y-88660000D03*
D11*
X109342000Y-40390000D03*
D12*
X109342000Y-42930000D03*
X109342000Y-45470000D03*
X109342000Y-48010000D03*
X109342000Y-50550000D03*
X109342000Y-53090000D03*
X109342000Y-55630000D03*
X109342000Y-58170000D03*
X109342000Y-60710000D03*
X109342000Y-63250000D03*
X109342000Y-65790000D03*
X109342000Y-68330000D03*
X109342000Y-70870000D03*
X109342000Y-73410000D03*
X109342000Y-75950000D03*
X109342000Y-78490000D03*
X109342000Y-81030000D03*
X109342000Y-83570000D03*
X109342000Y-86110000D03*
X109342000Y-88650000D03*
D11*
X89022000Y-40390000D03*
D12*
X89022000Y-42930000D03*
X89022000Y-45470000D03*
X89022000Y-48010000D03*
X89022000Y-50550000D03*
X89022000Y-53090000D03*
X89022000Y-55630000D03*
X89022000Y-58170000D03*
X89022000Y-60710000D03*
X89022000Y-63250000D03*
X89022000Y-65790000D03*
X89022000Y-68330000D03*
X89022000Y-70870000D03*
X89022000Y-73410000D03*
X89022000Y-75950000D03*
X89022000Y-78490000D03*
X89022000Y-81030000D03*
X89022000Y-83570000D03*
X89022000Y-86110000D03*
X89022000Y-88650000D03*
D13*
X94552000Y-92850000D03*
D14*
X98512000Y-92850000D03*
X102472000Y-92850000D03*
X106432000Y-92850000D03*
X110392000Y-92850000D03*
X114352000Y-92850000D03*
X118312000Y-92850000D03*
X122272000Y-92850000D03*
X126232000Y-92850000D03*
D11*
X161232000Y-42400000D03*
D12*
X161232000Y-44940000D03*
X158692000Y-42400000D03*
X158692000Y-44940000D03*
X156152000Y-42400000D03*
X156152000Y-44940000D03*
X153612000Y-42400000D03*
X153612000Y-44940000D03*
D15*
X166892000Y-90600000D03*
D16*
X81152331Y-54590000D03*
X81152331Y-79590000D03*
D17*
X82572331Y-61550000D03*
D18*
X82572331Y-64320000D03*
X82572331Y-67090000D03*
X82572331Y-69860000D03*
X82572331Y-72630000D03*
X79732331Y-62935000D03*
X79732331Y-65705000D03*
X79732331Y-68475000D03*
X79732331Y-71245000D03*
D11*
X161212000Y-89250000D03*
D12*
X161212000Y-91790000D03*
X158672000Y-89250000D03*
X158672000Y-91790000D03*
X156132000Y-89250000D03*
X156132000Y-91790000D03*
X153592000Y-89250000D03*
X153592000Y-91790000D03*
D15*
X166892000Y-43600000D03*
D19*
X159142000Y-69350000D03*
X159142000Y-76850000D03*
X159142000Y-84350000D03*
X156642000Y-71850000D03*
X156642000Y-81850000D03*
X169142000Y-81850000D03*
X169142000Y-71850000D03*
X159142000Y-49850000D03*
X159142000Y-57350000D03*
X159142000Y-64850000D03*
X156642000Y-52350000D03*
X156642000Y-62350000D03*
X169142000Y-62350000D03*
X169142000Y-52350000D03*
D20*
X147442000Y-54680000D03*
D21*
X144942000Y-54680000D03*
X142942000Y-54680000D03*
X140442000Y-54680000D03*
X147442000Y-52060000D03*
X144942000Y-52060000D03*
X142942000Y-52060000D03*
X140442000Y-52060000D03*
D22*
X150512000Y-55030000D03*
X150512000Y-49350000D03*
X137372000Y-55030000D03*
X137372000Y-49350000D03*
D15*
X76892000Y-43600000D03*
X76892000Y-90600000D03*
D20*
X140442000Y-79470000D03*
D21*
X142942000Y-79470000D03*
X144942000Y-79470000D03*
X147442000Y-79470000D03*
X140442000Y-82090000D03*
X142942000Y-82090000D03*
X144942000Y-82090000D03*
X147442000Y-82090000D03*
D22*
X137372000Y-79120000D03*
X137372000Y-84800000D03*
X150512000Y-79120000D03*
X150512000Y-84800000D03*
%LPD*%
M02*
