%TF.GenerationSoftware,KiCad,Pcbnew,8.0.7*%
%TF.CreationDate,2024-12-28T15:26:56+01:00*%
%TF.ProjectId,MiSTery_DS2_Breakout,4d695354-6572-4795-9f44-53325f427265,rev?*%
%TF.SameCoordinates,Original*%
%TF.FileFunction,Legend,Bot*%
%TF.FilePolarity,Positive*%
%FSLAX46Y46*%
G04 Gerber Fmt 4.6, Leading zero omitted, Abs format (unit mm)*
G04 Created by KiCad (PCBNEW 8.0.7) date 2024-12-28 15:26:56*
%MOMM*%
%LPD*%
G01*
G04 APERTURE LIST*
%ADD10C,0.100000*%
%ADD11C,0.010000*%
G04 APERTURE END LIST*
D10*
X168653734Y-103021713D02*
X168606115Y-102974094D01*
X168606115Y-102974094D02*
X168510877Y-102926475D01*
X168510877Y-102926475D02*
X168272782Y-102926475D01*
X168272782Y-102926475D02*
X168177544Y-102974094D01*
X168177544Y-102974094D02*
X168129925Y-103021713D01*
X168129925Y-103021713D02*
X168082306Y-103116951D01*
X168082306Y-103116951D02*
X168082306Y-103212189D01*
X168082306Y-103212189D02*
X168129925Y-103355046D01*
X168129925Y-103355046D02*
X168701353Y-103926475D01*
X168701353Y-103926475D02*
X168082306Y-103926475D01*
X167463258Y-102926475D02*
X167368020Y-102926475D01*
X167368020Y-102926475D02*
X167272782Y-102974094D01*
X167272782Y-102974094D02*
X167225163Y-103021713D01*
X167225163Y-103021713D02*
X167177544Y-103116951D01*
X167177544Y-103116951D02*
X167129925Y-103307427D01*
X167129925Y-103307427D02*
X167129925Y-103545522D01*
X167129925Y-103545522D02*
X167177544Y-103735998D01*
X167177544Y-103735998D02*
X167225163Y-103831236D01*
X167225163Y-103831236D02*
X167272782Y-103878856D01*
X167272782Y-103878856D02*
X167368020Y-103926475D01*
X167368020Y-103926475D02*
X167463258Y-103926475D01*
X167463258Y-103926475D02*
X167558496Y-103878856D01*
X167558496Y-103878856D02*
X167606115Y-103831236D01*
X167606115Y-103831236D02*
X167653734Y-103735998D01*
X167653734Y-103735998D02*
X167701353Y-103545522D01*
X167701353Y-103545522D02*
X167701353Y-103307427D01*
X167701353Y-103307427D02*
X167653734Y-103116951D01*
X167653734Y-103116951D02*
X167606115Y-103021713D01*
X167606115Y-103021713D02*
X167558496Y-102974094D01*
X167558496Y-102974094D02*
X167463258Y-102926475D01*
X166748972Y-103021713D02*
X166701353Y-102974094D01*
X166701353Y-102974094D02*
X166606115Y-102926475D01*
X166606115Y-102926475D02*
X166368020Y-102926475D01*
X166368020Y-102926475D02*
X166272782Y-102974094D01*
X166272782Y-102974094D02*
X166225163Y-103021713D01*
X166225163Y-103021713D02*
X166177544Y-103116951D01*
X166177544Y-103116951D02*
X166177544Y-103212189D01*
X166177544Y-103212189D02*
X166225163Y-103355046D01*
X166225163Y-103355046D02*
X166796591Y-103926475D01*
X166796591Y-103926475D02*
X166177544Y-103926475D01*
X165320401Y-103259808D02*
X165320401Y-103926475D01*
X165558496Y-102878856D02*
X165796591Y-103593141D01*
X165796591Y-103593141D02*
X165177544Y-103593141D01*
X168606115Y-105536419D02*
X168606115Y-104536419D01*
X168606115Y-104917371D02*
X168510877Y-104869752D01*
X168510877Y-104869752D02*
X168320401Y-104869752D01*
X168320401Y-104869752D02*
X168225163Y-104917371D01*
X168225163Y-104917371D02*
X168177544Y-104964990D01*
X168177544Y-104964990D02*
X168129925Y-105060228D01*
X168129925Y-105060228D02*
X168129925Y-105345942D01*
X168129925Y-105345942D02*
X168177544Y-105441180D01*
X168177544Y-105441180D02*
X168225163Y-105488800D01*
X168225163Y-105488800D02*
X168320401Y-105536419D01*
X168320401Y-105536419D02*
X168510877Y-105536419D01*
X168510877Y-105536419D02*
X168606115Y-105488800D01*
X167796591Y-104869752D02*
X167558496Y-105536419D01*
X167320401Y-104869752D02*
X167558496Y-105536419D01*
X167558496Y-105536419D02*
X167653734Y-105774514D01*
X167653734Y-105774514D02*
X167701353Y-105822133D01*
X167701353Y-105822133D02*
X167796591Y-105869752D01*
X166272781Y-104869752D02*
X166034686Y-105536419D01*
X166034686Y-105536419D02*
X165796591Y-104869752D01*
X165034686Y-105488800D02*
X165129924Y-105536419D01*
X165129924Y-105536419D02*
X165320400Y-105536419D01*
X165320400Y-105536419D02*
X165415638Y-105488800D01*
X165415638Y-105488800D02*
X165463257Y-105393561D01*
X165463257Y-105393561D02*
X165463257Y-105012609D01*
X165463257Y-105012609D02*
X165415638Y-104917371D01*
X165415638Y-104917371D02*
X165320400Y-104869752D01*
X165320400Y-104869752D02*
X165129924Y-104869752D01*
X165129924Y-104869752D02*
X165034686Y-104917371D01*
X165034686Y-104917371D02*
X164987067Y-105012609D01*
X164987067Y-105012609D02*
X164987067Y-105107847D01*
X164987067Y-105107847D02*
X165463257Y-105203085D01*
X164558495Y-104869752D02*
X164558495Y-105536419D01*
X164558495Y-104964990D02*
X164510876Y-104917371D01*
X164510876Y-104917371D02*
X164415638Y-104869752D01*
X164415638Y-104869752D02*
X164272781Y-104869752D01*
X164272781Y-104869752D02*
X164177543Y-104917371D01*
X164177543Y-104917371D02*
X164129924Y-105012609D01*
X164129924Y-105012609D02*
X164129924Y-105536419D01*
X163653733Y-105536419D02*
X163653733Y-104869752D01*
X163653733Y-104536419D02*
X163701352Y-104584038D01*
X163701352Y-104584038D02*
X163653733Y-104631657D01*
X163653733Y-104631657D02*
X163606114Y-104584038D01*
X163606114Y-104584038D02*
X163653733Y-104536419D01*
X163653733Y-104536419D02*
X163653733Y-104631657D01*
X162748972Y-105488800D02*
X162844210Y-105536419D01*
X162844210Y-105536419D02*
X163034686Y-105536419D01*
X163034686Y-105536419D02*
X163129924Y-105488800D01*
X163129924Y-105488800D02*
X163177543Y-105441180D01*
X163177543Y-105441180D02*
X163225162Y-105345942D01*
X163225162Y-105345942D02*
X163225162Y-105060228D01*
X163225162Y-105060228D02*
X163177543Y-104964990D01*
X163177543Y-104964990D02*
X163129924Y-104917371D01*
X163129924Y-104917371D02*
X163034686Y-104869752D01*
X163034686Y-104869752D02*
X162844210Y-104869752D01*
X162844210Y-104869752D02*
X162748972Y-104917371D01*
X161939448Y-105488800D02*
X162034686Y-105536419D01*
X162034686Y-105536419D02*
X162225162Y-105536419D01*
X162225162Y-105536419D02*
X162320400Y-105488800D01*
X162320400Y-105488800D02*
X162368019Y-105393561D01*
X162368019Y-105393561D02*
X162368019Y-105012609D01*
X162368019Y-105012609D02*
X162320400Y-104917371D01*
X162320400Y-104917371D02*
X162225162Y-104869752D01*
X162225162Y-104869752D02*
X162034686Y-104869752D01*
X162034686Y-104869752D02*
X161939448Y-104917371D01*
X161939448Y-104917371D02*
X161891829Y-105012609D01*
X161891829Y-105012609D02*
X161891829Y-105107847D01*
X161891829Y-105107847D02*
X162368019Y-105203085D01*
X160939448Y-105536419D02*
X161510876Y-105536419D01*
X161225162Y-105536419D02*
X161225162Y-104536419D01*
X161225162Y-104536419D02*
X161320400Y-104679276D01*
X161320400Y-104679276D02*
X161415638Y-104774514D01*
X161415638Y-104774514D02*
X161510876Y-104822133D01*
X160558495Y-104631657D02*
X160510876Y-104584038D01*
X160510876Y-104584038D02*
X160415638Y-104536419D01*
X160415638Y-104536419D02*
X160177543Y-104536419D01*
X160177543Y-104536419D02*
X160082305Y-104584038D01*
X160082305Y-104584038D02*
X160034686Y-104631657D01*
X160034686Y-104631657D02*
X159987067Y-104726895D01*
X159987067Y-104726895D02*
X159987067Y-104822133D01*
X159987067Y-104822133D02*
X160034686Y-104964990D01*
X160034686Y-104964990D02*
X160606114Y-105536419D01*
X160606114Y-105536419D02*
X159987067Y-105536419D01*
X159368019Y-104536419D02*
X159272781Y-104536419D01*
X159272781Y-104536419D02*
X159177543Y-104584038D01*
X159177543Y-104584038D02*
X159129924Y-104631657D01*
X159129924Y-104631657D02*
X159082305Y-104726895D01*
X159082305Y-104726895D02*
X159034686Y-104917371D01*
X159034686Y-104917371D02*
X159034686Y-105155466D01*
X159034686Y-105155466D02*
X159082305Y-105345942D01*
X159082305Y-105345942D02*
X159129924Y-105441180D01*
X159129924Y-105441180D02*
X159177543Y-105488800D01*
X159177543Y-105488800D02*
X159272781Y-105536419D01*
X159272781Y-105536419D02*
X159368019Y-105536419D01*
X159368019Y-105536419D02*
X159463257Y-105488800D01*
X159463257Y-105488800D02*
X159510876Y-105441180D01*
X159510876Y-105441180D02*
X159558495Y-105345942D01*
X159558495Y-105345942D02*
X159606114Y-105155466D01*
X159606114Y-105155466D02*
X159606114Y-104917371D01*
X159606114Y-104917371D02*
X159558495Y-104726895D01*
X159558495Y-104726895D02*
X159510876Y-104631657D01*
X159510876Y-104631657D02*
X159463257Y-104584038D01*
X159463257Y-104584038D02*
X159368019Y-104536419D01*
X158415638Y-104536419D02*
X158320400Y-104536419D01*
X158320400Y-104536419D02*
X158225162Y-104584038D01*
X158225162Y-104584038D02*
X158177543Y-104631657D01*
X158177543Y-104631657D02*
X158129924Y-104726895D01*
X158129924Y-104726895D02*
X158082305Y-104917371D01*
X158082305Y-104917371D02*
X158082305Y-105155466D01*
X158082305Y-105155466D02*
X158129924Y-105345942D01*
X158129924Y-105345942D02*
X158177543Y-105441180D01*
X158177543Y-105441180D02*
X158225162Y-105488800D01*
X158225162Y-105488800D02*
X158320400Y-105536419D01*
X158320400Y-105536419D02*
X158415638Y-105536419D01*
X158415638Y-105536419D02*
X158510876Y-105488800D01*
X158510876Y-105488800D02*
X158558495Y-105441180D01*
X158558495Y-105441180D02*
X158606114Y-105345942D01*
X158606114Y-105345942D02*
X158653733Y-105155466D01*
X158653733Y-105155466D02*
X158653733Y-104917371D01*
X158653733Y-104917371D02*
X158606114Y-104726895D01*
X158606114Y-104726895D02*
X158558495Y-104631657D01*
X158558495Y-104631657D02*
X158510876Y-104584038D01*
X158510876Y-104584038D02*
X158415638Y-104536419D01*
D11*
%TO.C,H1*%
X185340260Y-101690788D02*
X185423011Y-101717991D01*
X185498104Y-101763422D01*
X185569996Y-101829240D01*
X185608544Y-101873505D01*
X185647954Y-101931899D01*
X185673144Y-101992524D01*
X185686559Y-102061803D01*
X185690646Y-102146160D01*
X185690367Y-102192245D01*
X185688158Y-102233388D01*
X185682592Y-102265520D01*
X185672284Y-102296060D01*
X185655846Y-102332427D01*
X185641898Y-102359666D01*
X185583363Y-102445367D01*
X185511317Y-102514555D01*
X185427645Y-102565679D01*
X185334229Y-102597188D01*
X185301132Y-102604163D01*
X185260658Y-102611032D01*
X185227697Y-102612857D01*
X185193396Y-102609885D01*
X185148898Y-102602364D01*
X185097632Y-102589940D01*
X185007132Y-102552050D01*
X184928043Y-102497774D01*
X184862226Y-102429708D01*
X184811538Y-102350449D01*
X184777838Y-102262592D01*
X184762984Y-102168733D01*
X184768834Y-102071468D01*
X184795097Y-101975158D01*
X184840116Y-101886432D01*
X184901071Y-101811357D01*
X184975882Y-101751579D01*
X185062466Y-101708747D01*
X185158741Y-101684509D01*
X185262626Y-101680514D01*
X185340260Y-101690788D01*
G36*
X185340260Y-101690788D02*
G01*
X185423011Y-101717991D01*
X185498104Y-101763422D01*
X185569996Y-101829240D01*
X185608544Y-101873505D01*
X185647954Y-101931899D01*
X185673144Y-101992524D01*
X185686559Y-102061803D01*
X185690646Y-102146160D01*
X185690367Y-102192245D01*
X185688158Y-102233388D01*
X185682592Y-102265520D01*
X185672284Y-102296060D01*
X185655846Y-102332427D01*
X185641898Y-102359666D01*
X185583363Y-102445367D01*
X185511317Y-102514555D01*
X185427645Y-102565679D01*
X185334229Y-102597188D01*
X185301132Y-102604163D01*
X185260658Y-102611032D01*
X185227697Y-102612857D01*
X185193396Y-102609885D01*
X185148898Y-102602364D01*
X185097632Y-102589940D01*
X185007132Y-102552050D01*
X184928043Y-102497774D01*
X184862226Y-102429708D01*
X184811538Y-102350449D01*
X184777838Y-102262592D01*
X184762984Y-102168733D01*
X184768834Y-102071468D01*
X184795097Y-101975158D01*
X184840116Y-101886432D01*
X184901071Y-101811357D01*
X184975882Y-101751579D01*
X185062466Y-101708747D01*
X185158741Y-101684509D01*
X185262626Y-101680514D01*
X185340260Y-101690788D01*
G37*
X182874409Y-102619971D02*
X182969966Y-102637461D01*
X183134256Y-102682502D01*
X183288287Y-102745594D01*
X183434207Y-102827853D01*
X183574164Y-102930395D01*
X183710306Y-103054337D01*
X183754171Y-103099599D01*
X183866456Y-103231803D01*
X183959670Y-103369770D01*
X184036417Y-103517688D01*
X184099301Y-103679741D01*
X184103118Y-103691329D01*
X184153205Y-103877330D01*
X184186597Y-104073459D01*
X184203282Y-104275506D01*
X184203249Y-104479263D01*
X184186489Y-104680519D01*
X184152990Y-104875066D01*
X184102742Y-105058694D01*
X184058888Y-105175991D01*
X183981046Y-105338889D01*
X183887526Y-105492804D01*
X183780520Y-105634609D01*
X183662217Y-105761177D01*
X183534809Y-105869379D01*
X183457304Y-105922058D01*
X183330423Y-105991688D01*
X183192941Y-106050406D01*
X183051414Y-106095525D01*
X182912400Y-106124360D01*
X182898295Y-106126044D01*
X182854851Y-106129372D01*
X182797421Y-106132213D01*
X182731820Y-106134311D01*
X182663865Y-106135406D01*
X182537076Y-106133078D01*
X182389371Y-106120074D01*
X182251477Y-106095071D01*
X182117712Y-106057256D01*
X182094260Y-106048827D01*
X182046310Y-106029346D01*
X181989838Y-106004411D01*
X181928077Y-105975660D01*
X181864261Y-105944728D01*
X181801624Y-105913253D01*
X181743401Y-105882872D01*
X181692825Y-105855221D01*
X181653131Y-105831937D01*
X181627552Y-105814656D01*
X181619323Y-105805017D01*
X181620774Y-105801922D01*
X181631948Y-105782017D01*
X181652832Y-105746358D01*
X181681963Y-105697397D01*
X181717879Y-105637584D01*
X181759118Y-105569371D01*
X181804215Y-105495209D01*
X181985483Y-105197946D01*
X182032013Y-105242477D01*
X182123421Y-105320803D01*
X182237032Y-105395377D01*
X182354820Y-105449412D01*
X182475257Y-105482228D01*
X182596815Y-105493149D01*
X182638283Y-105491806D01*
X182755778Y-105473550D01*
X182865787Y-105434555D01*
X182967128Y-105375608D01*
X183058619Y-105297495D01*
X183139078Y-105201002D01*
X183207325Y-105086916D01*
X183223606Y-105052662D01*
X183269680Y-104929178D01*
X183304804Y-104790856D01*
X183328895Y-104641499D01*
X183341871Y-104484911D01*
X183343647Y-104324894D01*
X183334141Y-104165252D01*
X183313270Y-104009788D01*
X183280950Y-103862304D01*
X183237097Y-103726605D01*
X183199680Y-103640014D01*
X183134883Y-103526626D01*
X183059470Y-103433008D01*
X182973116Y-103358897D01*
X182875493Y-103304032D01*
X182766275Y-103268150D01*
X182645137Y-103250989D01*
X182575736Y-103249818D01*
X182452866Y-103264079D01*
X182337362Y-103299179D01*
X182230651Y-103354620D01*
X182134162Y-103429902D01*
X182118418Y-103444378D01*
X182087848Y-103470900D01*
X182065507Y-103488076D01*
X182055389Y-103492725D01*
X182053404Y-103490535D01*
X182038939Y-103471659D01*
X182015098Y-103438335D01*
X181983727Y-103393318D01*
X181946672Y-103339363D01*
X181905781Y-103279223D01*
X181862900Y-103215656D01*
X181819876Y-103151414D01*
X181778555Y-103089253D01*
X181740784Y-103031929D01*
X181708410Y-102982195D01*
X181683280Y-102942806D01*
X181667240Y-102916518D01*
X181662137Y-102906085D01*
X181666748Y-102901879D01*
X181685965Y-102896871D01*
X181695536Y-102894324D01*
X181723507Y-102883187D01*
X181765146Y-102864740D01*
X181816693Y-102840663D01*
X181874388Y-102812637D01*
X181885655Y-102807092D01*
X182063385Y-102727827D01*
X182233188Y-102668323D01*
X182397128Y-102628183D01*
X182557269Y-102607009D01*
X182715675Y-102604404D01*
X182874409Y-102619971D01*
G36*
X182874409Y-102619971D02*
G01*
X182969966Y-102637461D01*
X183134256Y-102682502D01*
X183288287Y-102745594D01*
X183434207Y-102827853D01*
X183574164Y-102930395D01*
X183710306Y-103054337D01*
X183754171Y-103099599D01*
X183866456Y-103231803D01*
X183959670Y-103369770D01*
X184036417Y-103517688D01*
X184099301Y-103679741D01*
X184103118Y-103691329D01*
X184153205Y-103877330D01*
X184186597Y-104073459D01*
X184203282Y-104275506D01*
X184203249Y-104479263D01*
X184186489Y-104680519D01*
X184152990Y-104875066D01*
X184102742Y-105058694D01*
X184058888Y-105175991D01*
X183981046Y-105338889D01*
X183887526Y-105492804D01*
X183780520Y-105634609D01*
X183662217Y-105761177D01*
X183534809Y-105869379D01*
X183457304Y-105922058D01*
X183330423Y-105991688D01*
X183192941Y-106050406D01*
X183051414Y-106095525D01*
X182912400Y-106124360D01*
X182898295Y-106126044D01*
X182854851Y-106129372D01*
X182797421Y-106132213D01*
X182731820Y-106134311D01*
X182663865Y-106135406D01*
X182537076Y-106133078D01*
X182389371Y-106120074D01*
X182251477Y-106095071D01*
X182117712Y-106057256D01*
X182094260Y-106048827D01*
X182046310Y-106029346D01*
X181989838Y-106004411D01*
X181928077Y-105975660D01*
X181864261Y-105944728D01*
X181801624Y-105913253D01*
X181743401Y-105882872D01*
X181692825Y-105855221D01*
X181653131Y-105831937D01*
X181627552Y-105814656D01*
X181619323Y-105805017D01*
X181620774Y-105801922D01*
X181631948Y-105782017D01*
X181652832Y-105746358D01*
X181681963Y-105697397D01*
X181717879Y-105637584D01*
X181759118Y-105569371D01*
X181804215Y-105495209D01*
X181985483Y-105197946D01*
X182032013Y-105242477D01*
X182123421Y-105320803D01*
X182237032Y-105395377D01*
X182354820Y-105449412D01*
X182475257Y-105482228D01*
X182596815Y-105493149D01*
X182638283Y-105491806D01*
X182755778Y-105473550D01*
X182865787Y-105434555D01*
X182967128Y-105375608D01*
X183058619Y-105297495D01*
X183139078Y-105201002D01*
X183207325Y-105086916D01*
X183223606Y-105052662D01*
X183269680Y-104929178D01*
X183304804Y-104790856D01*
X183328895Y-104641499D01*
X183341871Y-104484911D01*
X183343647Y-104324894D01*
X183334141Y-104165252D01*
X183313270Y-104009788D01*
X183280950Y-103862304D01*
X183237097Y-103726605D01*
X183199680Y-103640014D01*
X183134883Y-103526626D01*
X183059470Y-103433008D01*
X182973116Y-103358897D01*
X182875493Y-103304032D01*
X182766275Y-103268150D01*
X182645137Y-103250989D01*
X182575736Y-103249818D01*
X182452866Y-103264079D01*
X182337362Y-103299179D01*
X182230651Y-103354620D01*
X182134162Y-103429902D01*
X182118418Y-103444378D01*
X182087848Y-103470900D01*
X182065507Y-103488076D01*
X182055389Y-103492725D01*
X182053404Y-103490535D01*
X182038939Y-103471659D01*
X182015098Y-103438335D01*
X181983727Y-103393318D01*
X181946672Y-103339363D01*
X181905781Y-103279223D01*
X181862900Y-103215656D01*
X181819876Y-103151414D01*
X181778555Y-103089253D01*
X181740784Y-103031929D01*
X181708410Y-102982195D01*
X181683280Y-102942806D01*
X181667240Y-102916518D01*
X181662137Y-102906085D01*
X181666748Y-102901879D01*
X181685965Y-102896871D01*
X181695536Y-102894324D01*
X181723507Y-102883187D01*
X181765146Y-102864740D01*
X181816693Y-102840663D01*
X181874388Y-102812637D01*
X181885655Y-102807092D01*
X182063385Y-102727827D01*
X182233188Y-102668323D01*
X182397128Y-102628183D01*
X182557269Y-102607009D01*
X182715675Y-102604404D01*
X182874409Y-102619971D01*
G37*
X179071692Y-104900649D02*
X179070966Y-104978096D01*
X179062387Y-105129532D01*
X179043531Y-105266221D01*
X179013535Y-105392214D01*
X178971534Y-105511563D01*
X178916667Y-105628319D01*
X178849865Y-105739117D01*
X178759061Y-105852677D01*
X178655406Y-105948149D01*
X178539585Y-106025011D01*
X178412284Y-106082735D01*
X178274187Y-106120796D01*
X178236491Y-106126604D01*
X178157450Y-106132334D01*
X178069327Y-106132521D01*
X177979934Y-106127477D01*
X177897082Y-106117516D01*
X177828585Y-106102950D01*
X177797733Y-106093302D01*
X177720428Y-106063061D01*
X177643377Y-106025555D01*
X177573898Y-105984552D01*
X177519313Y-105943817D01*
X177496614Y-105924443D01*
X177473899Y-105906600D01*
X177462477Y-105899716D01*
X177461235Y-105901362D01*
X177458426Y-105919143D01*
X177456474Y-105952308D01*
X177455743Y-105995671D01*
X177455743Y-106091627D01*
X176597594Y-106091627D01*
X176631859Y-106030912D01*
X176637053Y-106021806D01*
X176645413Y-106007187D01*
X176652986Y-105993111D01*
X176659810Y-105978478D01*
X176665925Y-105962187D01*
X176671371Y-105943136D01*
X176676185Y-105920224D01*
X176680406Y-105892351D01*
X176684075Y-105858416D01*
X176687229Y-105817317D01*
X176689909Y-105767953D01*
X176692152Y-105709224D01*
X176693997Y-105640028D01*
X176695485Y-105559264D01*
X176696653Y-105465832D01*
X176697542Y-105358630D01*
X176698189Y-105236558D01*
X176698634Y-105098514D01*
X176698916Y-104943397D01*
X176699073Y-104770106D01*
X176699146Y-104577541D01*
X176699172Y-104364600D01*
X176699183Y-104228468D01*
X177500898Y-104228468D01*
X177500898Y-105378659D01*
X177571454Y-105425027D01*
X177612115Y-105448729D01*
X177666244Y-105474577D01*
X177715387Y-105492767D01*
X177778863Y-105508489D01*
X177875029Y-105519479D01*
X177959598Y-105511303D01*
X178032917Y-105483743D01*
X178095335Y-105436580D01*
X178147200Y-105369596D01*
X178188858Y-105282571D01*
X178220660Y-105175288D01*
X178223243Y-105162947D01*
X178231698Y-105101710D01*
X178237361Y-105024630D01*
X178240274Y-104936940D01*
X178240481Y-104843872D01*
X178238028Y-104750658D01*
X178232959Y-104662532D01*
X178225317Y-104584726D01*
X178215146Y-104522471D01*
X178213865Y-104516604D01*
X178184824Y-104406059D01*
X178150308Y-104315513D01*
X178109154Y-104242891D01*
X178060197Y-104186119D01*
X178002272Y-104143122D01*
X177970318Y-104127553D01*
X177897482Y-104108660D01*
X177816141Y-104105403D01*
X177731017Y-104117327D01*
X177646831Y-104143978D01*
X177568306Y-104184900D01*
X177500898Y-104228468D01*
X176699183Y-104228468D01*
X176699191Y-104130183D01*
X176699387Y-102445316D01*
X177604715Y-102445316D01*
X177580283Y-102482005D01*
X177574016Y-102491585D01*
X177547906Y-102537919D01*
X177530167Y-102585040D01*
X177518606Y-102640189D01*
X177511029Y-102710605D01*
X177510537Y-102717588D01*
X177508760Y-102755579D01*
X177507142Y-102809514D01*
X177505697Y-102876641D01*
X177504438Y-102954209D01*
X177503378Y-103039466D01*
X177502527Y-103129662D01*
X177501901Y-103222045D01*
X177501510Y-103313863D01*
X177501368Y-103402365D01*
X177501488Y-103484800D01*
X177501881Y-103558417D01*
X177502560Y-103620464D01*
X177503539Y-103668189D01*
X177504830Y-103698842D01*
X177506445Y-103709671D01*
X177514655Y-103705271D01*
X177536345Y-103690300D01*
X177565712Y-103668386D01*
X177614577Y-103634174D01*
X177702823Y-103587652D01*
X177801614Y-103553984D01*
X177914208Y-103532169D01*
X178043862Y-103521203D01*
X178136368Y-103520157D01*
X178257709Y-103529952D01*
X178367797Y-103554112D01*
X178471087Y-103593723D01*
X178572036Y-103649870D01*
X178617201Y-103680821D01*
X178722609Y-103772053D01*
X178814236Y-103881044D01*
X178892030Y-104007664D01*
X178955939Y-104151783D01*
X179005912Y-104313270D01*
X179041896Y-104491997D01*
X179063841Y-104687833D01*
X179069598Y-104843872D01*
X179071692Y-104900649D01*
G36*
X179071692Y-104900649D02*
G01*
X179070966Y-104978096D01*
X179062387Y-105129532D01*
X179043531Y-105266221D01*
X179013535Y-105392214D01*
X178971534Y-105511563D01*
X178916667Y-105628319D01*
X178849865Y-105739117D01*
X178759061Y-105852677D01*
X178655406Y-105948149D01*
X178539585Y-106025011D01*
X178412284Y-106082735D01*
X178274187Y-106120796D01*
X178236491Y-106126604D01*
X178157450Y-106132334D01*
X178069327Y-106132521D01*
X177979934Y-106127477D01*
X177897082Y-106117516D01*
X177828585Y-106102950D01*
X177797733Y-106093302D01*
X177720428Y-106063061D01*
X177643377Y-106025555D01*
X177573898Y-105984552D01*
X177519313Y-105943817D01*
X177496614Y-105924443D01*
X177473899Y-105906600D01*
X177462477Y-105899716D01*
X177461235Y-105901362D01*
X177458426Y-105919143D01*
X177456474Y-105952308D01*
X177455743Y-105995671D01*
X177455743Y-106091627D01*
X176597594Y-106091627D01*
X176631859Y-106030912D01*
X176637053Y-106021806D01*
X176645413Y-106007187D01*
X176652986Y-105993111D01*
X176659810Y-105978478D01*
X176665925Y-105962187D01*
X176671371Y-105943136D01*
X176676185Y-105920224D01*
X176680406Y-105892351D01*
X176684075Y-105858416D01*
X176687229Y-105817317D01*
X176689909Y-105767953D01*
X176692152Y-105709224D01*
X176693997Y-105640028D01*
X176695485Y-105559264D01*
X176696653Y-105465832D01*
X176697542Y-105358630D01*
X176698189Y-105236558D01*
X176698634Y-105098514D01*
X176698916Y-104943397D01*
X176699073Y-104770106D01*
X176699146Y-104577541D01*
X176699172Y-104364600D01*
X176699183Y-104228468D01*
X177500898Y-104228468D01*
X177500898Y-105378659D01*
X177571454Y-105425027D01*
X177612115Y-105448729D01*
X177666244Y-105474577D01*
X177715387Y-105492767D01*
X177778863Y-105508489D01*
X177875029Y-105519479D01*
X177959598Y-105511303D01*
X178032917Y-105483743D01*
X178095335Y-105436580D01*
X178147200Y-105369596D01*
X178188858Y-105282571D01*
X178220660Y-105175288D01*
X178223243Y-105162947D01*
X178231698Y-105101710D01*
X178237361Y-105024630D01*
X178240274Y-104936940D01*
X178240481Y-104843872D01*
X178238028Y-104750658D01*
X178232959Y-104662532D01*
X178225317Y-104584726D01*
X178215146Y-104522471D01*
X178213865Y-104516604D01*
X178184824Y-104406059D01*
X178150308Y-104315513D01*
X178109154Y-104242891D01*
X178060197Y-104186119D01*
X178002272Y-104143122D01*
X177970318Y-104127553D01*
X177897482Y-104108660D01*
X177816141Y-104105403D01*
X177731017Y-104117327D01*
X177646831Y-104143978D01*
X177568306Y-104184900D01*
X177500898Y-104228468D01*
X176699183Y-104228468D01*
X176699191Y-104130183D01*
X176699387Y-102445316D01*
X177604715Y-102445316D01*
X177580283Y-102482005D01*
X177574016Y-102491585D01*
X177547906Y-102537919D01*
X177530167Y-102585040D01*
X177518606Y-102640189D01*
X177511029Y-102710605D01*
X177510537Y-102717588D01*
X177508760Y-102755579D01*
X177507142Y-102809514D01*
X177505697Y-102876641D01*
X177504438Y-102954209D01*
X177503378Y-103039466D01*
X177502527Y-103129662D01*
X177501901Y-103222045D01*
X177501510Y-103313863D01*
X177501368Y-103402365D01*
X177501488Y-103484800D01*
X177501881Y-103558417D01*
X177502560Y-103620464D01*
X177503539Y-103668189D01*
X177504830Y-103698842D01*
X177506445Y-103709671D01*
X177514655Y-103705271D01*
X177536345Y-103690300D01*
X177565712Y-103668386D01*
X177614577Y-103634174D01*
X177702823Y-103587652D01*
X177801614Y-103553984D01*
X177914208Y-103532169D01*
X178043862Y-103521203D01*
X178136368Y-103520157D01*
X178257709Y-103529952D01*
X178367797Y-103554112D01*
X178471087Y-103593723D01*
X178572036Y-103649870D01*
X178617201Y-103680821D01*
X178722609Y-103772053D01*
X178814236Y-103881044D01*
X178892030Y-104007664D01*
X178955939Y-104151783D01*
X179005912Y-104313270D01*
X179041896Y-104491997D01*
X179063841Y-104687833D01*
X179069598Y-104843872D01*
X179071692Y-104900649D01*
G37*
X181613453Y-105301405D02*
X181612959Y-105335301D01*
X181609330Y-105410140D01*
X181601720Y-105472339D01*
X181589386Y-105528922D01*
X181545011Y-105655014D01*
X181482098Y-105769617D01*
X181401936Y-105870506D01*
X181305438Y-105956862D01*
X181193520Y-106027870D01*
X181067095Y-106082714D01*
X180927076Y-106120576D01*
X180890847Y-106126289D01*
X180811853Y-106132251D01*
X180723539Y-106132584D01*
X180633773Y-106127597D01*
X180550420Y-106117604D01*
X180481349Y-106102916D01*
X180394885Y-106072687D01*
X180284984Y-106017995D01*
X180187654Y-105950481D01*
X180125565Y-105899494D01*
X180122303Y-105995560D01*
X180119041Y-106091627D01*
X179696148Y-106091627D01*
X179685241Y-106091624D01*
X179590754Y-106091318D01*
X179504029Y-106090554D01*
X179427535Y-106089389D01*
X179363741Y-106087880D01*
X179315116Y-106086085D01*
X179284131Y-106084059D01*
X179273254Y-106081860D01*
X179273276Y-106081401D01*
X179280312Y-106065848D01*
X179296132Y-106043009D01*
X179300432Y-106037576D01*
X179311475Y-106023544D01*
X179321009Y-106010124D01*
X179329159Y-105995660D01*
X179336050Y-105978494D01*
X179341809Y-105956972D01*
X179346560Y-105929436D01*
X179350429Y-105894230D01*
X179353542Y-105849698D01*
X179356023Y-105794184D01*
X179357998Y-105726031D01*
X179359592Y-105643583D01*
X179360932Y-105545184D01*
X179362142Y-105429177D01*
X179363347Y-105293906D01*
X179364293Y-105182524D01*
X180165076Y-105182524D01*
X180165076Y-105378400D01*
X180209746Y-105434911D01*
X180222483Y-105450150D01*
X180269302Y-105492782D01*
X180329953Y-105528610D01*
X180340595Y-105533788D01*
X180379374Y-105550683D01*
X180414390Y-105560847D01*
X180454420Y-105566263D01*
X180508239Y-105568916D01*
X180526346Y-105569321D01*
X180601709Y-105566478D01*
X180662441Y-105554558D01*
X180714150Y-105531975D01*
X180762444Y-105497149D01*
X180767501Y-105492736D01*
X180815970Y-105437098D01*
X180844157Y-105373271D01*
X180853450Y-105298220D01*
X180846218Y-105226631D01*
X180821494Y-105163583D01*
X180776947Y-105105696D01*
X180722017Y-105058746D01*
X180649592Y-105018899D01*
X180563038Y-104991201D01*
X180460368Y-104975034D01*
X180339592Y-104969780D01*
X180330705Y-104969795D01*
X180275358Y-104970593D01*
X180228434Y-104972426D01*
X180194651Y-104975049D01*
X180178726Y-104978212D01*
X180174641Y-104984679D01*
X180170270Y-105006813D01*
X180167302Y-105045926D01*
X180165612Y-105103877D01*
X180165076Y-105182524D01*
X179364293Y-105182524D01*
X179364673Y-105137716D01*
X179365926Y-104994950D01*
X179367349Y-104849880D01*
X179368874Y-104723965D01*
X179370631Y-104615374D01*
X179372749Y-104522272D01*
X179375358Y-104442829D01*
X179378588Y-104375211D01*
X179382567Y-104317587D01*
X179387426Y-104268123D01*
X179393295Y-104224988D01*
X179400302Y-104186348D01*
X179408578Y-104150372D01*
X179418252Y-104115227D01*
X179429454Y-104079080D01*
X179442314Y-104040099D01*
X179457788Y-103997029D01*
X179500692Y-103904809D01*
X179554433Y-103825037D01*
X179623274Y-103750903D01*
X179700883Y-103687343D01*
X179805459Y-103625663D01*
X179924942Y-103578140D01*
X180060206Y-103544505D01*
X180212124Y-103524490D01*
X180381570Y-103517827D01*
X180439588Y-103518225D01*
X180505096Y-103520273D01*
X180566391Y-103524642D01*
X180627795Y-103531973D01*
X180693630Y-103542907D01*
X180768218Y-103558085D01*
X180855882Y-103578147D01*
X180960943Y-103603735D01*
X180989504Y-103610758D01*
X181064752Y-103628714D01*
X181135086Y-103644758D01*
X181196265Y-103657966D01*
X181244052Y-103667412D01*
X181274209Y-103672169D01*
X181302481Y-103675848D01*
X181328758Y-103681125D01*
X181338757Y-103685880D01*
X181335650Y-103694719D01*
X181324892Y-103722010D01*
X181307562Y-103764844D01*
X181284824Y-103820363D01*
X181257845Y-103885710D01*
X181227788Y-103958027D01*
X181221191Y-103973817D01*
X181182605Y-104064422D01*
X181151466Y-104134155D01*
X181127615Y-104183343D01*
X181110896Y-104212312D01*
X181101152Y-104221390D01*
X181093464Y-104219343D01*
X181067113Y-104209698D01*
X181028680Y-104194128D01*
X180983520Y-104174753D01*
X180888991Y-104136752D01*
X180752178Y-104095718D01*
X180610987Y-104070550D01*
X180573012Y-104066549D01*
X180469757Y-104064385D01*
X180382650Y-104077560D01*
X180310827Y-104106694D01*
X180253429Y-104152404D01*
X180209594Y-104215310D01*
X180178460Y-104296030D01*
X180159168Y-104395183D01*
X180151748Y-104454162D01*
X180313634Y-104447383D01*
X180440193Y-104445751D01*
X180591649Y-104452132D01*
X180740094Y-104466715D01*
X180876276Y-104488820D01*
X180940943Y-104503759D01*
X181073188Y-104546679D01*
X181195460Y-104603278D01*
X181305383Y-104671955D01*
X181400581Y-104751108D01*
X181478678Y-104839134D01*
X181537297Y-104934431D01*
X181561293Y-104986802D01*
X181586930Y-105057528D01*
X181603176Y-105128750D01*
X181611520Y-105207650D01*
X181613388Y-105298220D01*
X181613453Y-105301405D01*
G36*
X181613453Y-105301405D02*
G01*
X181612959Y-105335301D01*
X181609330Y-105410140D01*
X181601720Y-105472339D01*
X181589386Y-105528922D01*
X181545011Y-105655014D01*
X181482098Y-105769617D01*
X181401936Y-105870506D01*
X181305438Y-105956862D01*
X181193520Y-106027870D01*
X181067095Y-106082714D01*
X180927076Y-106120576D01*
X180890847Y-106126289D01*
X180811853Y-106132251D01*
X180723539Y-106132584D01*
X180633773Y-106127597D01*
X180550420Y-106117604D01*
X180481349Y-106102916D01*
X180394885Y-106072687D01*
X180284984Y-106017995D01*
X180187654Y-105950481D01*
X180125565Y-105899494D01*
X180122303Y-105995560D01*
X180119041Y-106091627D01*
X179696148Y-106091627D01*
X179685241Y-106091624D01*
X179590754Y-106091318D01*
X179504029Y-106090554D01*
X179427535Y-106089389D01*
X179363741Y-106087880D01*
X179315116Y-106086085D01*
X179284131Y-106084059D01*
X179273254Y-106081860D01*
X179273276Y-106081401D01*
X179280312Y-106065848D01*
X179296132Y-106043009D01*
X179300432Y-106037576D01*
X179311475Y-106023544D01*
X179321009Y-106010124D01*
X179329159Y-105995660D01*
X179336050Y-105978494D01*
X179341809Y-105956972D01*
X179346560Y-105929436D01*
X179350429Y-105894230D01*
X179353542Y-105849698D01*
X179356023Y-105794184D01*
X179357998Y-105726031D01*
X179359592Y-105643583D01*
X179360932Y-105545184D01*
X179362142Y-105429177D01*
X179363347Y-105293906D01*
X179364293Y-105182524D01*
X180165076Y-105182524D01*
X180165076Y-105378400D01*
X180209746Y-105434911D01*
X180222483Y-105450150D01*
X180269302Y-105492782D01*
X180329953Y-105528610D01*
X180340595Y-105533788D01*
X180379374Y-105550683D01*
X180414390Y-105560847D01*
X180454420Y-105566263D01*
X180508239Y-105568916D01*
X180526346Y-105569321D01*
X180601709Y-105566478D01*
X180662441Y-105554558D01*
X180714150Y-105531975D01*
X180762444Y-105497149D01*
X180767501Y-105492736D01*
X180815970Y-105437098D01*
X180844157Y-105373271D01*
X180853450Y-105298220D01*
X180846218Y-105226631D01*
X180821494Y-105163583D01*
X180776947Y-105105696D01*
X180722017Y-105058746D01*
X180649592Y-105018899D01*
X180563038Y-104991201D01*
X180460368Y-104975034D01*
X180339592Y-104969780D01*
X180330705Y-104969795D01*
X180275358Y-104970593D01*
X180228434Y-104972426D01*
X180194651Y-104975049D01*
X180178726Y-104978212D01*
X180174641Y-104984679D01*
X180170270Y-105006813D01*
X180167302Y-105045926D01*
X180165612Y-105103877D01*
X180165076Y-105182524D01*
X179364293Y-105182524D01*
X179364673Y-105137716D01*
X179365926Y-104994950D01*
X179367349Y-104849880D01*
X179368874Y-104723965D01*
X179370631Y-104615374D01*
X179372749Y-104522272D01*
X179375358Y-104442829D01*
X179378588Y-104375211D01*
X179382567Y-104317587D01*
X179387426Y-104268123D01*
X179393295Y-104224988D01*
X179400302Y-104186348D01*
X179408578Y-104150372D01*
X179418252Y-104115227D01*
X179429454Y-104079080D01*
X179442314Y-104040099D01*
X179457788Y-103997029D01*
X179500692Y-103904809D01*
X179554433Y-103825037D01*
X179623274Y-103750903D01*
X179700883Y-103687343D01*
X179805459Y-103625663D01*
X179924942Y-103578140D01*
X180060206Y-103544505D01*
X180212124Y-103524490D01*
X180381570Y-103517827D01*
X180439588Y-103518225D01*
X180505096Y-103520273D01*
X180566391Y-103524642D01*
X180627795Y-103531973D01*
X180693630Y-103542907D01*
X180768218Y-103558085D01*
X180855882Y-103578147D01*
X180960943Y-103603735D01*
X180989504Y-103610758D01*
X181064752Y-103628714D01*
X181135086Y-103644758D01*
X181196265Y-103657966D01*
X181244052Y-103667412D01*
X181274209Y-103672169D01*
X181302481Y-103675848D01*
X181328758Y-103681125D01*
X181338757Y-103685880D01*
X181335650Y-103694719D01*
X181324892Y-103722010D01*
X181307562Y-103764844D01*
X181284824Y-103820363D01*
X181257845Y-103885710D01*
X181227788Y-103958027D01*
X181221191Y-103973817D01*
X181182605Y-104064422D01*
X181151466Y-104134155D01*
X181127615Y-104183343D01*
X181110896Y-104212312D01*
X181101152Y-104221390D01*
X181093464Y-104219343D01*
X181067113Y-104209698D01*
X181028680Y-104194128D01*
X180983520Y-104174753D01*
X180888991Y-104136752D01*
X180752178Y-104095718D01*
X180610987Y-104070550D01*
X180573012Y-104066549D01*
X180469757Y-104064385D01*
X180382650Y-104077560D01*
X180310827Y-104106694D01*
X180253429Y-104152404D01*
X180209594Y-104215310D01*
X180178460Y-104296030D01*
X180159168Y-104395183D01*
X180151748Y-104454162D01*
X180313634Y-104447383D01*
X180440193Y-104445751D01*
X180591649Y-104452132D01*
X180740094Y-104466715D01*
X180876276Y-104488820D01*
X180940943Y-104503759D01*
X181073188Y-104546679D01*
X181195460Y-104603278D01*
X181305383Y-104671955D01*
X181400581Y-104751108D01*
X181478678Y-104839134D01*
X181537297Y-104934431D01*
X181561293Y-104986802D01*
X181586930Y-105057528D01*
X181603176Y-105128750D01*
X181611520Y-105207650D01*
X181613388Y-105298220D01*
X181613453Y-105301405D01*
G37*
X189161312Y-102769730D02*
X189161757Y-102900949D01*
X189162060Y-103048154D01*
X189162246Y-103212287D01*
X189162340Y-103394290D01*
X189162369Y-103595103D01*
X189162359Y-103815670D01*
X189162334Y-104056930D01*
X189162320Y-104319827D01*
X189162320Y-104361978D01*
X189162344Y-104622606D01*
X189162383Y-104861734D01*
X189162406Y-105080298D01*
X189162385Y-105279233D01*
X189162291Y-105459473D01*
X189162093Y-105621953D01*
X189161761Y-105767608D01*
X189161267Y-105897372D01*
X189160581Y-106012181D01*
X189159674Y-106112968D01*
X189158515Y-106200668D01*
X189157076Y-106276217D01*
X189155327Y-106340549D01*
X189153238Y-106394599D01*
X189150781Y-106439301D01*
X189147925Y-106475590D01*
X189144641Y-106504401D01*
X189140900Y-106526669D01*
X189136672Y-106543328D01*
X189131927Y-106555313D01*
X189126637Y-106563559D01*
X189120771Y-106569000D01*
X189114300Y-106572572D01*
X189107195Y-106575208D01*
X189099426Y-106577844D01*
X189090964Y-106581415D01*
X189086606Y-106583083D01*
X189078093Y-106585049D01*
X189065392Y-106586849D01*
X189047583Y-106588493D01*
X189023747Y-106589985D01*
X188992964Y-106591335D01*
X188954315Y-106592549D01*
X188906880Y-106593635D01*
X188849741Y-106594599D01*
X188781977Y-106595449D01*
X188702669Y-106596191D01*
X188610897Y-106596835D01*
X188505742Y-106597385D01*
X188386285Y-106597851D01*
X188251606Y-106598238D01*
X188100786Y-106598554D01*
X187932904Y-106598807D01*
X187747043Y-106599004D01*
X187542281Y-106599151D01*
X187317700Y-106599256D01*
X187072380Y-106599327D01*
X186805402Y-106599370D01*
X186767019Y-106599375D01*
X186501620Y-106599418D01*
X186257748Y-106599463D01*
X186034481Y-106599486D01*
X185830894Y-106599462D01*
X185646065Y-106599368D01*
X185479071Y-106599181D01*
X185328988Y-106598877D01*
X185194894Y-106598432D01*
X185075864Y-106597823D01*
X184970977Y-106597027D01*
X184879308Y-106596018D01*
X184799935Y-106594775D01*
X184731935Y-106593273D01*
X184674384Y-106591489D01*
X184626360Y-106589399D01*
X184586938Y-106586980D01*
X184555197Y-106584208D01*
X184530212Y-106581059D01*
X184511062Y-106577510D01*
X184496821Y-106573536D01*
X184486569Y-106569116D01*
X184479380Y-106564224D01*
X184474333Y-106558838D01*
X184470503Y-106552934D01*
X184466969Y-106546487D01*
X184462806Y-106539475D01*
X184461723Y-106537625D01*
X184459511Y-106532118D01*
X184457484Y-106523806D01*
X184455636Y-106511747D01*
X184453959Y-106495001D01*
X184452443Y-106472625D01*
X184451081Y-106443678D01*
X184449865Y-106407218D01*
X184448787Y-106362305D01*
X184447838Y-106307995D01*
X184447010Y-106243348D01*
X184446295Y-106167422D01*
X184445685Y-106079276D01*
X184445640Y-106070431D01*
X184737076Y-106070431D01*
X184740958Y-106071703D01*
X184764218Y-106073729D01*
X184806572Y-106075564D01*
X184865830Y-106077165D01*
X184939805Y-106078487D01*
X185026308Y-106079486D01*
X185123150Y-106080118D01*
X185228143Y-106080338D01*
X185926349Y-106080338D01*
X187080788Y-106080338D01*
X187080154Y-106004138D01*
X187081272Y-105962098D01*
X187087002Y-105926272D01*
X187099588Y-105888710D01*
X187121266Y-105840515D01*
X187124487Y-105833835D01*
X187149886Y-105784297D01*
X187176694Y-105736307D01*
X187199615Y-105699404D01*
X187204183Y-105692772D01*
X187226214Y-105661531D01*
X187258391Y-105616592D01*
X187299155Y-105560085D01*
X187346943Y-105494142D01*
X187400196Y-105420895D01*
X187457353Y-105342474D01*
X187516853Y-105261010D01*
X187577135Y-105178636D01*
X187636638Y-105097482D01*
X187693803Y-105019680D01*
X187747068Y-104947361D01*
X187794872Y-104882656D01*
X187835655Y-104827697D01*
X187867856Y-104784614D01*
X187889914Y-104755540D01*
X187900269Y-104742605D01*
X187904742Y-104738289D01*
X187908934Y-104736250D01*
X187912341Y-104738864D01*
X187915023Y-104747924D01*
X187917039Y-104765223D01*
X187918446Y-104792552D01*
X187919303Y-104831703D01*
X187919668Y-104884471D01*
X187919601Y-104952645D01*
X187919158Y-105038020D01*
X187918400Y-105142387D01*
X187917383Y-105267538D01*
X187917006Y-105312238D01*
X187915867Y-105433333D01*
X187914670Y-105534626D01*
X187913334Y-105618200D01*
X187911775Y-105686142D01*
X187909913Y-105740537D01*
X187907664Y-105783470D01*
X187904946Y-105817027D01*
X187901677Y-105843293D01*
X187897776Y-105864354D01*
X187893159Y-105882295D01*
X187884890Y-105908708D01*
X187861281Y-105970710D01*
X187835383Y-106023511D01*
X187810233Y-106060583D01*
X187809037Y-106062013D01*
X187806866Y-106066362D01*
X187809026Y-106069964D01*
X187817342Y-106072889D01*
X187833638Y-106075207D01*
X187859739Y-106076989D01*
X187897469Y-106078305D01*
X187948654Y-106079224D01*
X188015118Y-106079816D01*
X188098685Y-106080153D01*
X188201181Y-106080303D01*
X188324430Y-106080338D01*
X188855994Y-106080338D01*
X188817221Y-106022721D01*
X188811130Y-106013831D01*
X188800674Y-105999007D01*
X188791277Y-105985360D01*
X188782881Y-105971703D01*
X188775431Y-105956849D01*
X188768871Y-105939608D01*
X188763144Y-105918793D01*
X188758193Y-105893218D01*
X188753964Y-105861693D01*
X188750399Y-105823031D01*
X188747442Y-105776045D01*
X188745038Y-105719546D01*
X188743129Y-105652347D01*
X188741660Y-105573260D01*
X188740574Y-105481098D01*
X188739816Y-105374672D01*
X188739328Y-105252795D01*
X188739056Y-105114279D01*
X188738941Y-104957937D01*
X188738929Y-104782580D01*
X188738963Y-104587020D01*
X188738987Y-104370071D01*
X188738978Y-104247451D01*
X188738941Y-104042385D01*
X188738925Y-103858054D01*
X188738986Y-103693272D01*
X188739182Y-103546854D01*
X188739568Y-103417612D01*
X188740203Y-103304360D01*
X188741142Y-103205913D01*
X188742443Y-103121082D01*
X188744162Y-103048682D01*
X188746357Y-102987527D01*
X188749083Y-102936430D01*
X188752399Y-102894205D01*
X188756360Y-102859665D01*
X188761023Y-102831624D01*
X188766445Y-102808896D01*
X188772684Y-102790294D01*
X188779795Y-102774631D01*
X188787836Y-102760722D01*
X188796864Y-102747379D01*
X188806934Y-102733417D01*
X188818105Y-102717649D01*
X188857895Y-102659805D01*
X187798012Y-102659805D01*
X187836009Y-102722904D01*
X187850691Y-102747943D01*
X187865229Y-102775524D01*
X187877325Y-102803638D01*
X187887230Y-102834489D01*
X187895192Y-102870282D01*
X187901459Y-102913221D01*
X187906280Y-102965512D01*
X187909904Y-103029357D01*
X187912579Y-103106963D01*
X187914555Y-103200532D01*
X187916080Y-103312271D01*
X187917402Y-103444383D01*
X187918311Y-103564372D01*
X187918718Y-103681001D01*
X187918465Y-103776469D01*
X187917555Y-103850494D01*
X187915991Y-103902793D01*
X187913777Y-103933087D01*
X187910918Y-103941094D01*
X187907859Y-103937796D01*
X187889704Y-103916346D01*
X187859973Y-103879827D01*
X187820337Y-103830380D01*
X187772469Y-103770145D01*
X187718041Y-103701265D01*
X187658725Y-103625881D01*
X187596193Y-103546134D01*
X187532119Y-103464166D01*
X187468173Y-103382118D01*
X187406029Y-103302132D01*
X187347359Y-103226349D01*
X187293835Y-103156911D01*
X187247128Y-103095959D01*
X187208912Y-103045634D01*
X187180859Y-103008078D01*
X187164641Y-102985433D01*
X187119333Y-102913150D01*
X187079359Y-102833401D01*
X187057828Y-102765126D01*
X187054525Y-102707782D01*
X187059814Y-102659805D01*
X185928054Y-102660055D01*
X185967565Y-102690660D01*
X185976946Y-102698027D01*
X186039881Y-102752376D01*
X186108695Y-102820197D01*
X186185294Y-102903454D01*
X186271586Y-103004116D01*
X186288750Y-103024785D01*
X186329531Y-103074347D01*
X186379286Y-103135264D01*
X186436653Y-103205836D01*
X186500267Y-103284362D01*
X186568767Y-103369142D01*
X186640788Y-103458475D01*
X186714968Y-103550660D01*
X186730215Y-103569640D01*
X186789944Y-103643998D01*
X186864351Y-103736786D01*
X186936829Y-103827326D01*
X187006012Y-103913916D01*
X187070539Y-103994856D01*
X187129045Y-104068444D01*
X187180168Y-104132982D01*
X187222545Y-104186767D01*
X187254813Y-104228100D01*
X187275608Y-104255280D01*
X187283567Y-104266606D01*
X187281809Y-104270709D01*
X187268928Y-104291272D01*
X187244583Y-104327499D01*
X187209945Y-104377762D01*
X187166184Y-104440430D01*
X187114473Y-104513874D01*
X187055982Y-104596465D01*
X186991882Y-104686574D01*
X186923344Y-104782569D01*
X186851541Y-104882823D01*
X186777642Y-104985706D01*
X186702819Y-105089588D01*
X186628243Y-105192839D01*
X186555085Y-105293830D01*
X186484517Y-105390932D01*
X186417709Y-105482515D01*
X186355833Y-105566949D01*
X186300059Y-105642605D01*
X186251560Y-105707854D01*
X186211505Y-105761066D01*
X186181067Y-105800611D01*
X186160642Y-105825964D01*
X186114597Y-105880233D01*
X186064310Y-105936713D01*
X186017513Y-105986607D01*
X185926349Y-106080338D01*
X185228143Y-106080338D01*
X185297054Y-106080287D01*
X185395305Y-106080029D01*
X185484728Y-106079575D01*
X185563031Y-106078948D01*
X185627921Y-106078173D01*
X185677109Y-106077273D01*
X185708302Y-106076272D01*
X185719209Y-106075195D01*
X185718020Y-106071975D01*
X185707874Y-106054390D01*
X185690738Y-106028096D01*
X185682238Y-106015629D01*
X185673027Y-106001560D01*
X185664931Y-105987289D01*
X185657883Y-105971417D01*
X185651815Y-105952547D01*
X185646659Y-105929279D01*
X185642349Y-105900216D01*
X185638817Y-105863959D01*
X185635995Y-105819108D01*
X185633816Y-105764266D01*
X185632212Y-105698035D01*
X185631117Y-105619015D01*
X185630463Y-105525809D01*
X185630182Y-105417017D01*
X185630207Y-105291241D01*
X185630470Y-105147083D01*
X185630904Y-104983145D01*
X185631443Y-104798027D01*
X185631977Y-104619170D01*
X185632503Y-104460312D01*
X185633048Y-104321254D01*
X185633643Y-104200603D01*
X185634317Y-104096966D01*
X185635101Y-104008949D01*
X185636024Y-103935161D01*
X185637117Y-103874207D01*
X185638410Y-103824695D01*
X185639933Y-103785231D01*
X185641717Y-103754422D01*
X185643790Y-103730876D01*
X185646184Y-103713198D01*
X185648928Y-103699997D01*
X185652054Y-103689878D01*
X185655590Y-103681449D01*
X185659489Y-103673313D01*
X185679136Y-103636482D01*
X185697923Y-103606329D01*
X185698970Y-103604846D01*
X185713300Y-103582597D01*
X185719209Y-103569640D01*
X185718202Y-103569187D01*
X185701003Y-103567741D01*
X185664354Y-103566418D01*
X185610660Y-103565254D01*
X185542328Y-103564285D01*
X185461762Y-103563549D01*
X185371368Y-103563080D01*
X185273551Y-103562916D01*
X184827893Y-103562916D01*
X184824818Y-104739783D01*
X184821743Y-105916649D01*
X184795105Y-105975560D01*
X184783183Y-106000121D01*
X184765944Y-106030372D01*
X184752772Y-106047498D01*
X184744774Y-106055529D01*
X184737076Y-106070431D01*
X184445640Y-106070431D01*
X184445172Y-105977967D01*
X184444748Y-105862555D01*
X184444404Y-105732098D01*
X184444132Y-105585654D01*
X184443925Y-105422282D01*
X184443774Y-105241039D01*
X184443670Y-105040986D01*
X184443606Y-104821179D01*
X184443574Y-104580677D01*
X184443565Y-104318540D01*
X184443565Y-102126969D01*
X184481947Y-102088587D01*
X184509053Y-102064849D01*
X184535951Y-102053049D01*
X184572258Y-102050205D01*
X184624187Y-102050205D01*
X184624187Y-102138144D01*
X184626125Y-102188040D01*
X184644897Y-102298461D01*
X184681915Y-102399925D01*
X184735067Y-102491090D01*
X184802244Y-102570611D01*
X184881336Y-102637143D01*
X184970232Y-102689344D01*
X185066823Y-102725868D01*
X185168998Y-102745372D01*
X185274648Y-102746511D01*
X185381662Y-102727943D01*
X185487930Y-102688322D01*
X185584917Y-102630454D01*
X185669991Y-102555622D01*
X185738713Y-102467553D01*
X185789616Y-102368554D01*
X185821233Y-102260931D01*
X185832098Y-102146992D01*
X185832098Y-102050205D01*
X187452451Y-102050205D01*
X187663595Y-102050218D01*
X187867718Y-102050268D01*
X188051384Y-102050368D01*
X188215689Y-102050530D01*
X188361727Y-102050767D01*
X188490592Y-102051091D01*
X188603381Y-102051513D01*
X188701186Y-102052047D01*
X188785102Y-102052705D01*
X188856225Y-102053499D01*
X188915648Y-102054442D01*
X188964466Y-102055546D01*
X189003775Y-102056822D01*
X189034667Y-102058285D01*
X189058239Y-102059945D01*
X189075584Y-102061816D01*
X189087797Y-102063910D01*
X189095973Y-102066238D01*
X189101206Y-102068814D01*
X189107202Y-102072383D01*
X189113977Y-102075916D01*
X189120176Y-102079426D01*
X189125824Y-102083856D01*
X189130945Y-102090146D01*
X189135567Y-102099239D01*
X189139713Y-102112077D01*
X189143411Y-102129600D01*
X189146685Y-102152751D01*
X189149561Y-102182472D01*
X189152065Y-102219703D01*
X189154222Y-102265387D01*
X189156058Y-102320465D01*
X189157598Y-102385879D01*
X189158868Y-102462571D01*
X189159893Y-102551482D01*
X189160699Y-102653555D01*
X189160732Y-102659805D01*
X189161312Y-102769730D01*
G36*
X189161312Y-102769730D02*
G01*
X189161757Y-102900949D01*
X189162060Y-103048154D01*
X189162246Y-103212287D01*
X189162340Y-103394290D01*
X189162369Y-103595103D01*
X189162359Y-103815670D01*
X189162334Y-104056930D01*
X189162320Y-104319827D01*
X189162320Y-104361978D01*
X189162344Y-104622606D01*
X189162383Y-104861734D01*
X189162406Y-105080298D01*
X189162385Y-105279233D01*
X189162291Y-105459473D01*
X189162093Y-105621953D01*
X189161761Y-105767608D01*
X189161267Y-105897372D01*
X189160581Y-106012181D01*
X189159674Y-106112968D01*
X189158515Y-106200668D01*
X189157076Y-106276217D01*
X189155327Y-106340549D01*
X189153238Y-106394599D01*
X189150781Y-106439301D01*
X189147925Y-106475590D01*
X189144641Y-106504401D01*
X189140900Y-106526669D01*
X189136672Y-106543328D01*
X189131927Y-106555313D01*
X189126637Y-106563559D01*
X189120771Y-106569000D01*
X189114300Y-106572572D01*
X189107195Y-106575208D01*
X189099426Y-106577844D01*
X189090964Y-106581415D01*
X189086606Y-106583083D01*
X189078093Y-106585049D01*
X189065392Y-106586849D01*
X189047583Y-106588493D01*
X189023747Y-106589985D01*
X188992964Y-106591335D01*
X188954315Y-106592549D01*
X188906880Y-106593635D01*
X188849741Y-106594599D01*
X188781977Y-106595449D01*
X188702669Y-106596191D01*
X188610897Y-106596835D01*
X188505742Y-106597385D01*
X188386285Y-106597851D01*
X188251606Y-106598238D01*
X188100786Y-106598554D01*
X187932904Y-106598807D01*
X187747043Y-106599004D01*
X187542281Y-106599151D01*
X187317700Y-106599256D01*
X187072380Y-106599327D01*
X186805402Y-106599370D01*
X186767019Y-106599375D01*
X186501620Y-106599418D01*
X186257748Y-106599463D01*
X186034481Y-106599486D01*
X185830894Y-106599462D01*
X185646065Y-106599368D01*
X185479071Y-106599181D01*
X185328988Y-106598877D01*
X185194894Y-106598432D01*
X185075864Y-106597823D01*
X184970977Y-106597027D01*
X184879308Y-106596018D01*
X184799935Y-106594775D01*
X184731935Y-106593273D01*
X184674384Y-106591489D01*
X184626360Y-106589399D01*
X184586938Y-106586980D01*
X184555197Y-106584208D01*
X184530212Y-106581059D01*
X184511062Y-106577510D01*
X184496821Y-106573536D01*
X184486569Y-106569116D01*
X184479380Y-106564224D01*
X184474333Y-106558838D01*
X184470503Y-106552934D01*
X184466969Y-106546487D01*
X184462806Y-106539475D01*
X184461723Y-106537625D01*
X184459511Y-106532118D01*
X184457484Y-106523806D01*
X184455636Y-106511747D01*
X184453959Y-106495001D01*
X184452443Y-106472625D01*
X184451081Y-106443678D01*
X184449865Y-106407218D01*
X184448787Y-106362305D01*
X184447838Y-106307995D01*
X184447010Y-106243348D01*
X184446295Y-106167422D01*
X184445685Y-106079276D01*
X184445640Y-106070431D01*
X184737076Y-106070431D01*
X184740958Y-106071703D01*
X184764218Y-106073729D01*
X184806572Y-106075564D01*
X184865830Y-106077165D01*
X184939805Y-106078487D01*
X185026308Y-106079486D01*
X185123150Y-106080118D01*
X185228143Y-106080338D01*
X185926349Y-106080338D01*
X187080788Y-106080338D01*
X187080154Y-106004138D01*
X187081272Y-105962098D01*
X187087002Y-105926272D01*
X187099588Y-105888710D01*
X187121266Y-105840515D01*
X187124487Y-105833835D01*
X187149886Y-105784297D01*
X187176694Y-105736307D01*
X187199615Y-105699404D01*
X187204183Y-105692772D01*
X187226214Y-105661531D01*
X187258391Y-105616592D01*
X187299155Y-105560085D01*
X187346943Y-105494142D01*
X187400196Y-105420895D01*
X187457353Y-105342474D01*
X187516853Y-105261010D01*
X187577135Y-105178636D01*
X187636638Y-105097482D01*
X187693803Y-105019680D01*
X187747068Y-104947361D01*
X187794872Y-104882656D01*
X187835655Y-104827697D01*
X187867856Y-104784614D01*
X187889914Y-104755540D01*
X187900269Y-104742605D01*
X187904742Y-104738289D01*
X187908934Y-104736250D01*
X187912341Y-104738864D01*
X187915023Y-104747924D01*
X187917039Y-104765223D01*
X187918446Y-104792552D01*
X187919303Y-104831703D01*
X187919668Y-104884471D01*
X187919601Y-104952645D01*
X187919158Y-105038020D01*
X187918400Y-105142387D01*
X187917383Y-105267538D01*
X187917006Y-105312238D01*
X187915867Y-105433333D01*
X187914670Y-105534626D01*
X187913334Y-105618200D01*
X187911775Y-105686142D01*
X187909913Y-105740537D01*
X187907664Y-105783470D01*
X187904946Y-105817027D01*
X187901677Y-105843293D01*
X187897776Y-105864354D01*
X187893159Y-105882295D01*
X187884890Y-105908708D01*
X187861281Y-105970710D01*
X187835383Y-106023511D01*
X187810233Y-106060583D01*
X187809037Y-106062013D01*
X187806866Y-106066362D01*
X187809026Y-106069964D01*
X187817342Y-106072889D01*
X187833638Y-106075207D01*
X187859739Y-106076989D01*
X187897469Y-106078305D01*
X187948654Y-106079224D01*
X188015118Y-106079816D01*
X188098685Y-106080153D01*
X188201181Y-106080303D01*
X188324430Y-106080338D01*
X188855994Y-106080338D01*
X188817221Y-106022721D01*
X188811130Y-106013831D01*
X188800674Y-105999007D01*
X188791277Y-105985360D01*
X188782881Y-105971703D01*
X188775431Y-105956849D01*
X188768871Y-105939608D01*
X188763144Y-105918793D01*
X188758193Y-105893218D01*
X188753964Y-105861693D01*
X188750399Y-105823031D01*
X188747442Y-105776045D01*
X188745038Y-105719546D01*
X188743129Y-105652347D01*
X188741660Y-105573260D01*
X188740574Y-105481098D01*
X188739816Y-105374672D01*
X188739328Y-105252795D01*
X188739056Y-105114279D01*
X188738941Y-104957937D01*
X188738929Y-104782580D01*
X188738963Y-104587020D01*
X188738987Y-104370071D01*
X188738978Y-104247451D01*
X188738941Y-104042385D01*
X188738925Y-103858054D01*
X188738986Y-103693272D01*
X188739182Y-103546854D01*
X188739568Y-103417612D01*
X188740203Y-103304360D01*
X188741142Y-103205913D01*
X188742443Y-103121082D01*
X188744162Y-103048682D01*
X188746357Y-102987527D01*
X188749083Y-102936430D01*
X188752399Y-102894205D01*
X188756360Y-102859665D01*
X188761023Y-102831624D01*
X188766445Y-102808896D01*
X188772684Y-102790294D01*
X188779795Y-102774631D01*
X188787836Y-102760722D01*
X188796864Y-102747379D01*
X188806934Y-102733417D01*
X188818105Y-102717649D01*
X188857895Y-102659805D01*
X187798012Y-102659805D01*
X187836009Y-102722904D01*
X187850691Y-102747943D01*
X187865229Y-102775524D01*
X187877325Y-102803638D01*
X187887230Y-102834489D01*
X187895192Y-102870282D01*
X187901459Y-102913221D01*
X187906280Y-102965512D01*
X187909904Y-103029357D01*
X187912579Y-103106963D01*
X187914555Y-103200532D01*
X187916080Y-103312271D01*
X187917402Y-103444383D01*
X187918311Y-103564372D01*
X187918718Y-103681001D01*
X187918465Y-103776469D01*
X187917555Y-103850494D01*
X187915991Y-103902793D01*
X187913777Y-103933087D01*
X187910918Y-103941094D01*
X187907859Y-103937796D01*
X187889704Y-103916346D01*
X187859973Y-103879827D01*
X187820337Y-103830380D01*
X187772469Y-103770145D01*
X187718041Y-103701265D01*
X187658725Y-103625881D01*
X187596193Y-103546134D01*
X187532119Y-103464166D01*
X187468173Y-103382118D01*
X187406029Y-103302132D01*
X187347359Y-103226349D01*
X187293835Y-103156911D01*
X187247128Y-103095959D01*
X187208912Y-103045634D01*
X187180859Y-103008078D01*
X187164641Y-102985433D01*
X187119333Y-102913150D01*
X187079359Y-102833401D01*
X187057828Y-102765126D01*
X187054525Y-102707782D01*
X187059814Y-102659805D01*
X185928054Y-102660055D01*
X185967565Y-102690660D01*
X185976946Y-102698027D01*
X186039881Y-102752376D01*
X186108695Y-102820197D01*
X186185294Y-102903454D01*
X186271586Y-103004116D01*
X186288750Y-103024785D01*
X186329531Y-103074347D01*
X186379286Y-103135264D01*
X186436653Y-103205836D01*
X186500267Y-103284362D01*
X186568767Y-103369142D01*
X186640788Y-103458475D01*
X186714968Y-103550660D01*
X186730215Y-103569640D01*
X186789944Y-103643998D01*
X186864351Y-103736786D01*
X186936829Y-103827326D01*
X187006012Y-103913916D01*
X187070539Y-103994856D01*
X187129045Y-104068444D01*
X187180168Y-104132982D01*
X187222545Y-104186767D01*
X187254813Y-104228100D01*
X187275608Y-104255280D01*
X187283567Y-104266606D01*
X187281809Y-104270709D01*
X187268928Y-104291272D01*
X187244583Y-104327499D01*
X187209945Y-104377762D01*
X187166184Y-104440430D01*
X187114473Y-104513874D01*
X187055982Y-104596465D01*
X186991882Y-104686574D01*
X186923344Y-104782569D01*
X186851541Y-104882823D01*
X186777642Y-104985706D01*
X186702819Y-105089588D01*
X186628243Y-105192839D01*
X186555085Y-105293830D01*
X186484517Y-105390932D01*
X186417709Y-105482515D01*
X186355833Y-105566949D01*
X186300059Y-105642605D01*
X186251560Y-105707854D01*
X186211505Y-105761066D01*
X186181067Y-105800611D01*
X186160642Y-105825964D01*
X186114597Y-105880233D01*
X186064310Y-105936713D01*
X186017513Y-105986607D01*
X185926349Y-106080338D01*
X185228143Y-106080338D01*
X185297054Y-106080287D01*
X185395305Y-106080029D01*
X185484728Y-106079575D01*
X185563031Y-106078948D01*
X185627921Y-106078173D01*
X185677109Y-106077273D01*
X185708302Y-106076272D01*
X185719209Y-106075195D01*
X185718020Y-106071975D01*
X185707874Y-106054390D01*
X185690738Y-106028096D01*
X185682238Y-106015629D01*
X185673027Y-106001560D01*
X185664931Y-105987289D01*
X185657883Y-105971417D01*
X185651815Y-105952547D01*
X185646659Y-105929279D01*
X185642349Y-105900216D01*
X185638817Y-105863959D01*
X185635995Y-105819108D01*
X185633816Y-105764266D01*
X185632212Y-105698035D01*
X185631117Y-105619015D01*
X185630463Y-105525809D01*
X185630182Y-105417017D01*
X185630207Y-105291241D01*
X185630470Y-105147083D01*
X185630904Y-104983145D01*
X185631443Y-104798027D01*
X185631977Y-104619170D01*
X185632503Y-104460312D01*
X185633048Y-104321254D01*
X185633643Y-104200603D01*
X185634317Y-104096966D01*
X185635101Y-104008949D01*
X185636024Y-103935161D01*
X185637117Y-103874207D01*
X185638410Y-103824695D01*
X185639933Y-103785231D01*
X185641717Y-103754422D01*
X185643790Y-103730876D01*
X185646184Y-103713198D01*
X185648928Y-103699997D01*
X185652054Y-103689878D01*
X185655590Y-103681449D01*
X185659489Y-103673313D01*
X185679136Y-103636482D01*
X185697923Y-103606329D01*
X185698970Y-103604846D01*
X185713300Y-103582597D01*
X185719209Y-103569640D01*
X185718202Y-103569187D01*
X185701003Y-103567741D01*
X185664354Y-103566418D01*
X185610660Y-103565254D01*
X185542328Y-103564285D01*
X185461762Y-103563549D01*
X185371368Y-103563080D01*
X185273551Y-103562916D01*
X184827893Y-103562916D01*
X184824818Y-104739783D01*
X184821743Y-105916649D01*
X184795105Y-105975560D01*
X184783183Y-106000121D01*
X184765944Y-106030372D01*
X184752772Y-106047498D01*
X184744774Y-106055529D01*
X184737076Y-106070431D01*
X184445640Y-106070431D01*
X184445172Y-105977967D01*
X184444748Y-105862555D01*
X184444404Y-105732098D01*
X184444132Y-105585654D01*
X184443925Y-105422282D01*
X184443774Y-105241039D01*
X184443670Y-105040986D01*
X184443606Y-104821179D01*
X184443574Y-104580677D01*
X184443565Y-104318540D01*
X184443565Y-102126969D01*
X184481947Y-102088587D01*
X184509053Y-102064849D01*
X184535951Y-102053049D01*
X184572258Y-102050205D01*
X184624187Y-102050205D01*
X184624187Y-102138144D01*
X184626125Y-102188040D01*
X184644897Y-102298461D01*
X184681915Y-102399925D01*
X184735067Y-102491090D01*
X184802244Y-102570611D01*
X184881336Y-102637143D01*
X184970232Y-102689344D01*
X185066823Y-102725868D01*
X185168998Y-102745372D01*
X185274648Y-102746511D01*
X185381662Y-102727943D01*
X185487930Y-102688322D01*
X185584917Y-102630454D01*
X185669991Y-102555622D01*
X185738713Y-102467553D01*
X185789616Y-102368554D01*
X185821233Y-102260931D01*
X185832098Y-102146992D01*
X185832098Y-102050205D01*
X187452451Y-102050205D01*
X187663595Y-102050218D01*
X187867718Y-102050268D01*
X188051384Y-102050368D01*
X188215689Y-102050530D01*
X188361727Y-102050767D01*
X188490592Y-102051091D01*
X188603381Y-102051513D01*
X188701186Y-102052047D01*
X188785102Y-102052705D01*
X188856225Y-102053499D01*
X188915648Y-102054442D01*
X188964466Y-102055546D01*
X189003775Y-102056822D01*
X189034667Y-102058285D01*
X189058239Y-102059945D01*
X189075584Y-102061816D01*
X189087797Y-102063910D01*
X189095973Y-102066238D01*
X189101206Y-102068814D01*
X189107202Y-102072383D01*
X189113977Y-102075916D01*
X189120176Y-102079426D01*
X189125824Y-102083856D01*
X189130945Y-102090146D01*
X189135567Y-102099239D01*
X189139713Y-102112077D01*
X189143411Y-102129600D01*
X189146685Y-102152751D01*
X189149561Y-102182472D01*
X189152065Y-102219703D01*
X189154222Y-102265387D01*
X189156058Y-102320465D01*
X189157598Y-102385879D01*
X189158868Y-102462571D01*
X189159893Y-102551482D01*
X189160699Y-102653555D01*
X189160732Y-102659805D01*
X189161312Y-102769730D01*
G37*
%TD*%
M02*
